SplineFontDB: 3.0
FontName: aghtex_mathit_light
FullName: aghtex_mathit_light
FamilyName: Computer Modern
Weight: Light
Copyright: Copyright (c) 1997, 2009 American Mathematical Society (<http://www.ams.org>), with Reserved Font Name CMMI10.
Version: 003.002
ItalicAngle: -14.04
UnderlinePosition: -100
UnderlineWidth: 50
Ascent: 750
Descent: 250
LayerCount: 2
Layer: 0 1 "+gMyXYgAA"  1
Layer: 1 1 "+Uk2XYgAA"  0
NeedsXUIDChange: 1
UniqueID: 5087385
FSType: 8
OS2Version: 1
OS2_WeightWidthSlopeOnly: 0
OS2_UseTypoMetrics: 0
CreationTime: 1344259757
ModificationTime: 1356460584
PfmFamily: 17
TTFWeight: 200
TTFWidth: 5
LineGap: 90
VLineGap: 0
OS2TypoAscent: 0
OS2TypoAOffset: 1
OS2TypoDescent: 0
OS2TypoDOffset: 1
OS2TypoLinegap: 90
OS2WinAscent: 0
OS2WinAOffset: 1
OS2WinDescent: 0
OS2WinDOffset: 1
HheadAscent: 0
HheadAOffset: 1
HheadDescent: 0
HheadDOffset: 1
OS2Vendor: 'PfEd'
MarkAttachClasses: 1
DEI: 91125
ShortTable: maxp 16
  0
  0
  0
  0
  0
  0
  0
  2
  1
  2
  22
  0
  256
  0
  0
  0
EndShort
TtTable: prep
PUSHW_1
 511
SCANCTRL
PUSHB_1
 1
SCANTYPE
SVTCA[y-axis]
MPPEM
PUSHB_1
 8
LT
IF
PUSHB_2
 1
 1
INSTCTRL
EIF
PUSHB_2
 70
 6
CALL
IF
POP
PUSHB_1
 16
EIF
MPPEM
PUSHB_1
 20
GT
IF
POP
PUSHB_1
 128
EIF
SCVTCI
PUSHB_1
 6
CALL
NOT
IF
SVTCA[y-axis]
PUSHB_1
 5
DUP
RCVT
PUSHB_1
 3
CALL
WCVTP
PUSHB_1
 6
DUP
RCVT
PUSHB_3
 5
 113
 2
CALL
PUSHB_1
 3
CALL
WCVTP
SVTCA[x-axis]
PUSHB_1
 7
DUP
RCVT
PUSHB_1
 3
CALL
WCVTP
EIF
PUSHB_1
 20
CALL
EndTTInstrs
TtTable: fpgm
PUSHB_1
 0
FDEF
PUSHB_1
 0
SZP0
MPPEM
PUSHB_1
 46
LT
IF
PUSHB_1
 74
SROUND
EIF
PUSHB_1
 0
SWAP
MIAP[rnd]
RTG
PUSHB_1
 6
CALL
IF
RTDG
EIF
MPPEM
PUSHB_1
 46
LT
IF
RDTG
EIF
DUP
MDRP[rp0,rnd,grey]
PUSHB_1
 1
SZP0
MDAP[no-rnd]
RTG
ENDF
PUSHB_1
 1
FDEF
DUP
MDRP[rp0,min,white]
PUSHB_1
 12
CALL
ENDF
PUSHB_1
 2
FDEF
MPPEM
GT
IF
RCVT
SWAP
EIF
POP
ENDF
PUSHB_1
 3
FDEF
ROUND[Black]
RTG
DUP
PUSHB_1
 64
LT
IF
POP
PUSHB_1
 64
EIF
ENDF
PUSHB_1
 4
FDEF
PUSHB_1
 6
CALL
IF
POP
SWAP
POP
ROFF
IF
MDRP[rp0,min,rnd,black]
ELSE

StartChar: A
Encoding: 65 65 0
Width: 750
Flags: W
HStem: 0 31<39.6425 112.742 197.172 252.773 456.674 539.248 644.805 720.719> 231 31<299 528>
LayerCount: 2
Fore
SplineSet
179 115 m 2,0,-1
 527 699 l 2,1,2
 537 716 537 716 553 716 c 0,3,4
 560 716 560 716 563 715.5 c 128,-1,5
 566 715 566 715 568 711.5 c 128,-1,6
 570 708 570 708 570.5 704.5 c 128,-1,7
 571 701 571 701 572 692 c 2,8,-1
 633 67 l 2,9,10
 635 43 635 43 644.5 37 c 128,-1,11
 654 31 654 31 698 31 c 0,12,13
 721 31 721 31 721 20 c 0,14,15
 721 0 721 0 703 0 c 0,16,17
 690 0 690 0 646 1.5 c 128,-1,18
 602 3 602 3 590 3 c 0,19,20
 570 3 570 3 528 1.5 c 128,-1,21
 486 0 486 0 465 0 c 0,22,23
 451 0 451 0 451 11 c 0,24,25
 451 25 451 25 456.5 28 c 128,-1,26
 462 31 462 31 475 31 c 0,27,28
 547 31 547 31 547 64 c 0,29,30
 547 68 547 68 543.5 104 c 128,-1,31
 540 140 540 140 535.5 183.5 c 128,-1,32
 531 227 531 227 531 231 c 1,33,-1
 280 231 l 1,34,-1
 204 103 l 2,35,36
 190 78 190 78 190 66 c 0,37,38
 190 35 190 35 237 31 c 1,39,40
 253 31 253 31 253 19 c 0,41,42
 253 0 253 0 234 0 c 0,43,44
 218 0 218 0 184.5 1.5 c 128,-1,45
 151 3 151 3 134 3 c 0,46,47
 120 3 120 3 90.5 1.5 c 128,-1,48
 61 0 61 0 48 0 c 128,-1,49
 35 0 35 0 35 11 c 0,50,51
 35 24 35 24 39.5 27 c 128,-1,52
 44 30 44 30 56 31 c 0,53,54
 93 34 93 34 122 51.5 c 128,-1,55
 151 69 151 69 179 115 c 2,0,-1
299 262 m 1,56,-1
 528 262 l 1,57,-1
 496 592 l 1,58,-1
 299 262 l 1,56,-1
EndSplineSet
EndChar

StartChar: B
Encoding: 66 66 1
Width: 758
Flags: W
HStem: 0 31<42.2109 138.068 231.003 480.531> 344 22<311 528.197> 652 31<205.211 297.833 387.74 620.713>
VStem: 609 93<142.47 287.135> 665 91<471.424 613.736>
LayerCount: 2
Fore
SplineSet
160 78 m 2,0,-1
 294 615 l 2,1,2
 298 631 298 631 298 634 c 0,3,4
 298 640 298 640 294.5 643.5 c 128,-1,5
 291 647 291 647 286.5 648 c 128,-1,6
 282 649 282 649 271 650 c 0,7,8
 254 652 254 652 233 652 c 0,9,10
 216 652 216 652 210.5 653.5 c 128,-1,11
 205 655 205 655 205 663 c 0,12,13
 205 677 205 677 211 680 c 128,-1,14
 217 683 217 683 234 683 c 2,15,-1
 570 683 l 2,16,17
 657 683 657 683 706.5 643 c 128,-1,18
 756 603 756 603 756 545 c 0,19,20
 756 477 756 477 693 424.5 c 128,-1,21
 630 372 630 372 547 357 c 1,22,23
 619 349 619 349 660.5 310 c 128,-1,24
 702 271 702 271 702 216 c 0,25,26
 702 138 702 138 620.5 69 c 128,-1,27
 539 0 539 0 426 0 c 2,28,-1
 69 0 l 2,29,30
 53 0 53 0 47.5 1.5 c 128,-1,31
 42 3 42 3 42 11 c 0,32,33
 42 25 42 25 48 28 c 128,-1,34
 54 31 54 31 69 31 c 0,35,36
 125 31 125 31 138.5 39 c 128,-1,37
 152 47 152 47 160 78 c 2,0,-1
311 366 m 1,38,-1
 457 366 l 2,39,40
 545 366 545 366 605 423 c 128,-1,41
 665 480 665 480 665 549 c 0,42,43
 665 590 665 590 640 621 c 128,-1,44
 615 652 615 652 556 652 c 2,45,-1
 427 652 l 2,46,47
 395 652 395 652 387.5 646.5 c 128,-1,48
 380 641 380 641 373 614 c 2,49,-1
 311 366 l 1,38,-1
266 31 m 2,50,-1
 402 31 l 2,51,52
 488 31 488 31 548.5 91 c 128,-1,53
 609 151 609 151 609 227 c 0,54,55
 609 246 609 246 604 264 c 128,-1,56
 599 282 599 282 587.5 301 c 128,-1,57
 576 320 576 320 552 332 c 128,-1,58
 528 344 528 344 494 344 c 2,59,-1
 305 344 l 1,60,-1
 236 65 l 2,61,62
 231 47 231 47 231 42 c 0,63,64
 231 33 231 33 244 32 c 0,65,66
 250 31 250 31 266 31 c 2,50,-1
EndSplineSet
EndChar

StartChar: C
Encoding: 67 67 2
Width: 714
Flags: W
HStem: -22 31<257.538 416.058> 674 31<418.05 577.638>
VStem: 50 91<136.066 357.914> 664 28.5<421.516 475.859>
LayerCount: 2
Fore
SplineSet
760 695 m 1,0,-1
 697 440 l 2,1,2
 695 433 695 433 694.5 431 c 128,-1,3
 694 429 694 429 692.5 425.5 c 128,-1,4
 691 422 691 422 689.5 421.5 c 128,-1,5
 688 421 688 421 685.5 420.5 c 128,-1,6
 683 420 683 420 679 420 c 0,7,8
 664 420 664 420 664 430 c 0,9,10
 664 431 664 431 665.5 444 c 128,-1,11
 667 457 667 457 667 481 c 0,12,13
 667 569 667 569 624.5 621.5 c 128,-1,14
 582 674 582 674 506 674 c 0,15,16
 440 674 440 674 374.5 640.5 c 128,-1,17
 309 607 309 607 262 553 c 0,18,19
 196 476 196 476 168.5 379 c 128,-1,20
 141 282 141 282 141 217 c 0,21,22
 141 110 141 110 199.5 59.5 c 128,-1,23
 258 9 258 9 337 9 c 0,24,25
 431 9 431 9 521 82 c 1,26,27
 591 141 591 141 622 240 c 1,28,29
 624 250 624 250 635 250 c 0,30,31
 647 250 647 250 647 240 c 0,32,33
 647 234 647 234 640 212 c 128,-1,34
 633 190 633 190 605.5 145.5 c 128,-1,35
 578 101 578 101 537 64 c 1,36,37
 438 -22 438 -22 321 -22 c 128,-1,38
 204 -22 204 -22 127 54 c 128,-1,39
 50 130 50 130 50 252 c 0,40,41
 50 337 50 337 89 420.5 c 128,-1,42
 128 504 128 504 190 566 c 128,-1,43
 252 628 252 628 334 666.5 c 128,-1,44
 416 705 416 705 498 705 c 0,45,46
 607 705 607 705 664 616 c 1,47,-1
 734 693 l 2,48,49
 746 705 746 705 749 705 c 0,50,51
 760 705 760 705 760 695 c 1,0,-1
EndSplineSet
EndChar

StartChar: D
Encoding: 68 68 3
Width: 827
Flags: W
HStem: 0 31<43.6096 137.068 233.003 475.752> 652 31<206.61 296.737 389.74 617.567>
VStem: 717 87<324.581 544.394>
LayerCount: 2
Fore
SplineSet
159 78 m 2,0,-1
 293 615 l 2,1,2
 297 631 297 631 297 634 c 0,3,4
 297 647 297 647 275 650 c 1,5,6
 251 652 251 652 232 652 c 0,7,8
 220 652 220 652 215 652.5 c 128,-1,9
 210 653 210 653 206.5 655.5 c 128,-1,10
 203 658 203 658 203 664 c 0,11,12
 203 677 203 677 209.5 680 c 128,-1,13
 216 683 216 683 233 683 c 2,14,-1
 569 683 l 2,15,16
 678 683 678 683 741 611.5 c 128,-1,17
 804 540 804 540 804 430 c 0,18,19
 804 323 804 323 746.5 223 c 128,-1,20
 689 123 689 123 595 61.5 c 128,-1,21
 501 0 501 0 399 0 c 2,22,-1
 68 0 l 2,23,24
 56 0 56 0 51.5 0.5 c 128,-1,25
 47 1 47 1 43.5 3.5 c 128,-1,26
 40 6 40 6 40 12 c 0,27,28
 40 25 40 25 46 28 c 128,-1,29
 52 31 52 31 68 31 c 0,30,31
 124 31 124 31 137.5 39 c 128,-1,32
 151 47 151 47 159 78 c 2,0,-1
375 614 m 2,33,-1
 238 65 l 2,34,35
 233 47 233 47 233 42 c 0,36,37
 233 33 233 33 246 32 c 0,38,39
 252 31 252 31 268 31 c 2,40,-1
 381 31 l 2,41,42
 462 31 462 31 521 67 c 128,-1,43
 580 103 580 103 612 144 c 0,44,45
 667 216 667 216 692 312.5 c 128,-1,46
 717 409 717 409 717 467 c 0,47,48
 717 561 717 561 666.5 606.5 c 128,-1,49
 616 652 616 652 536 652 c 2,50,-1
 429 652 l 2,51,52
 397 652 397 652 389.5 646.5 c 128,-1,53
 382 641 382 641 375 614 c 2,33,-1
EndSplineSet
EndChar

StartChar: E
Encoding: 69 69 4
Width: 738
Flags: W
HStem: 0 31<41.6096 135.068 234.003 526.764> 338 31<315 482.436> 455 21G<723 731.5> 649 31<201.229 293.821 389.74 675.972>
VStem: 717 24<457.579 537.187>
LayerCount: 2
Fore
SplineSet
708 233 m 2,0,-1
 616 17 l 2,1,2
 611 5 611 5 606.5 2.5 c 128,-1,3
 602 0 602 0 585 0 c 2,4,-1
 66 0 l 2,5,6
 54 0 54 0 49.5 0.5 c 128,-1,7
 45 1 45 1 41.5 3.5 c 128,-1,8
 38 6 38 6 38 12 c 0,9,10
 38 25 38 25 44 28 c 128,-1,11
 50 31 50 31 66 31 c 0,12,13
 122 31 122 31 135.5 39 c 128,-1,14
 149 47 149 47 157 78 c 2,15,-1
 289 607 l 2,16,17
 294 625 294 625 294 631 c 0,18,19
 294 643 294 643 279 646 c 128,-1,20
 264 649 264 649 229 649 c 0,21,22
 212 649 212 649 206.5 650.5 c 128,-1,23
 201 652 201 652 201 660 c 0,24,25
 201 674 201 674 207.5 677 c 128,-1,26
 214 680 214 680 231 680 c 2,27,-1
 736 680 l 2,28,29
 756 680 756 680 760.5 676 c 128,-1,30
 765 672 765 672 763 653 c 2,31,-1
 743 480 l 2,32,33
 742 469 742 469 741 464.5 c 128,-1,34
 740 460 740 460 737 457.5 c 128,-1,35
 734 455 734 455 729 455 c 0,36,37
 717 455 717 455 717 467 c 0,38,39
 717 469 717 469 717.5 475.5 c 128,-1,40
 718 482 718 482 718 485 c 0,41,42
 722 512 722 512 722 538 c 0,43,44
 722 601 722 601 691 625 c 128,-1,45
 660 649 660 649 570 649 c 2,46,-1
 429 649 l 2,47,48
 397 649 397 649 389.5 643 c 128,-1,49
 382 637 382 637 375 610 c 2,50,-1
 315 369 l 1,51,-1
 409 369 l 2,52,53
 475 369 475 369 499.5 388.5 c 128,-1,54
 524 408 524 408 540 468 c 0,55,56
 544 486 544 486 554 486 c 0,57,58
 566 486 566 486 566 475 c 1,59,-1
 509 241 l 2,60,61
 504 221 504 221 494 221 c 0,62,63
 481 221 481 221 481 232 c 0,64,65
 481 236 481 236 484 243 c 1,66,67
 491 273 491 273 491 292 c 0,68,69
 491 308 491 308 488 316 c 128,-1,70
 485 324 485 324 465.5 331 c 128,-1,71
 446 338 446 338 406 338 c 2,72,-1
 307 338 l 1,73,-1
 239 65 l 2,74,75
 234 47 234 47 234 42 c 0,76,77
 234 33 234 33 247 32 c 0,78,79
 253 31 253 31 269 31 c 2,80,-1
 415 31 l 2,81,82
 466 31 466 31 503.5 40 c 128,-1,83
 541 49 541 49 566 63 c 128,-1,84
 591 77 591 77 613.5 107.5 c 128,-1,85
 636 138 636 138 650.5 166 c 128,-1,86
 665 194 665 194 688 246 c 1,87,88
 692 258 692 258 701 258 c 0,89,90
 713 258 713 258 713 247 c 0,91,92
 713 246 713 246 708 233 c 2,0,-1
EndSplineSet
EndChar

StartChar: F
Encoding: 70 70 5
Width: 643
Flags: W
HStem: 0 31<38.1465 135.068 242.676 349> 325 31<311 467.007> 455 21G<708 716.5> 649 31<201.229 293.821 389.74 662.489>
VStem: 473 27<208.448 256.618> 536.5 21.5<435.828 472.957> 702 24<457.579 538.156>
LayerCount: 2
Fore
SplineSet
303 325 m 1,0,-1
 241 76 l 2,1,2
 237 61 237 61 237 53 c 0,3,4
 237 43 237 43 242.5 39 c 128,-1,5
 248 35 248 35 269 33 c 0,6,7
 294 31 294 31 321 31 c 0,8,9
 346 31 346 31 349 30 c 2,10,-1
 350.5 29 l 2,11,12
 352 28 352 28 353.5 25.5 c 128,-1,13
 355 23 355 23 355 19 c 0,14,15
 355 0 355 0 334 0 c 0,16,17
 318 0 318 0 260 1.5 c 128,-1,18
 202 3 202 3 185 3 c 0,19,20
 170 3 170 3 119 1.5 c 128,-1,21
 68 0 68 0 53 0 c 128,-1,22
 38 0 38 0 38 12 c 0,23,24
 38 25 38 25 44 28 c 128,-1,25
 50 31 50 31 66 31 c 0,26,27
 122 31 122 31 135.5 39 c 128,-1,28
 149 47 149 47 157 78 c 2,29,-1
 289 607 l 2,30,31
 294 625 294 625 294 631 c 0,32,33
 294 643 294 643 279 646 c 128,-1,34
 264 649 264 649 229 649 c 0,35,36
 212 649 212 649 206.5 650.5 c 128,-1,37
 201 652 201 652 201 660 c 0,38,39
 201 674 201 674 207.5 677 c 128,-1,40
 214 680 214 680 231 680 c 2,41,-1
 721 680 l 2,42,43
 741 680 741 680 745.5 676 c 128,-1,44
 750 672 750 672 748 653 c 2,45,-1
 728 480 l 2,46,47
 727 469 727 469 726 464.5 c 128,-1,48
 725 460 725 460 722 457.5 c 128,-1,49
 719 455 719 455 714 455 c 0,50,51
 702 455 702 455 702 467 c 0,52,53
 702 472 702 472 704 485 c 0,54,55
 707 512 707 512 707 539 c 0,56,57
 707 600 707 600 678 624.5 c 128,-1,58
 649 649 649 649 561 649 c 2,59,-1
 429 649 l 2,60,61
 397 649 397 649 389.5 643 c 128,-1,62
 382 637 382 637 375 610 c 2,63,-1
 311 356 l 1,64,-1
 402 356 l 2,65,66
 466 356 466 356 490.5 374.5 c 128,-1,67
 515 393 515 393 531 452 c 0,68,69
 534 465 534 465 536.5 469 c 128,-1,70
 539 473 539 473 546 473 c 0,71,72
 558 473 558 473 558 462 c 0,73,74
 558 457 558 457 555 446 c 2,75,-1
 500 229 l 1,76,77
 489.868 209.141 489.868 209.141 485 208 c 1,78,79
 473 208 473 208 473 220 c 0,80,81
 473 224 473 224 476 231 c 1,82,83
 483 261 483 261 483 280 c 0,84,85
 483 304 483 304 467.5 314.5 c 128,-1,86
 452 325 452 325 400 325 c 2,87,-1
 303 325 l 1,0,-1
EndSplineSet
EndChar

StartChar: G
Encoding: 71 71 6
Width: 786
Flags: W
HStem: -22 31<261.559 424.096> 1 21G<576.5 583.5> 242 31<442.33 550.325 653.805 720.743> 674 31<416.131 577.638>
VStem: 50 91<136.611 356.242> 664 28.5<421.516 475.859>
LayerCount: 2
Fore
SplineSet
760 695 m 1,0,-1
 697 440 l 2,1,2
 695 433 695 433 694.5 431 c 128,-1,3
 694 429 694 429 692.5 425.5 c 128,-1,4
 691 422 691 422 689.5 421.5 c 128,-1,5
 688 421 688 421 685.5 420.5 c 128,-1,6
 683 420 683 420 679 420 c 0,7,8
 664 420 664 420 664 430 c 0,9,10
 664 431 664 431 665.5 444 c 128,-1,11
 667 457 667 457 667 481 c 0,12,13
 667 569 667 569 624.5 621.5 c 128,-1,14
 582 674 582 674 506 674 c 0,15,16
 435 674 435 674 367 636.5 c 128,-1,17
 299 599 299 599 256 545 c 0,18,19
 209 486 209 486 180.5 408.5 c 128,-1,20
 152 331 152 331 146.5 289.5 c 128,-1,21
 141 248 141 248 141 219 c 0,22,23
 141 113 141 113 200.5 61 c 128,-1,24
 260 9 260 9 342 9 c 0,25,26
 361 9 361 9 384 13 c 128,-1,27
 407 17 407 17 440 28 c 128,-1,28
 473 39 473 39 499 65.5 c 128,-1,29
 525 92 525 92 535 130 c 0,30,31
 556 208 556 208 556 221 c 0,32,33
 556 231 556 231 550.5 234.5 c 128,-1,34
 545 238 545 238 525 240 c 0,35,36
 502 242 502 242 472 242 c 0,37,38
 454 242 454 242 448 243.5 c 128,-1,39
 442 245 442 245 442 253 c 0,40,41
 442 273 442 273 463 273 c 0,42,43
 478 273 478 273 533 271.5 c 128,-1,44
 588 270 588 270 603 270 c 0,45,46
 614 270 614 270 655 271.5 c 128,-1,47
 696 273 696 273 708 273 c 0,48,49
 721 273 721 273 721 262 c 0,50,51
 721 242 721 242 705 242 c 0,52,53
 663 241 663 241 653.5 234.5 c 128,-1,54
 644 228 644 228 636 194 c 0,55,56
 634 186 634 186 629.5 169 c 128,-1,57
 625 152 625 152 623 143 c 2,58,-1
 604 66 l 2,59,60
 590 8 590 8 587 5 c 1,61,62
 587 1 587 1 580 1 c 128,-1,63
 573 1 573 1 557.5 22.5 c 128,-1,64
 542 44 542 44 535 63 c 1,65,66
 498 22 498 22 448 2 c 0,67,68
 390 -22 390 -22 323 -22 c 0,69,70
 202 -22 202 -22 126 55 c 128,-1,71
 50 132 50 132 50 252 c 0,72,73
 50 337 50 337 89 420.5 c 128,-1,74
 128 504 128 504 190 566 c 128,-1,75
 252 628 252 628 334 666.5 c 128,-1,76
 416 705 416 705 498 705 c 0,77,78
 607 705 607 705 664 616 c 1,79,-1
 734 693 l 2,80,81
 746 705 746 705 749 705 c 0,82,83
 760 705 760 705 760 695 c 1,0,-1
EndSplineSet
EndChar

StartChar: H
Encoding: 72 72 7
Width: 831
Flags: W
HStem: 0 31<39.1934 135.068 236.179 328.684 433.158 518.461 625.179 717.684> 340 31<315 612> 652 31<202.277 294.833 394.416 491.781 591.277 683.833 783.416 880.771>
LayerCount: 2
Fore
SplineSet
763 606 m 2,0,-1
 628 66 l 2,1,2
 628 65 628 65 626.5 59 c 128,-1,3
 625 53 625 53 625 49 c 0,4,5
 625 37 625 37 640 34 c 128,-1,6
 655 31 655 31 690 31 c 0,7,8
 706 31 706 31 712 29.5 c 128,-1,9
 718 28 718 28 718 20 c 0,10,11
 718 11 718 11 714 6 c 128,-1,12
 710 1 710 1 707 0.5 c 128,-1,13
 704 0 704 0 698 0 c 0,14,15
 688 0 688 0 666 1 c 128,-1,16
 644 2 644 2 633 2 c 128,-1,17
 622 2 622 2 601 2.5 c 128,-1,18
 580 3 580 3 569 3 c 0,19,20
 555 3 555 3 505.5 1.5 c 128,-1,21
 456 0 456 0 442 0 c 128,-1,22
 428 0 428 0 428 11 c 0,23,24
 428 25 428 25 433 28 c 128,-1,25
 438 31 438 31 452 31 c 0,26,27
 502 31 502 31 519 36 c 128,-1,28
 536 41 536 41 543 64 c 0,29,30
 544 69 544 69 552.5 102 c 128,-1,31
 561 135 561 135 577.5 201.5 c 128,-1,32
 594 268 594 268 612 340 c 1,33,-1
 307 340 l 1,34,-1
 239 66 l 2,35,36
 239 65 239 65 237.5 59 c 128,-1,37
 236 53 236 53 236 49 c 0,38,39
 236 37 236 37 251 34 c 128,-1,40
 266 31 266 31 301 31 c 0,41,42
 318 31 318 31 323.5 29.5 c 128,-1,43
 329 28 329 28 329 20 c 0,44,45
 329 11 329 11 325 6 c 128,-1,46
 321 1 321 1 318 0.5 c 128,-1,47
 315 0 315 0 309 0 c 0,48,49
 299 0 299 0 277 1 c 128,-1,50
 255 2 255 2 244 2 c 0,51,52
 234 2 234 2 212 2.5 c 128,-1,53
 190 3 190 3 180 3 c 0,54,55
 166 3 166 3 116.5 1.5 c 128,-1,56
 67 0 67 0 53 0 c 128,-1,57
 39 0 39 0 39 11 c 0,58,59
 39 25 39 25 44.5 28 c 128,-1,60
 50 31 50 31 66 31 c 0,61,62
 122 31 122 31 135.5 39 c 128,-1,63
 149 47 149 47 157 78 c 2,64,-1
 291 615 l 2,65,66
 295 631 295 631 295 634 c 0,67,68
 295 640 295 640 291.5 643.5 c 128,-1,69
 288 647 288 647 283.5 648 c 128,-1,70
 279 649 279 649 268 650 c 0,71,72
 251 652 251 652 230 652 c 0,73,74
 214 652 214 652 208 653.5 c 128,-1,75
 202 655 202 655 202 663 c 0,76,77
 202 672 202 672 205.5 677 c 128,-1,78
 209 682 209 682 212 682.5 c 128,-1,79
 215 683 215 683 221 683 c 0,80,81
 236 683 236 683 286 681.5 c 128,-1,82
 336 680 336 680 350 680 c 128,-1,83
 364 680 364 680 414 681.5 c 128,-1,84
 464 683 464 683 478 683 c 128,-1,85
 492 683 492 683 492 672 c 0,86,87
 492 658 492 658 486 655 c 128,-1,88
 480 652 480 652 458 652 c 0,89,90
 407 652 407 652 394 643.5 c 128,-1,91
 381 635 381 635 374 606 c 2,92,-1
 315 371 l 1,93,-1
 620 371 l 1,94,-1
 680 615 l 2,95,96
 684 632 684 632 684 634 c 0,97,98
 684 640 684 640 680.5 643.5 c 128,-1,99
 677 647 677 647 672.5 648 c 128,-1,100
 668 649 668 649 657 650 c 0,101,102
 640 652 640 652 619 652 c 0,103,104
 602 652 602 652 596.5 653.5 c 128,-1,105
 591 655 591 655 591 663 c 0,106,107
 591 672 591 672 594.5 677 c 128,-1,108
 598 682 598 682 601 682.5 c 128,-1,109
 604 683 604 683 610 683 c 0,110,111
 624 683 624 683 674 681.5 c 128,-1,112
 724 680 724 680 739 680 c 0,113,114
 753 680 753 680 803 681.5 c 128,-1,115
 853 683 853 683 867 683 c 128,-1,116
 881 683 881 683 881 672 c 0,117,118
 881 658 881 658 874.5 655 c 128,-1,119
 868 652 868 652 847 652 c 0,120,121
 796 652 796 652 783 644 c 128,-1,122
 770 636 770 636 763 606 c 2,0,-1
EndSplineSet
EndChar

StartChar: I
Encoding: 73 73 8
Width: 439
Flags: W
HStem: 0 31<34.2109 135.552 241.159 330.39> 652 31<197.312 293.622 395.448 496.854>
LayerCount: 2
Fore
SplineSet
374 606 m 2,0,-1
 240 73 l 2,1,2
 236 59 236 59 236 50 c 128,-1,3
 236 41 236 41 241 37.5 c 128,-1,4
 246 34 246 34 261 33 c 0,5,6
 281 31 281 31 304 31 c 0,7,8
 317 31 317 31 322 30.5 c 128,-1,9
 327 30 327 30 330.5 27.5 c 128,-1,10
 334 25 334 25 334 19 c 0,11,12
 334 0 334 0 314 0 c 0,13,14
 299 0 299 0 247 1.5 c 128,-1,15
 195 3 195 3 180 3 c 0,16,17
 166 3 166 3 115 1.5 c 128,-1,18
 64 0 64 0 49 0 c 128,-1,19
 34 0 34 0 34 11 c 0,20,21
 34 25 34 25 40 28 c 128,-1,22
 46 31 46 31 66 31 c 0,23,24
 122 31 122 31 136 39.5 c 128,-1,25
 150 48 150 48 157 78 c 2,26,-1
 292 617 l 2,27,28
 294 626 294 626 294 633 c 0,29,30
 294 646 294 646 278.5 649 c 128,-1,31
 263 652 263 652 225 652 c 0,32,33
 208 652 208 652 202.5 653.5 c 128,-1,34
 197 655 197 655 197 663 c 0,35,36
 197 683 197 683 217 683 c 0,37,38
 232 683 232 683 283.5 681.5 c 128,-1,39
 335 680 335 680 350 680 c 0,40,41
 364 680 364 680 416 681.5 c 128,-1,42
 468 683 468 683 482 683 c 0,43,44
 497 683 497 683 497 671 c 0,45,46
 497 658 497 658 491 655 c 128,-1,47
 485 652 485 652 465 652 c 0,48,49
 409 652 409 652 395 643.5 c 128,-1,50
 381 635 381 635 374 606 c 2,0,-1
EndSplineSet
EndChar

StartChar: J
Encoding: 74 74 9
Width: 554
Flags: W
HStem: -22 22<151.061 243.216> 61 106<105.418 164.914> 652 31<340.33 456.809 549.849 632.854>
VStem: 71 111<78.3281 148.263>
LayerCount: 2
Fore
SplineSet
541 610 m 2,0,-1
 424 143 l 2,1,2
 406 71 406 71 340.5 24.5 c 128,-1,3
 275 -22 275 -22 203 -22 c 0,4,5
 144 -22 144 -22 107.5 9 c 128,-1,6
 71 40 71 40 71 87 c 0,7,8
 71 131 71 131 93.5 149 c 128,-1,9
 116 167 116 167 138 167 c 0,10,11
 154 167 154 167 168 157 c 128,-1,12
 182 147 182 147 182 125 c 0,13,14
 182 101 182 101 163.5 81 c 128,-1,15
 145 61 145 61 117 61 c 0,16,17
 108 61 108 61 105 62 c 1,18,19
 116 28 116 28 144 14 c 128,-1,20
 172 0 172 0 200 0 c 0,21,22
 242 0 242 0 284.5 40.5 c 128,-1,23
 327 81 327 81 344 150 c 2,24,-1
 459 609 l 2,25,26
 463 625 463 625 463 630 c 0,27,28
 463 640 463 640 457 644 c 128,-1,29
 451 648 451 648 432 650 c 0,30,31
 407 652 407 652 374 652 c 0,32,33
 352 652 352 652 346 653.5 c 128,-1,34
 340 655 340 655 340 663 c 0,35,36
 340 683 340 683 361 683 c 0,37,38
 378 683 378 683 435 681.5 c 128,-1,39
 492 680 492 680 508 680 c 0,40,41
 520 680 520 680 563 681.5 c 128,-1,42
 606 683 606 683 619 683 c 0,43,44
 633 683 633 683 633 671 c 0,45,46
 633 658 633 658 627 655 c 128,-1,47
 621 652 621 652 606 652 c 0,48,49
 579 652 579 652 566 647.5 c 128,-1,50
 553 643 553 643 549.5 636 c 128,-1,51
 546 629 546 629 541 610 c 2,0,-1
EndSplineSet
EndChar

StartChar: K
Encoding: 75 75 10
Width: 849
Flags: W
HStem: 0 31<38.1465 135.068 236.179 328.688 488.277 557.417 675.926 739.688> 652.5 30.5<204.61 294.565 394.416 491.781 677.376 718.721 811.054 888.675>
LayerCount: 2
Fore
SplineSet
509 404 m 2,0,-1
 651 76 l 2,1,2
 662 50 662 50 675.5 41 c 128,-1,3
 689 32 689 32 720 31 c 0,4,5
 740 31 740 31 740 20 c 0,6,7
 740 0 740 0 722 0 c 0,8,9
 711 0 711 0 673 1.5 c 128,-1,10
 635 3 635 3 624 3 c 0,11,12
 604 3 604 3 563 1.5 c 128,-1,13
 522 0 522 0 502 0 c 0,14,15
 488 0 488 0 488 11 c 0,16,17
 488 20 488 20 491.5 25 c 128,-1,18
 495 30 495 30 499 30.5 c 128,-1,19
 503 31 503 31 510 31 c 0,20,21
 562 31 562 31 562 62 c 0,22,23
 562 70 562 70 550 97 c 2,24,-1
 434 366 l 1,25,-1
 285 250 l 1,26,27
 256 132 256 132 245 93 c 0,28,29
 244 88 244 88 241.5 77.5 c 128,-1,30
 239 67 239 67 237.5 59.5 c 128,-1,31
 236 52 236 52 236 49 c 0,32,33
 236 37 236 37 251 34 c 128,-1,34
 266 31 266 31 301 31 c 0,35,36
 318 31 318 31 323.5 29.5 c 128,-1,37
 329 28 329 28 329 20 c 0,38,39
 329 0 329 0 309 0 c 0,40,41
 299 0 299 0 277 1 c 128,-1,42
 255 2 255 2 244 2 c 0,43,44
 234 2 234 2 212 2.5 c 128,-1,45
 190 3 190 3 180 3 c 0,46,47
 166 3 166 3 116.5 1.5 c 128,-1,48
 67 0 67 0 53 0 c 0,49,50
 38 0 38 0 38 12 c 0,51,52
 38 25 38 25 44 28 c 128,-1,53
 50 31 50 31 66 31 c 0,54,55
 122 31 122 31 135.5 39 c 128,-1,56
 149 47 149 47 157 78 c 2,57,-1
 291 615 l 2,58,59
 295 631 295 631 295 634 c 0,60,61
 295 647 295 647 273 650 c 1,62,63
 249 652 249 652 230 652 c 0,64,65
 218 652 218 652 213 652.5 c 128,-1,66
 208 653 208 653 204.5 655.5 c 128,-1,67
 201 658 201 658 201 664 c 0,68,69
 201 683 201 683 221 683 c 0,70,71
 236 683 236 683 286 681.5 c 128,-1,72
 336 680 336 680 350 680 c 128,-1,73
 364 680 364 680 414 681.5 c 128,-1,74
 464 683 464 683 478 683 c 128,-1,75
 492 683 492 683 492 672 c 0,76,77
 492 658 492 658 485.5 655 c 128,-1,78
 479 652 479 652 458 652 c 0,79,80
 407 652 407 652 394 644 c 128,-1,81
 381 636 381 636 374 606 c 2,82,-1
 294 285 l 1,83,-1
 684 585 l 1,84,85
 720 615 720 615 720 631 c 0,86,87
 720 649 720 649 689 652 c 0,88,89
 677 654 677 654 677 663 c 0,90,91
 677 683 677 683 696 683 c 0,92,93
 714 683 714 683 751.5 681.5 c 128,-1,94
 789 680 789 680 807 680 c 0,95,96
 819 680 819 680 843 681.5 c 128,-1,97
 867 683 867 683 878 683 c 128,-1,98
 889 683 889 683 889 672 c 0,99,100
 889 654 889 654 871 652 c 0,101,102
 850 650 850 650 835.5 646.5 c 128,-1,103
 821 643 821 643 786 625.5 c 128,-1,104
 751 608 751 608 708 576 c 2,105,-1
 533 441 l 1,106,107
 504 420 504 420 504 418 c 0,108,109
 504 417 504 417 505 414 c 128,-1,110
 506 411 506 411 507.5 408 c 128,-1,111
 509 405 509 405 509 404 c 2,0,-1
EndSplineSet
EndChar

StartChar: L
Encoding: 76 76 11
Width: 680
Flags: W
HStem: 0 31<39.2109 135.068 234.003 457.377> 652 31<202.297 294.833 398.028 517.809>
VStem: 614 29<206 257.366>
LayerCount: 2
Fore
SplineSet
374 605 m 2,0,-1
 239 65 l 2,1,2
 234 47 234 47 234 42 c 0,3,4
 234 33 234 33 247 32 c 0,5,6
 253 31 253 31 269 31 c 2,7,-1
 363 31 l 2,8,9
 413 31 413 31 452.5 44.5 c 128,-1,10
 492 58 492 58 516 76 c 128,-1,11
 540 94 540 94 561 126 c 128,-1,12
 582 158 582 158 591 179 c 128,-1,13
 600 200 600 200 614 237 c 1,14,15
 622.31 255.995 622.31 255.995 626.631 257.414 c 0,16,17
 628.414 258 628.414 258 631 258 c 0,18,19
 643 258 643 258 643 247 c 0,20,21
 643 244 643 244 639 233 c 2,22,-1
 560 17 l 2,23,24
 556 4 556 4 551.5 2 c 128,-1,25
 547 0 547 0 529 0 c 2,26,-1
 66 0 l 2,27,28
 50 0 50 0 44.5 1.5 c 128,-1,29
 39 3 39 3 39 11 c 0,30,31
 39 25 39 25 45 28 c 128,-1,32
 51 31 51 31 66 31 c 0,33,34
 122 31 122 31 135.5 39 c 128,-1,35
 149 47 149 47 157 78 c 2,36,-1
 291 615 l 2,37,38
 295 631 295 631 295 634 c 0,39,40
 295 640 295 640 291.5 643.5 c 128,-1,41
 288 647 288 647 283.5 648 c 128,-1,42
 279 649 279 649 268 650 c 0,43,44
 251 652 251 652 230 652 c 0,45,46
 214 652 214 652 208 653.5 c 128,-1,47
 202 655 202 655 202 663 c 0,48,49
 202 683 202 683 221 683 c 0,50,51
 236 683 236 683 287.5 681.5 c 128,-1,52
 339 680 339 680 354 680 c 0,53,54
 370 680 370 680 428 681.5 c 128,-1,55
 486 683 486 683 502 683 c 128,-1,56
 518 683 518 683 518 671 c 0,57,58
 518 658 518 658 511 655 c 128,-1,59
 504 652 504 652 480 652 c 0,60,61
 414 652 414 652 397.5 643.5 c 128,-1,62
 381 635 381 635 374 605 c 2,0,-1
EndSplineSet
EndChar

StartChar: M
Encoding: 77 77 12
Width: 970
Flags: W
HStem: 0 31<42.2188 129.319 203.103 276.719 598.146 695.068 788.179 880.698> 643 40<331 332 931.24 1037.81> 652 31<208.61 298.737 946.416 1043.76>
LayerCount: 2
Fore
SplineSet
926 606 m 2,0,-1
 793 73 l 2,1,2
 788 55 788 55 788 49 c 0,3,4
 788 37 788 37 803 34 c 128,-1,5
 818 31 818 31 853 31 c 0,6,7
 870 31 870 31 875.5 29.5 c 128,-1,8
 881 28 881 28 881 20 c 0,9,10
 881 0 881 0 862 0 c 0,11,12
 842 0 842 0 800 1.5 c 128,-1,13
 758 3 758 3 737 3 c 0,14,15
 723 3 723 3 675 1.5 c 128,-1,16
 627 0 627 0 613 0 c 0,17,18
 598 0 598 0 598 12 c 0,19,20
 598 25 598 25 604 28 c 128,-1,21
 610 31 610 31 626 31 c 0,22,23
 682 31 682 31 695.5 39 c 128,-1,24
 709 47 709 47 717 78 c 2,25,-1
 860 651 l 1,26,-1
 859 651 l 1,27,-1
 455 18 l 1,28,29
 442 0 442 0 433 0 c 0,30,31
 422 0 422 0 418 23 c 2,32,-1
 332 643 l 1,33,-1
 331 643 l 1,34,-1
 195 98 l 2,35,36
 191 83 191 83 191 75 c 0,37,38
 191 32 191 32 259 31 c 0,39,40
 277 31 277 31 277 20 c 0,41,42
 277 0 277 0 259 0 c 0,43,44
 243 0 243 0 208 1.5 c 128,-1,45
 173 3 173 3 156 3 c 128,-1,46
 139 3 139 3 105.5 1.5 c 128,-1,47
 72 0 72 0 56 0 c 0,48,49
 42 0 42 0 42 12 c 0,50,51
 42 31 42 31 60 31 c 0,52,53
 115 33 115 33 137 51.5 c 128,-1,54
 159 70 159 70 168 106 c 2,55,-1
 295 615 l 2,56,57
 299 631 299 631 299 634 c 0,58,59
 299 647 299 647 277 650 c 1,60,61
 253 652 253 652 234 652 c 0,62,63
 222 652 222 652 217 652.5 c 128,-1,64
 212 653 212 653 208.5 655.5 c 128,-1,65
 205 658 205 658 205 664 c 0,66,67
 205 677 205 677 211.5 680 c 128,-1,68
 218 683 218 683 235 683 c 2,69,-1
 372 683 l 2,70,71
 392 683 392 683 396.5 680 c 128,-1,72
 401 677 401 677 403 660 c 2,73,-1
 481 94 l 1,74,-1
 846 664 l 2,75,76
 855 678 855 678 860 680.5 c 128,-1,77
 865 683 865 683 885 683 c 2,78,-1
 1017 683 l 2,79,80
 1044 683 1044 683 1044 672 c 0,81,82
 1044 658 1044 658 1038 655 c 128,-1,83
 1032 652 1032 652 1012 652 c 0,84,85
 959 652 959 652 946 644 c 128,-1,86
 933 636 933 636 926 606 c 2,0,-1
EndSplineSet
EndChar

StartChar: N
Encoding: 78 78 13
Width: 803
Flags: W
HStem: 0 31<39.2656 125.319 199.633 272.688> 652 31<202.211 295.906 647.281 720.897 794.681 880.734>
LayerCount: 2
Fore
SplineSet
756 578 m 2,0,-1
 616 21 l 2,1,2
 612 6 612 6 610 3 c 128,-1,3
 608 0 608 0 600 0 c 0,4,5
 593 0 593 0 589.5 3.5 c 128,-1,6
 586 7 586 7 581 19 c 2,7,-1
 332 608 l 1,8,-1
 323 626 l 1,9,-1
 191 98 l 2,10,11
 187 83 187 83 187 75 c 0,12,13
 187 33 187 33 253 31 c 0,14,15
 273 31 273 31 273 20 c 0,16,17
 273 0 273 0 255 0 c 0,18,19
 239 0 239 0 204 1.5 c 128,-1,20
 169 3 169 3 152 3 c 128,-1,21
 135 3 135 3 101.5 1.5 c 128,-1,22
 68 0 68 0 52 0 c 0,23,24
 39 0 39 0 39 11 c 0,25,26
 39 31 39 31 56 31 c 0,27,28
 111 33 111 33 133 51.5 c 128,-1,29
 155 70 155 70 164 106 c 2,30,-1
 298 643 l 1,31,32
 298 652 298 652 230 652 c 0,33,34
 214 652 214 652 208 653.5 c 128,-1,35
 202 655 202 655 202 663 c 0,36,37
 202 677 202 677 208 680 c 128,-1,38
 214 683 214 683 231 683 c 2,39,-1
 365 683 l 2,40,41
 382 683 382 683 386.5 680.5 c 128,-1,42
 391 678 391 678 397 664 c 2,43,-1
 618 142 l 1,44,-1
 730 587 l 2,45,46
 733 596 733 596 733 608 c 0,47,48
 733 651 733 651 665 652 c 0,49,50
 647 652 647 652 647 663 c 0,51,52
 647 683 647 683 665 683 c 0,53,54
 681 683 681 683 715.5 681.5 c 128,-1,55
 750 680 750 680 767 680 c 128,-1,56
 784 680 784 680 818 681.5 c 128,-1,57
 852 683 852 683 868 683 c 0,58,59
 881 683 881 683 881 672 c 0,60,61
 881 652 881 652 864 652 c 0,62,63
 809 650 809 650 787 631.5 c 128,-1,64
 765 613 765 613 756 578 c 2,0,-1
EndSplineSet
EndChar

StartChar: O
Encoding: 79 79 14
Width: 762
Flags: W
HStem: -22 26<247.794 381.573> 680 25<410.205 541.999>
VStem: 49 93<126.536 364.652> 651 89<334.323 553.147>
LayerCount: 2
Fore
SplineSet
740 436 m 0,0,1
 740 349 740 349 701.5 264 c 128,-1,2
 663 179 663 179 602 117 c 128,-1,3
 541 55 541 55 462 16.5 c 128,-1,4
 383 -22 383 -22 305 -22 c 0,5,6
 194 -22 194 -22 121.5 50.5 c 128,-1,7
 49 123 49 123 49 245 c 0,8,9
 49 330 49 330 87 414.5 c 128,-1,10
 125 499 125 499 185.5 562.5 c 128,-1,11
 246 626 246 626 326 665.5 c 128,-1,12
 406 705 406 705 485 705 c 0,13,14
 597 705 597 705 668.5 630.5 c 128,-1,15
 740 556 740 556 740 436 c 0,0,1
311 4 m 0,16,17
 370 4 370 4 427.5 39 c 128,-1,18
 485 74 485 74 525 124 c 0,19,20
 591 206 591 206 621 305 c 128,-1,21
 651 404 651 404 651 475 c 0,22,23
 651 578 651 578 600 629 c 128,-1,24
 549 680 549 680 479 680 c 0,25,26
 417 680 417 680 350 639.5 c 128,-1,27
 283 599 283 599 233 524 c 0,28,29
 183 448 183 448 162.5 359.5 c 128,-1,30
 142 271 142 271 142 217 c 0,31,32
 142 119 142 119 189 61.5 c 128,-1,33
 236 4 236 4 311 4 c 0,16,17
EndSplineSet
EndChar

StartChar: P
Encoding: 80 80 15
Width: 642
Flags: W
HStem: 0 31<40.1465 137.068 238.179 330.688> 316 26<307 531.585> 652 31<206.61 296.737 389.74 610.498>
VStem: 661 93<454.371 604.397>
LayerCount: 2
Fore
SplineSet
303 316 m 1,0,-1
 241 66 l 2,1,2
 241 65 241 65 239.5 59 c 128,-1,3
 238 53 238 53 238 49 c 0,4,5
 238 37 238 37 253 34 c 128,-1,6
 268 31 268 31 303 31 c 0,7,8
 320 31 320 31 325.5 29.5 c 128,-1,9
 331 28 331 28 331 20 c 0,10,11
 331 0 331 0 311 0 c 0,12,13
 301 0 301 0 279 1 c 128,-1,14
 257 2 257 2 246 2 c 0,15,16
 236 2 236 2 214 2.5 c 128,-1,17
 192 3 192 3 182 3 c 0,18,19
 168 3 168 3 118.5 1.5 c 128,-1,20
 69 0 69 0 55 0 c 0,21,22
 40 0 40 0 40 12 c 0,23,24
 40 25 40 25 46 28 c 128,-1,25
 52 31 52 31 68 31 c 0,26,27
 124 31 124 31 137.5 39 c 128,-1,28
 151 47 151 47 159 78 c 2,29,-1
 293 615 l 2,30,31
 297 631 297 631 297 634 c 0,32,33
 297 647 297 647 275 650 c 1,34,35
 251 652 251 652 232 652 c 0,36,37
 220 652 220 652 215 652.5 c 128,-1,38
 210 653 210 653 206.5 655.5 c 128,-1,39
 203 658 203 658 203 664 c 0,40,41
 203 677 203 677 209.5 680 c 128,-1,42
 216 683 216 683 233 683 c 2,43,-1
 557 683 l 2,44,45
 650 683 650 683 702 638.5 c 128,-1,46
 754 594 754 594 754 532 c 0,47,48
 754 448 754 448 667 382 c 128,-1,49
 580 316 580 316 473 316 c 2,50,-1
 303 316 l 1,0,-1
375 614 m 2,51,-1
 307 342 l 1,52,-1
 448 342 l 2,53,54
 543 342 543 342 602 395 c 0,55,56
 629 420 629 420 645 470.5 c 128,-1,57
 661 521 661 521 661 556 c 0,58,59
 661 652 661 652 525 652 c 2,60,-1
 429 652 l 2,61,62
 397 652 397 652 389.5 646.5 c 128,-1,63
 382 641 382 641 375 614 c 2,51,-1
EndSplineSet
EndChar

StartChar: Q
Encoding: 81 81 16
Width: 790
Flags: W
HStem: -194 97<461.752 548.851> -22 25<276.479 380.237> 126 22<307.181 382.693> 680 25<411.126 542.235>
VStem: 49 88<126.043 353.824> 243 22<14.3334 83.1733> 399 250<-84 0> 652 88<326.298 553.48>
LayerCount: 2
Fore
SplineSet
438 6 m 1,0,1
 446 -52 446 -52 460.5 -74.5 c 128,-1,2
 475 -97 475 -97 509 -97 c 0,3,4
 541 -97 541 -97 575.5 -73 c 128,-1,5
 610 -49 610 -49 626 -1 c 0,6,7
 630 10 630 10 638 10 c 0,8,9
 649 10 649 10 649 0 c 0,10,11
 649 -7 649 -7 639 -35.5 c 128,-1,12
 629 -64 629 -64 610.5 -101 c 128,-1,13
 592 -138 592 -138 557.5 -166 c 128,-1,14
 523 -194 523 -194 482 -194 c 0,15,16
 399 -194 399 -194 399 -84 c 0,17,18
 399 -69 399 -69 403 -7 c 1,19,20
 350 -22 350 -22 305 -22 c 0,21,22
 194 -22 194 -22 121.5 50.5 c 128,-1,23
 49 123 49 123 49 245 c 0,24,25
 49 330 49 330 87 414.5 c 128,-1,26
 125 499 125 499 185.5 562.5 c 128,-1,27
 246 626 246 626 326 665.5 c 128,-1,28
 406 705 406 705 485 705 c 0,29,30
 597 705 597 705 668.5 630.5 c 128,-1,31
 740 556 740 556 740 436 c 0,32,33
 740 297 740 297 650 174.5 c 128,-1,34
 560 52 560 52 438 6 c 1,0,1
249 14 m 1,35,-1
 248.5 15.5 l 2,36,37
 248 17 248 17 247 20 c 128,-1,38
 246 23 246 23 245 26.5 c 128,-1,39
 244 30 244 30 243.5 35 c 128,-1,40
 243 40 243 40 243 46 c 0,41,42
 243 85 243 85 274 116.5 c 128,-1,43
 305 148 305 148 345 148 c 0,44,45
 371 148 371 148 388.5 137 c 128,-1,46
 406 126 406 126 415 105.5 c 128,-1,47
 424 85 424 85 427 72.5 c 128,-1,48
 430 60 430 60 433 40 c 1,49,50
 492 73 492 73 537.5 131.5 c 128,-1,51
 583 190 583 190 606.5 253 c 128,-1,52
 630 316 630 316 641 371 c 128,-1,53
 652 426 652 426 652 468 c 0,54,55
 652 566 652 566 604 623 c 128,-1,56
 556 680 556 680 479 680 c 0,57,58
 421 680 421 680 356 642.5 c 128,-1,59
 291 605 291 605 239 532 c 0,60,61
 188 459 188 459 162.5 368 c 128,-1,62
 137 277 137 277 137 213 c 0,63,64
 137 142 137 142 165 89 c 128,-1,65
 193 36 193 36 249 14 c 1,35,-1
311 3 m 0,66,67
 352 3 352 3 395 21 c 0,68,69
 403 24 403 24 404.5 27 c 128,-1,70
 406 30 406 30 406 41 c 0,71,72
 406 86 406 86 391.5 106 c 128,-1,73
 377 126 377 126 345 126 c 0,74,75
 314 126 314 126 289.5 101 c 128,-1,76
 265 76 265 76 265 46 c 0,77,78
 265 3 265 3 311 3 c 0,66,67
EndSplineSet
EndChar

StartChar: R
Encoding: 82 82 17
Width: 759
Flags: W
HStem: -22 22<610.219 672.547> 0 31<41.1934 137.068 235.179 327.684> 331 22<310 483.235> 652 31<204.211 296.833 385.158 588.156>
VStem: 502 97<20.0408 194.452> 532 81<138.138 289.84> 646 93<459.941 602.287> 730 25<61.8584 104.986>
LayerCount: 2
Fore
SplineSet
375 614 m 2,0,-1
 310 353 l 1,1,-1
 422 353 l 2,2,3
 533 353 533 353 591 411 c 0,4,5
 618 438 618 438 632 480 c 128,-1,6
 646 522 646 522 646 553 c 0,7,8
 646 577 646 577 638 594.5 c 128,-1,9
 630 612 630 612 613.5 622.5 c 128,-1,10
 597 633 597 633 582 639.5 c 128,-1,11
 567 646 567 646 542 648.5 c 128,-1,12
 517 651 517 651 503 651.5 c 128,-1,13
 489 652 489 652 464 652 c 0,14,15
 412 652 412 652 403 651 c 0,16,17
 390 649 390 649 385 641.5 c 128,-1,18
 380 634 380 634 375 614 c 2,0,-1
519 340 m 1,19,20
 613 305 613 305 613 222 c 0,21,22
 613 203 613 203 609 175 c 0,23,24
 599 95 599 95 599 61 c 0,25,26
 599 29 599 29 607.5 14.5 c 128,-1,27
 616 0 616 0 639 0 c 128,-1,28
 662 0 662 0 687.5 21 c 128,-1,29
 713 42 713 42 730 91 c 0,30,31
 734 105 734 105 743 105 c 0,32,33
 755 105 755 105 755 93 c 0,34,35
 755 69 755 69 722 23.5 c 128,-1,36
 689 -22 689 -22 635 -22 c 0,37,38
 626 -22 626 -22 616 -21.5 c 128,-1,39
 606 -21 606 -21 583.5 -15 c 128,-1,40
 561 -9 561 -9 544.5 1 c 128,-1,41
 528 11 528 11 515 33.5 c 128,-1,42
 502 56 502 56 502 86 c 0,43,44
 502 107 502 107 518 171 c 0,45,46
 532 225 532 225 532 240 c 0,47,48
 532 275 532 275 508 303 c 128,-1,49
 484 331 484 331 423 331 c 2,50,-1
 304 331 l 1,51,-1
 238 66 l 2,52,53
 238 65 238 65 236.5 59 c 128,-1,54
 235 53 235 53 235 49 c 0,55,56
 235 37 235 37 250 34 c 128,-1,57
 265 31 265 31 300 31 c 0,58,59
 316 31 316 31 322 29.5 c 128,-1,60
 328 28 328 28 328 20 c 0,61,62
 328 11 328 11 324 6 c 128,-1,63
 320 1 320 1 317 0.5 c 128,-1,64
 314 0 314 0 308 0 c 0,65,66
 294 0 294 0 244.5 1.5 c 128,-1,67
 195 3 195 3 181 3 c 128,-1,68
 167 3 167 3 118 1.5 c 128,-1,69
 69 0 69 0 55 0 c 128,-1,70
 41 0 41 0 41 11 c 0,71,72
 41 25 41 25 46.5 28 c 128,-1,73
 52 31 52 31 68 31 c 0,74,75
 124 31 124 31 137.5 39 c 128,-1,76
 151 47 151 47 159 78 c 2,77,-1
 293 615 l 2,78,79
 297 631 297 631 297 634 c 0,80,81
 297 640 297 640 293.5 643.5 c 128,-1,82
 290 647 290 647 285.5 648 c 128,-1,83
 281 649 281 649 270 650 c 0,84,85
 253 652 253 652 232 652 c 0,86,87
 216 652 216 652 210 653.5 c 128,-1,88
 204 655 204 655 204 663 c 0,89,90
 204 677 204 677 210 680 c 128,-1,91
 216 683 216 683 233 683 c 2,92,-1
 518 683 l 2,93,94
 615 683 615 683 677 640.5 c 128,-1,95
 739 598 739 598 739 533 c 0,96,97
 739 463 739 463 672 411 c 128,-1,98
 605 359 605 359 519 340 c 1,19,20
EndSplineSet
EndChar

StartChar: S
Encoding: 83 83 18
Width: 613
Flags: W
HStem: -22 31<214.353 370.615> 456 21G<570 579.5> 677 28<356.444 493.901>
VStem: 178 71<448.304 561> 481 72<138.425 263.384> 564 21.5<456.039 496.531>
LayerCount: 2
Fore
SplineSet
645 695 m 1,0,-1
 591 476 l 2,1,2
 588 463 588 463 585.5 459.5 c 128,-1,3
 583 456 583 456 576 456 c 0,4,5
 564 456 564 456 564 466 c 0,6,7
 564 468 564 468 565 475.5 c 128,-1,8
 566 483 566 483 567 495.5 c 128,-1,9
 568 508 568 508 568 522 c 0,10,11
 568 602 568 602 529 639.5 c 128,-1,12
 490 677 490 677 424 677 c 0,13,14
 354 677 354 677 301.5 625 c 128,-1,15
 249 573 249 573 249 511 c 0,16,17
 249 475 249 475 267.5 451.5 c 128,-1,18
 286 428 286 428 310 420 c 0,19,20
 315 419 315 419 377 402 c 1,21,22
 447 384 447 384 467 376.5 c 128,-1,23
 487 369 487 369 504 352 c 0,24,25
 553 306 553 306 553 235 c 0,26,27
 553 140 553 140 476 59 c 128,-1,28
 399 -22 399 -22 299 -22 c 0,29,30
 183 -22 183 -22 130 50 c 1,31,-1
 81 -7 l 2,32,33
 68 -22 68 -22 63 -22 c 0,34,35
 52 -22 52 -22 52 -12 c 0,36,37
 52 -9 52 -9 80.5 105.5 c 128,-1,38
 109 220 109 220 112 223 c 0,39,40
 116 227 116 227 122 227 c 0,41,42
 134 227 134 227 134 216 c 0,43,44
 134 215 134 215 133 213 c 128,-1,45
 132 211 132 211 132 209 c 0,46,47
 126 173 126 173 126 155 c 0,48,49
 126 120 126 120 138.5 92.5 c 128,-1,50
 151 65 151 65 169 50 c 128,-1,51
 187 35 187 35 212 25 c 128,-1,52
 237 15 237 15 258 12 c 128,-1,53
 279 9 279 9 301 9 c 0,54,55
 373 9 373 9 427 66.5 c 128,-1,56
 481 124 481 124 481 193 c 0,57,58
 481 222 481 222 472.5 242.5 c 128,-1,59
 464 263 464 263 448 274 c 128,-1,60
 432 285 432 285 420 289.5 c 128,-1,61
 408 294 408 294 389 299 c 2,62,-1
 282 327 l 1,63,64
 239 340 239 340 208.5 376.5 c 128,-1,65
 178 413 178 413 178 469 c 0,66,67
 178 560 178 560 254 632.5 c 128,-1,68
 330 705 330 705 425 705 c 0,69,70
 528 705 528 705 568 633 c 1,71,-1
 616 690 l 2,72,73
 629 705 629 705 634 705 c 0,74,75
 645 705 645 705 645 695 c 1,0,-1
EndSplineSet
EndChar

StartChar: T
Encoding: 84 84 19
Width: 584
Flags: W
HStem: 2 29<49.2285 194.492 297.223 424.807> 452 21G<30 37.4389 654 666> 646 31<156.409 346.967 434.219 631.292>
VStem: 24 29<452.638 503.895> 648 27<452.14 520.111> 659 45<542.481 671.5>
LayerCount: 2
Fore
SplineSet
427 607 m 2,0,-1
 294 76 l 2,1,2
 290 61 290 61 290 55 c 0,3,4
 290 43 290 43 297 39 c 128,-1,5
 304 35 304 35 327 33 c 0,6,7
 353 31 353 31 391 31 c 0,8,9
 412 31 412 31 418.5 29.5 c 128,-1,10
 425 28 425 28 425 20 c 0,11,12
 425 0 425 0 403 0 c 0,13,14
 389 0 389 0 360 1 c 128,-1,15
 331 2 331 2 316 2 c 0,16,17
 303 2 303 2 275 2.5 c 128,-1,18
 247 3 247 3 233 3 c 128,-1,19
 219 3 219 3 190.5 2.5 c 128,-1,20
 162 2 162 2 148 2 c 128,-1,21
 134 2 134 2 107 1 c 128,-1,22
 80 0 80 0 66 0 c 0,23,24
 49 0 49 0 49 12 c 0,25,26
 49 26 49 26 55.5 28.5 c 128,-1,27
 62 31 62 31 91 31 c 0,28,29
 144 31 144 31 168 36 c 128,-1,30
 192 41 192 41 198.5 49 c 128,-1,31
 205 57 205 57 210 79 c 2,32,-1
 344 613 l 2,33,34
 348 625 348 625 348 634 c 0,35,36
 348 639 348 639 347 641 c 128,-1,37
 346 643 346 643 339.5 644.5 c 128,-1,38
 333 646 333 646 320 646 c 2,39,-1
 281 646 l 2,40,41
 169 646 169 646 131 617.5 c 128,-1,42
 93 589 93 589 53 473 c 0,43,44
 45.9163 454.11 45.9163 454.11 40.8314 452.586 c 0,45,46
 38.8779 452 38.8779 452 36 452 c 0,47,48
 24 452 24 452 24 463 c 0,49,50
 24 469 24 469 30 481 c 1,51,-1
 90 657 l 2,52,53
 95 671 95 671 99.5 674 c 128,-1,54
 104 677 104 677 122 677 c 2,55,-1
 677 677 l 2,56,57
 704 677 704 677 704 666 c 0,58,59
 704 657 704 657 702 649 c 2,60,-1
 675 475 l 2,61,62
 672 452 672 452 660 452 c 128,-1,63
 648 452 648 452 648 465 c 0,64,65
 648 472 648 472 651 484 c 1,66,67
 659 536 659 536 659 564 c 0,68,69
 659 618 659 618 628.5 632 c 128,-1,70
 598 646 598 646 513 646 c 0,71,72
 459 646 459 646 450 644 c 128,-1,73
 441 642 441 642 436.5 635 c 128,-1,74
 432 628 432 628 427 607 c 2,0,-1
EndSplineSet
EndChar

StartChar: U
Encoding: 85 85 20
Width: 682
Flags: W
HStem: -22 31<204.574 343.058> 652 31<81.2769 173.833 273.416 370.771 523.281 596.897 673.681 759.734>
VStem: 67 78<75.6821 260.231>
LayerCount: 2
Fore
SplineSet
635 578 m 2,0,-1
 546 223 l 2,1,2
 521 123 521 123 438.5 50.5 c 128,-1,3
 356 -22 356 -22 263 -22 c 0,4,5
 181 -22 181 -22 124 30 c 128,-1,6
 67 82 67 82 67 170 c 0,7,8
 67 200 67 200 74 228 c 0,9,10
 76 238 76 238 103 347 c 128,-1,11
 130 456 130 456 135 475 c 2,12,-1
 157 563 l 2,13,14
 174 628 174 628 174 634 c 128,-1,15
 174 640 174 640 170.5 643.5 c 128,-1,16
 167 647 167 647 162.5 648 c 128,-1,17
 158 649 158 649 147 650 c 0,18,19
 130 652 130 652 109 652 c 0,20,21
 92 652 92 652 86.5 653.5 c 128,-1,22
 81 655 81 655 81 663 c 0,23,24
 81 672 81 672 84.5 677 c 128,-1,25
 88 682 88 682 91 682.5 c 128,-1,26
 94 683 94 683 100 683 c 0,27,28
 114 683 114 683 164 681.5 c 128,-1,29
 214 680 214 680 229 680 c 0,30,31
 243 680 243 680 293 681.5 c 128,-1,32
 343 683 343 683 357 683 c 128,-1,33
 371 683 371 683 371 672 c 0,34,35
 371 658 371 658 364.5 655 c 128,-1,36
 358 652 358 652 337 652 c 0,37,38
 286 652 286 652 273 644 c 128,-1,39
 260 636 260 636 253 606 c 2,40,-1
 156 217 l 2,41,42
 145 173 145 173 145 139 c 0,43,44
 145 77 145 77 179.5 43 c 128,-1,45
 214 9 214 9 267 9 c 0,46,47
 345 9 345 9 418 71 c 128,-1,48
 491 133 491 133 516 230 c 2,49,-1
 606 587 l 2,50,51
 609 596 609 596 609 608 c 0,52,53
 609 651 609 651 541 652 c 0,54,55
 523 652 523 652 523 663 c 0,56,57
 523 683 523 683 541 683 c 0,58,59
 557 683 557 683 592.5 681.5 c 128,-1,60
 628 680 628 680 645 680 c 128,-1,61
 662 680 662 680 696.5 681.5 c 128,-1,62
 731 683 731 683 747 683 c 0,63,64
 760 683 760 683 760 672 c 0,65,66
 760 652 760 652 743 652 c 0,67,68
 688 650 688 650 666 631.5 c 128,-1,69
 644 613 644 613 635 578 c 2,0,-1
EndSplineSet
EndChar

StartChar: V
Encoding: 86 86 21
Width: 583
Flags: W
HStem: -22 21G<235 248.5> 652.5 30.5<59.6095 136.419 234.738 321.723 556.25 611.531 693.125 768.844>
LayerCount: 2
Fore
SplineSet
628 569 m 2,0,-1
 268 -4 l 2,1,2
 257 -22 257 -22 240 -22 c 0,3,4
 230 -22 230 -22 226 -18 c 128,-1,5
 222 -14 222 -14 220 1 c 2,6,-1
 141 618 l 2,7,8
 139 633 139 633 136.5 638.5 c 128,-1,9
 134 644 134 644 121 648 c 128,-1,10
 108 652 108 652 81 652 c 0,11,12
 71 652 71 652 67 652.5 c 128,-1,13
 63 653 63 653 59.5 655.5 c 128,-1,14
 56 658 56 658 56 664 c 0,15,16
 56 683 56 683 75 683 c 0,17,18
 83 683 83 683 101.5 682 c 128,-1,19
 120 681 120 681 129 681 c 128,-1,20
 138 681 138 681 156.5 680.5 c 128,-1,21
 175 680 175 680 184 680 c 0,22,23
 205 680 205 680 246.5 681.5 c 128,-1,24
 288 683 288 683 308 683 c 0,25,26
 322 683 322 683 322 672 c 0,27,28
 322 663 322 663 318 658 c 128,-1,29
 314 653 314 653 310 652.5 c 128,-1,30
 306 652 306 652 297 652 c 0,31,32
 228 652 228 652 228 622 c 1,33,-1
 296 93 l 1,34,-1
 603 581 l 1,35,-1
 606.5 587.5 l 2,36,37
 610 594 610 594 614 603 c 128,-1,38
 618 612 618 612 618 619 c 0,39,40
 618 649 618 649 572 652 c 1,41,42
 556 652 556 652 556 664 c 0,43,44
 556 683 556 683 575 683 c 0,45,46
 591 683 591 683 624 681.5 c 128,-1,47
 657 680 657 680 674 680 c 0,48,49
 688 680 688 680 715.5 681.5 c 128,-1,50
 743 683 743 683 756 683 c 128,-1,51
 769 683 769 683 769 671 c 0,52,53
 769 653 769 653 756 652 c 0,54,55
 738 651 738 651 726.5 649 c 128,-1,56
 715 647 715 647 697.5 639.5 c 128,-1,57
 680 632 680 632 662.5 614.5 c 128,-1,58
 645 597 645 597 628 569 c 2,0,-1
EndSplineSet
EndChar

StartChar: W
Encoding: 87 87 22
Width: 944
Flags: W
HStem: -22 21G<189 195.498 560.5 571.5> 652.5 30.5<58.6095 129.42 226.875 314.672 426.376 491.198 599.107 686.821 836.234 900.263 975.75 1043.36>
LayerCount: 2
Fore
SplineSet
917 567 m 2,0,-1
 589 -3 l 2,1,2
 578 -22 578 -22 565 -22 c 0,3,4
 556 -22 556 -22 553.5 -17 c 128,-1,5
 551 -12 551 -12 549 4 c 2,6,-1
 512 509 l 1,7,-1
 218 -1 l 2,8,9
 206.686 -19.8563 206.686 -19.8563 199.319 -21.4861 c 0,10,11
 196.997 -22 196.997 -22 194 -22 c 0,12,13
 184 -22 184 -22 181.5 -16.5 c 128,-1,14
 179 -11 179 -11 178 4 c 2,15,-1
 133 615 l 2,16,17
 132 631 132 631 129.5 637.5 c 128,-1,18
 127 644 127 644 116 648 c 128,-1,19
 105 652 105 652 80 652 c 0,20,21
 70 652 70 652 66 652.5 c 128,-1,22
 62 653 62 653 58.5 655.5 c 128,-1,23
 55 658 55 658 55 664 c 0,24,25
 55 683 55 683 73 683 c 0,26,27
 90 683 90 683 125 681.5 c 128,-1,28
 160 680 160 680 178 680 c 0,29,30
 199 680 199 680 240 681.5 c 128,-1,31
 281 683 281 683 301 683 c 0,32,33
 315 683 315 683 315 672 c 0,34,35
 315 652 315 652 294 652 c 0,36,37
 259 652 259 652 241 644.5 c 128,-1,38
 223 637 223 637 220.5 631 c 128,-1,39
 218 625 218 625 218 616 c 2,40,-1
 256 109 l 1,41,-1
 509 550 l 1,42,-1
 503 627 l 2,43,44
 501 642 501 642 491.5 647 c 128,-1,45
 482 652 482 652 450 652 c 0,46,47
 426 652 426 652 426 663 c 0,48,49
 426 683 426 683 445 683 c 0,50,51
 456 683 456 683 497 681.5 c 128,-1,52
 538 680 538 680 550 680 c 0,53,54
 570 680 570 680 611 681.5 c 128,-1,55
 652 683 652 683 672 683 c 0,56,57
 687 683 687 683 687 672 c 0,58,59
 687 658 687 658 681 655 c 128,-1,60
 675 652 675 652 660 652 c 0,61,62
 634 652 634 652 618.5 647.5 c 128,-1,63
 603 643 603 643 597 635 c 128,-1,64
 591 627 591 627 590 621.5 c 128,-1,65
 589 616 589 616 590 605 c 2,66,-1
 627 109 l 1,67,-1
 897 580 l 2,68,69
 910 603 910 603 910 613 c 0,70,71
 910 650 910 650 851 652 c 0,72,73
 836 652 836 652 836 664 c 0,74,75
 836 683 836 683 855 683 c 0,76,77
 871 683 871 683 906.5 681.5 c 128,-1,78
 942 680 942 680 959 680 c 0,79,80
 972 680 972 680 998 681.5 c 128,-1,81
 1024 683 1024 683 1036 683 c 128,-1,82
 1048 683 1048 683 1048 672 c 0,83,84
 1048 659 1048 659 1043.5 656 c 128,-1,85
 1039 653 1039 653 1029 652 c 0,86,87
 986 649 986 649 963 628 c 128,-1,88
 940 607 940 607 917 567 c 2,0,-1
EndSplineSet
EndChar

StartChar: X
Encoding: 88 88 23
Width: 828
Flags: W
HStem: 0 31<32.158 116.625 216.727 263.707 459.179 526.732 651.384 729.773> 652 31<204.281 281.102 406.615 474.761 614.297 661.273 760.269 845.842>
LayerCount: 2
Fore
SplineSet
485 411 m 1,0,-1
 647 585 l 2,1,2
 666 606 666 606 666 621 c 0,3,4
 666 648 666 648 626 652 c 0,5,6
 614 654 614 654 614 663 c 0,7,8
 614 683 614 683 633 683 c 0,9,10
 651 683 651 683 688 681.5 c 128,-1,11
 725 680 725 680 744 680 c 0,12,13
 760 680 760 680 791.5 681.5 c 128,-1,14
 823 683 823 683 838 683 c 0,15,16
 851 683 851 683 851 672 c 0,17,18
 851 659 851 659 846 656 c 128,-1,19
 841 653 841 653 829 652 c 0,20,21
 759 649 759 649 702 601 c 0,22,23
 688 589 688 589 652.5 551 c 128,-1,24
 617 513 617 513 570.5 462.5 c 128,-1,25
 524 412 524 412 497 384 c 1,26,27
 503 368 503 368 626 75 c 0,28,29
 639 44 639 44 651 38 c 128,-1,30
 663 32 663 32 712 31 c 0,31,32
 730 31 730 31 730 19 c 0,33,34
 730 0 730 0 711 0 c 0,35,36
 698 0 698 0 655 1.5 c 128,-1,37
 612 3 612 3 600 3 c 0,38,39
 586 3 586 3 537 1.5 c 128,-1,40
 488 0 488 0 474 0 c 0,41,42
 459 0 459 0 459 12 c 0,43,44
 459 20 459 20 462 24 c 128,-1,45
 465 28 465 28 468.5 29 c 128,-1,46
 472 30 472 30 479 31 c 0,47,48
 497 33 497 33 511 38.5 c 128,-1,49
 525 44 525 44 531 50 c 128,-1,50
 537 56 537 56 537 60 c 1,51,-1
 532 74 l 1,52,-1
 431 313 l 1,53,-1
 341 215 l 1,54,-1
 239 107 l 2,55,56
 212 78 212 78 212 62 c 0,57,58
 212 35 212 35 252 31 c 1,59,60
 264 31 264 31 264 20 c 0,61,62
 264 0 264 0 246 0 c 128,-1,63
 228 0 228 0 190.5 1.5 c 128,-1,64
 153 3 153 3 134 3 c 0,65,66
 118 3 118 3 86.5 1.5 c 128,-1,67
 55 0 55 0 40 0 c 0,68,69
 27 0 27 0 27 11 c 0,70,71
 27 24 27 24 32 27 c 128,-1,72
 37 30 37 30 49 31 c 0,73,74
 134 36 134 36 196 103 c 1,75,-1
 209 114 l 1,76,-1
 420 341 l 1,77,-1
 302 620 l 2,78,79
 294 639 294 639 281.5 645.5 c 128,-1,80
 269 652 269 652 227 652 c 0,81,82
 204 652 204 652 204 663 c 0,83,84
 204 683 204 683 222 683 c 0,85,86
 234 683 234 683 278 681.5 c 128,-1,87
 322 680 322 680 334 680 c 0,88,89
 355 680 355 680 397.5 681.5 c 128,-1,90
 440 683 440 683 460 683 c 0,91,92
 475 683 475 683 475 671 c 0,93,94
 475 654 475 654 455 652 c 0,95,96
 436 650 436 650 421.5 644 c 128,-1,97
 407 638 407 638 401.5 632.5 c 128,-1,98
 396 627 396 627 396 623 c 1,99,100
 396 623.333 396 623.333 401 610 c 2,101,-1
 485 411 l 1,0,-1
EndSplineSet
EndChar

StartChar: Y
Encoding: 89 89 24
Width: 580
Flags: W
HStem: 0 31<92.1934 190.098 291.674 378.698> 652 31<35.2969 120.841 226.434 301.326 548.227 597.734 681.327 757.358>
LayerCount: 2
Fore
SplineSet
597 569 m 1,0,-1
 349 284 l 2,1,2
 341 275 341 275 335 253 c 2,3,-1
 300 112 l 2,4,5
 286 53 286 53 286 49 c 0,6,7
 286 40 286 40 291.5 37.5 c 128,-1,8
 297 35 297 35 313 33 c 0,9,10
 330 31 330 31 351 31 c 0,11,12
 368 31 368 31 373.5 29.5 c 128,-1,13
 379 28 379 28 379 20 c 0,14,15
 379 0 379 0 360 0 c 0,16,17
 346 0 346 0 296 1.5 c 128,-1,18
 246 3 246 3 232 3 c 128,-1,19
 218 3 218 3 169 1.5 c 128,-1,20
 120 0 120 0 106 0 c 128,-1,21
 92 0 92 0 92 11 c 0,22,23
 92 25 92 25 97.5 28 c 128,-1,24
 103 31 103 31 119 31 c 0,25,26
 178 32 178 32 190.5 40 c 128,-1,27
 203 48 203 48 213 90 c 0,28,29
 217 104 217 104 237.5 187 c 128,-1,30
 258 270 258 270 258 272 c 0,31,32
 258 277 258 277 254 289 c 2,33,-1
 131 618 l 2,34,35
 126 633 126 633 121 638.5 c 128,-1,36
 116 644 116 644 101.5 648 c 128,-1,37
 87 652 87 652 58 652 c 0,38,39
 35 652 35 652 35 663 c 0,40,41
 35 683 35 683 54 683 c 0,42,43
 66 683 66 683 110 681.5 c 128,-1,44
 154 680 154 680 166 680 c 0,45,46
 180 680 180 680 229 681.5 c 128,-1,47
 278 683 278 683 292 683 c 0,48,49
 307 683 307 683 307 672 c 0,50,51
 307 658 307 658 301.5 655 c 128,-1,52
 296 652 296 652 283 652 c 0,53,54
 224 652 224 652 224 628 c 0,55,56
 224 625 224 625 230 611 c 2,57,-1
 340 314 l 1,58,-1
 572 581 l 1,59,60
 599 615 599 615 599 629 c 0,61,62
 599 652 599 652 563 652 c 0,63,64
 548 652 548 652 548 664 c 0,65,66
 548 683 548 683 567 683 c 0,67,68
 583 683 583 683 616.5 681.5 c 128,-1,69
 650 680 650 680 667 680 c 0,70,71
 681 680 681 680 708.5 681.5 c 128,-1,72
 736 683 736 683 749 683 c 128,-1,73
 762 683 762 683 762 671 c 128,-1,74
 762 659 762 659 757.5 656 c 128,-1,75
 753 653 753 653 742 652 c 0,76,77
 710 650 710 650 683 637.5 c 128,-1,78
 656 625 656 625 644 614.5 c 128,-1,79
 632 604 632 604 611 583 c 2,80,-1
 597 569 l 1,0,-1
EndSplineSet
EndChar

StartChar: Z
Encoding: 90 90 25
Width: 682
Flags: W
HStem: 0 34<161 451.108> 458 21G<193 202> 652 31<350.031 621>
VStem: 187 25<458.024 502.172> 599.5 24.5<223.734 266.989>
LayerCount: 2
Fore
SplineSet
720 659 m 1,0,-1
 161 34 l 1,1,-1
 332 34 l 2,2,3
 395 34 395 34 438 46.5 c 128,-1,4
 481 59 481 59 510.5 88 c 128,-1,5
 540 117 540 117 558 151.5 c 128,-1,6
 576 186 576 186 594 242 c 0,7,8
 598 255 598 255 599.5 258.5 c 128,-1,9
 601 262 601 262 603.5 264.5 c 128,-1,10
 606 267 606 267 611 267 c 0,11,12
 624 267 624 267 624 256 c 0,13,14
 624 254 624 254 623.5 251.5 c 128,-1,15
 623 249 623 249 621.5 245.5 c 128,-1,16
 620 242 620 242 620 241 c 2,17,-1
 549 20 l 2,18,19
 544 6 544 6 540 3 c 128,-1,20
 536 0 536 0 518 0 c 2,21,-1
 83 0 l 2,22,23
 75 0 75 0 71.5 0 c 128,-1,24
 68 0 68 0 64 1 c 128,-1,25
 60 2 60 2 59 4 c 128,-1,26
 58 6 58 6 58 9 c 0,27,28
 58 11 58 11 60 19 c 2,29,-1
 62 27 l 1,30,-1
 621 652 l 1,31,-1
 458 652 l 2,32,33
 348 652 348 652 295.5 608 c 128,-1,34
 243 564 243 564 212 468 c 1,35,36
 205 458 205 458 199 458 c 0,37,38
 187 458 187 458 187 469 c 0,39,40
 187 476 187 476 190 483 c 2,41,-1
 245 663 l 2,42,43
 250 677 250 677 254 680 c 128,-1,44
 258 683 258 683 276 683 c 2,45,-1
 698 683 l 2,46,47
 707 683 707 683 710.5 683 c 128,-1,48
 714 683 714 683 717.5 682 c 128,-1,49
 721 681 721 681 722 679 c 128,-1,50
 723 677 723 677 723 674 c 128,-1,51
 723 671 723 671 720 659 c 1,0,-1
EndSplineSet
EndChar

StartChar: a
Encoding: 97 97 26
Width: 528
Flags: W
HStem: -11 22<141.085 218.746 374.038 424.551> 420 22<242.999 318.328>
VStem: 40 71<56.6666 228.651>
LayerCount: 2
Fore
SplineSet
373 378 m 1,0,1
 375 396 375 396 386.5 409 c 128,-1,2
 398 422 398 422 415 422 c 0,3,4
 444 422 444 422 444 395 c 0,5,6
 444 389 444 389 437 361 c 2,7,-1
 401 221 l 1,8,9
 386 158 386 158 379 131 c 0,10,11
 366 79 366 79 366 57 c 0,12,13
 366 11 366 11 396 11 c 0,14,15
 424 11 424 11 440 42.5 c 128,-1,16
 456 74 456 74 472 135 c 0,17,18
 474 146 474 146 476.5 149.5 c 128,-1,19
 479 153 479 153 486 153 c 0,20,21
 498 153 498 153 498 143 c 0,22,23
 498 141 498 141 494.5 125 c 128,-1,24
 491 109 491 109 483.5 84.5 c 128,-1,25
 476 60 476 60 468 44 c 0,26,27
 440 -11 440 -11 394 -11 c 0,28,29
 359 -11 359 -11 334 10.5 c 128,-1,30
 309 32 309 32 303 64 c 1,31,32
 240 -11 240 -11 173 -11 c 0,33,34
 114 -11 114 -11 77 34 c 128,-1,35
 40 79 40 79 40 149 c 0,36,37
 40 258 40 258 116.5 350 c 128,-1,38
 193 442 193 442 281 442 c 0,39,40
 342 442 342 442 373 378 c 1,0,1
308 119 m 2,41,-1
 358 315 l 2,42,43
 361 330 361 330 361 332 c 0,44,45
 361 337 361 337 357.5 349 c 128,-1,46
 354 361 354 361 346 378 c 128,-1,47
 338 395 338 395 321 407.5 c 128,-1,48
 304 420 304 420 282 420 c 0,49,50
 252 420 252 420 220.5 394 c 128,-1,51
 189 368 189 368 166 324 c 0,52,53
 148 289 148 289 129.5 215.5 c 128,-1,54
 111 142 111 142 111 105 c 0,55,56
 111 69 111 69 126 40 c 128,-1,57
 141 11 141 11 175 11 c 0,58,59
 231 11 231 11 288 82 c 0,60,61
 302 98 302 98 308 119 c 2,41,-1
EndSplineSet
EndChar

StartChar: b
Encoding: 98 98 27
Width: 429
Flags: W
HStem: -11 22<140.956 212.298> 420 22<236.467 312.338> 674 20G<221 232.5>
VStem: 47 60<52.3115 237.085> 343 72<201.963 373.887>
LayerCount: 2
Fore
SplineSet
239 683 m 1,0,-1
 165 382 l 1,1,2
 223 442 223 442 282 442 c 128,-1,3
 341 442 341 442 378 396.5 c 128,-1,4
 415 351 415 351 415 282 c 0,5,6
 415 174 415 174 339 81.5 c 128,-1,7
 263 -11 263 -11 174 -11 c 0,8,9
 118 -11 118 -11 82.5 32 c 128,-1,10
 47 75 47 75 47 146 c 0,11,12
 47 180 47 180 63 247 c 2,13,-1
 145 573 l 2,14,15
 159 632 159 632 159 635 c 0,16,17
 159 641 159 641 157 644 c 128,-1,18
 155 647 155 647 143.5 649.5 c 128,-1,19
 132 652 132 652 109 652 c 0,20,21
 100 652 100 652 96 652.5 c 128,-1,22
 92 653 92 653 88.5 655.5 c 128,-1,23
 85 658 85 658 85 664 c 0,24,25
 85 682 85 682 104 684 c 0,26,27
 112 685 112 685 140 687.5 c 128,-1,28
 168 690 168 690 192 692 c 128,-1,29
 216 694 216 694 226 694 c 0,30,31
 239 694 239 694 239 683 c 1,0,-1
145 305 m 2,32,-1
 123 213 l 2,33,34
 107 150 107 150 107 112 c 0,35,36
 107 60 107 60 126.5 35.5 c 128,-1,37
 146 11 146 11 174 11 c 0,38,39
 204 11 204 11 236 38 c 128,-1,40
 268 65 268 65 292 114 c 0,41,42
 307 146 307 146 325 215.5 c 128,-1,43
 343 285 343 285 343 326 c 0,44,45
 343 372 343 372 325.5 396 c 128,-1,46
 308 420 308 420 280 420 c 0,47,48
 220 420 220 420 160 340 c 0,49,50
 152 330 152 330 145 305 c 2,32,-1
EndSplineSet
EndChar

StartChar: c
Encoding: 99 99 28
Width: 432
Flags: W
HStem: -11 22<159.348 273.768> 292 88<352.441 395.421> 420 22<261.602 365.657>
VStem: 41 74<69.1011 241.573> 334 93<310.05 365.468>
LayerCount: 2
Fore
SplineSet
396 380 m 1,0,1
 375 420 375 420 310 420 c 0,2,3
 270 420 270 420 231.5 392 c 128,-1,4
 193 364 193 364 169 320 c 0,5,6
 145 277 145 277 130 216 c 128,-1,7
 115 155 115 155 115 120 c 0,8,9
 115 72 115 72 137.5 41.5 c 128,-1,10
 160 11 160 11 205 11 c 0,11,12
 217 11 217 11 232 13 c 128,-1,13
 247 15 247 15 278.5 23 c 128,-1,14
 310 31 310 31 344 53.5 c 128,-1,15
 378 76 378 76 405 110 c 0,16,17
 412 120 412 120 418 120 c 0,18,19
 422 120 422 120 426 116 c 128,-1,20
 430 112 430 112 430 107 c 0,21,22
 430 103 430 103 420.5 90.5 c 128,-1,23
 411 78 411 78 391 60.5 c 128,-1,24
 371 43 371 43 345 27 c 128,-1,25
 319 11 319 11 281 0 c 128,-1,26
 243 -11 243 -11 203 -11 c 0,27,28
 128 -11 128 -11 84.5 38 c 128,-1,29
 41 87 41 87 41 158 c 0,30,31
 41 264 41 264 124.5 353 c 128,-1,32
 208 442 208 442 309 442 c 0,33,34
 362 442 362 442 394.5 417.5 c 128,-1,35
 427 393 427 393 427 356 c 0,36,37
 427 327 427 327 410.5 309.5 c 128,-1,38
 394 292 394 292 371 292 c 0,39,40
 356 292 356 292 345 301 c 128,-1,41
 334 310 334 310 334 327 c 0,42,43
 334 349 334 349 352 366 c 0,44,45
 366 380 366 380 396 380 c 1,0,1
EndSplineSet
EndChar

StartChar: d
Encoding: 100 100 29
Width: 520
Flags: W
HStem: -11 22<141.085 218.746 374.038 424.551> 420 22<242.999 318.328> 652 42<386 503>
VStem: 40 71<56.6666 228.651>
LayerCount: 2
Fore
SplineSet
516 683 m 1,0,-1
 372 105 l 2,1,2
 366 80 366 80 366 57 c 0,3,4
 366 11 366 11 396 11 c 0,5,6
 424 11 424 11 440 42.5 c 128,-1,7
 456 74 456 74 472 135 c 0,8,9
 474 146 474 146 476.5 149.5 c 128,-1,10
 479 153 479 153 486 153 c 0,11,12
 498 153 498 153 498 143 c 0,13,14
 498 141 498 141 494.5 125 c 128,-1,15
 491 109 491 109 483.5 84.5 c 128,-1,16
 476 60 476 60 468 44 c 0,17,18
 440 -11 440 -11 394 -11 c 0,19,20
 359 -11 359 -11 334 10.5 c 128,-1,21
 309 32 309 32 303 64 c 1,22,23
 240 -11 240 -11 173 -11 c 0,24,25
 114 -11 114 -11 77 34 c 128,-1,26
 40 79 40 79 40 149 c 0,27,28
 40 258 40 258 116.5 350 c 128,-1,29
 193 442 193 442 281 442 c 0,30,31
 342 442 342 442 373 378 c 1,32,-1
 433 615 l 1,33,-1
 436 635 l 2,34,35
 436 641 436 641 434 644 c 128,-1,36
 432 647 432 647 420.5 649.5 c 128,-1,37
 409 652 409 652 386 652 c 0,38,39
 377 652 377 652 373 652.5 c 128,-1,40
 369 653 369 653 365.5 655.5 c 128,-1,41
 362 658 362 658 362 664 c 0,42,43
 362 681 362 681 376 683 c 0,44,45
 470 694 470 694 503 694 c 0,46,47
 516 694 516 694 516 683 c 1,0,-1
308 119 m 2,48,-1
 358 315 l 2,49,50
 361 330 361 330 361 332 c 0,51,52
 361 337 361 337 357.5 349 c 128,-1,53
 354 361 354 361 346 378 c 128,-1,54
 338 395 338 395 321 407.5 c 128,-1,55
 304 420 304 420 282 420 c 0,56,57
 252 420 252 420 220.5 394 c 128,-1,58
 189 368 189 368 166 324 c 0,59,60
 148 289 148 289 129.5 215.5 c 128,-1,61
 111 142 111 142 111 105 c 0,62,63
 111 69 111 69 126 40 c 128,-1,64
 141 11 141 11 175 11 c 0,65,66
 231 11 231 11 288 82 c 0,67,68
 302 98 302 98 308 119 c 2,48,-1
EndSplineSet
EndChar

StartChar: e
Encoding: 101 101 30
Width: 465
Flags: W
HStem: -11 22<164.115 273.768> 231 22<140 286.996> 420 22<260.57 352.29>
VStem: 46 72<71.5747 229.007> 382 33<306.363 398.143>
LayerCount: 2
Fore
SplineSet
187 231 m 2,0,-1
 134 231 l 1,1,2
 118 166 118 166 118 127 c 0,3,4
 118 104 118 104 122.5 81.5 c 128,-1,5
 127 59 127 59 148 35 c 128,-1,6
 169 11 169 11 205 11 c 0,7,8
 217 11 217 11 232 13 c 128,-1,9
 247 15 247 15 278.5 23 c 128,-1,10
 310 31 310 31 344 53.5 c 128,-1,11
 378 76 378 76 405 110 c 0,12,13
 412 120 412 120 418 120 c 0,14,15
 422 120 422 120 426 116 c 128,-1,16
 430 112 430 112 430 107 c 0,17,18
 430 103 430 103 420.5 90.5 c 128,-1,19
 411 78 411 78 391 60.5 c 128,-1,20
 371 43 371 43 345 27 c 128,-1,21
 319 11 319 11 281 0 c 128,-1,22
 243 -11 243 -11 203 -11 c 0,23,24
 131 -11 131 -11 88.5 40.5 c 128,-1,25
 46 92 46 92 46 170 c 0,26,27
 46 252 46 252 89 316.5 c 128,-1,28
 132 381 132 381 191 411.5 c 128,-1,29
 250 442 250 442 308 442 c 0,30,31
 357 442 357 442 386 417 c 128,-1,32
 415 392 415 392 415 357 c 0,33,34
 415 349 415 349 413 338.5 c 128,-1,35
 411 328 411 328 404.5 312 c 128,-1,36
 398 296 398 296 381 280 c 128,-1,37
 364 264 364 264 340 254 c 0,38,39
 285 231 285 231 187 231 c 2,0,-1
140 253 m 1,40,-1
 181 253 l 2,41,42
 382 253 382 253 382 357 c 0,43,44
 382 384 382 384 362 402 c 128,-1,45
 342 420 342 420 308 420 c 0,46,47
 294 420 294 420 275.5 414.5 c 128,-1,48
 257 409 257 409 230 394 c 128,-1,49
 203 379 203 379 178.5 342.5 c 128,-1,50
 154 306 154 306 140 253 c 1,40,-1
EndSplineSet
EndChar

StartChar: f
Encoding: 102 102 31
Width: 489
Flags: W
HStem: -205 22<99.1377 166.891> -165 89<90.3906 132.105> 400 31<209.61 300 373 482.763> 576 89<472.895 513.402> 683 22<435.081 504.866>
VStem: 53 92<-144.953 -93.0182> 460 92<593.018 644.469>
LayerCount: 2
Fore
SplineSet
367 400 m 1,0,-1
 307 83 l 2,1,2
 306 74 306 74 299.5 44.5 c 128,-1,3
 293 15 293 15 279 -32.5 c 128,-1,4
 265 -80 265 -80 251 -108 c 0,5,6
 233 -145 233 -145 204 -175 c 128,-1,7
 175 -205 175 -205 138 -205 c 0,8,9
 105 -205 105 -205 79 -186.5 c 128,-1,10
 53 -168 53 -168 53 -136 c 0,11,12
 53 -109 53 -109 70 -92.5 c 128,-1,13
 87 -76 87 -76 108 -76 c 0,14,15
 123 -76 123 -76 134 -85.5 c 128,-1,16
 145 -95 145 -95 145 -111 c 0,17,18
 145 -128 145 -128 132.5 -145.5 c 128,-1,19
 120 -163 120 -163 90 -165 c 1,20,21
 109 -183 109 -183 138 -183 c 0,22,23
 157 -183 157 -183 170.5 -169 c 128,-1,24
 184 -155 184 -155 194.5 -123.5 c 128,-1,25
 205 -92 205 -92 210.5 -67.5 c 128,-1,26
 216 -43 216 -43 225 5 c 2,27,-1
 300 400 l 1,28,-1
 234 400 l 2,29,30
 222 400 222 400 217.5 400.5 c 128,-1,31
 213 401 213 401 209.5 403.5 c 128,-1,32
 206 406 206 406 206 412 c 0,33,34
 206 425 206 425 212.5 428 c 128,-1,35
 219 431 219 431 236 431 c 2,36,-1
 305 431 l 1,37,38
 329 556 329 556 338 588 c 0,39,40
 358 654 358 654 394 679.5 c 128,-1,41
 430 705 430 705 465 705 c 0,42,43
 499 705 499 705 525.5 686.5 c 128,-1,44
 552 668 552 668 552 636 c 0,45,46
 552 609 552 609 535 592.5 c 128,-1,47
 518 576 518 576 497 576 c 0,48,49
 482 576 482 576 471 585.5 c 128,-1,50
 460 595 460 595 460 611 c 0,51,52
 460 628 460 628 472.5 645 c 128,-1,53
 485 662 485 662 514 665 c 1,54,55
 495 683 495 683 465 683 c 0,56,57
 434 683 434 683 418 649 c 0,58,59
 411 635 411 635 394 545 c 2,60,-1
 373 431 l 1,61,-1
 456 431 l 2,62,63
 483 431 483 431 483 420 c 0,64,65
 483 406 483 406 476.5 403 c 128,-1,66
 470 400 470 400 453 400 c 2,67,-1
 367 400 l 1,0,-1
EndSplineSet
EndChar

StartChar: g
Encoding: 103 103 32
Width: 476
Flags: W
HStem: -205 22<66.7874 203.29> -173 87<66 97.2008> 0 22<174.009 252.199> 420 22<272.949 348.247>
VStem: 15 92<-163.422 -101.987> 73 71<66.3477 236.688>
LayerCount: 2
Fore
SplineSet
471 377 m 1,0,-1
 360 -67 l 2,1,2
 347 -119 347 -119 290.5 -162 c 128,-1,3
 234 -205 234 -205 148 -205 c 0,4,5
 77 -205 77 -205 46 -190 c 128,-1,6
 15 -175 15 -175 15 -144 c 0,7,8
 15 -117 15 -117 32.5 -101.5 c 128,-1,9
 50 -86 50 -86 69 -86 c 128,-1,10
 88 -86 88 -86 97.5 -96.5 c 128,-1,11
 107 -107 107 -107 107 -121 c 0,12,13
 107 -136 107 -136 97 -151.5 c 128,-1,14
 87 -167 87 -167 66 -173 c 1,15,16
 97 -183 97 -183 146 -183 c 0,17,18
 246 -183 246 -183 289.071 -77.2461 c 2,19,-1
 290 -75 l 2,20,21
 290 -74 290 -74 293.5 -61 c 128,-1,22
 297 -48 297 -48 305.5 -15 c 128,-1,23
 314 18 314 18 323 57 c 1,24,-1
 322 58 l 1,25,26
 269 0 269 0 206 0 c 0,27,28
 150 0 150 0 111.5 43 c 128,-1,29
 73 86 73 86 73 158 c 0,30,31
 73 265 73 265 148.5 353.5 c 128,-1,32
 224 442 224 442 311 442 c 0,33,34
 340 442 340 442 365 424.5 c 128,-1,35
 390 407 390 407 404 379 c 1,36,37
 407 403 407 403 420 412.5 c 128,-1,38
 433 422 433 422 445 422 c 0,39,40
 474 422 474 422 474 395 c 1,41,-1
 471 377 l 1,0,-1
341 128 m 1,42,-1
 389 319 l 2,43,44
 392 331 392 331 392 334 c 0,45,46
 392 341 392 341 386.5 359 c 128,-1,47
 381 377 381 377 361 398.5 c 128,-1,48
 341 420 341 420 312 420 c 0,49,50
 282 420 282 420 251.5 395 c 128,-1,51
 221 370 221 370 200 331 c 0,52,53
 180 294 180 294 162 222.5 c 128,-1,54
 144 151 144 151 144 114 c 0,55,56
 144 78 144 78 159.5 50 c 128,-1,57
 175 22 175 22 209 22 c 0,58,59
 248 22 248 22 290 58 c 0,60,61
 334 96 334 96 341 128 c 1,42,-1
EndSplineSet
EndChar

StartChar: h
Encoding: 104 104 33
Width: 576
Flags: W
HStem: -11 22<397.906 453.155> 420 22<301.105 387.7> 674 20G<269 280.5>
VStem: 333 60<14.4755 124.996> 408 64<240.321 404.344>
LayerCount: 2
Fore
SplineSet
287 683 m 1,0,-1
 209 365 l 1,1,2
 271 442 271 442 357 442 c 0,3,4
 412 442 412 442 442 413.5 c 128,-1,5
 472 385 472 385 472 335 c 0,6,7
 472 279 472 279 411 115 c 1,8,9
 393 71 393 71 393 44 c 0,10,11
 393 11 393 11 417 11 c 0,12,13
 454 11 454 11 479.5 48 c 128,-1,14
 505 85 505 85 519 135 c 0,15,16
 524.421 151.263 524.421 151.263 528.65 152.457 c 0,17,18
 530.574 153 530.574 153 534 153 c 0,19,20
 546 153 546 153 546 143 c 0,21,22
 546 137 546 137 538.5 115 c 128,-1,23
 531 93 531 93 516.5 63.5 c 128,-1,24
 502 34 502 34 474.5 11.5 c 128,-1,25
 447 -11 447 -11 415 -11 c 0,26,27
 380 -11 380 -11 356.5 12.5 c 128,-1,28
 333 36 333 36 333 71 c 0,29,30
 333 89 333 89 346 126 c 1,31,32
 408 284 408 284 408 350 c 0,33,34
 408 420 408 420 354 420 c 0,35,36
 306 420 306 420 258 385 c 1,37,38
 236 367 236 367 215 336 c 128,-1,39
 194 305 194 305 190 293 c 1,40,41
 186 269 186 269 179 248 c 1,42,43
 174 225 174 225 162 181 c 1,44,-1
 140 91 l 1,45,-1
 121 15 l 1,46,47
 117 4 117 4 106.5 -3.5 c 128,-1,48
 96 -11 96 -11 84 -11 c 0,49,50
 74 -11 74 -11 64.5 -4.5 c 128,-1,51
 55 2 55 2 55 17 c 0,52,53
 55 25 55 25 59 39 c 2,54,-1
 204 615 l 1,55,-1
 207 635 l 2,56,57
 207 641 207 641 205 644 c 128,-1,58
 203 647 203 647 191.5 649.5 c 128,-1,59
 180 652 180 652 157 652 c 0,60,61
 148 652 148 652 144 652.5 c 128,-1,62
 140 653 140 653 136.5 655.5 c 128,-1,63
 133 658 133 658 133 664 c 0,64,65
 133 682 133 682 152 684 c 0,66,67
 160 685 160 685 188 687.5 c 128,-1,68
 216 690 216 690 240 692 c 128,-1,69
 264 694 264 694 274 694 c 0,70,71
 287 694 287 694 287 683 c 1,0,-1
EndSplineSet
EndChar

StartChar: i
Encoding: 105 105 34
Width: 344
Flags: W
HStem: -11 22<144.703 200.602> 420 22<122.36 178.572> 572 89<205.18 271.999>
VStem: 29 28<281.096 331.723> 80 60<13.7952 123.456> 183 60<305.771 417.753> 193 91<584.25 648.814>
LayerCount: 2
Fore
SplineSet
284 625 m 0,0,1
 284 604 284 604 266.5 588 c 128,-1,2
 249 572 249 572 231 572 c 0,3,4
 214 572 214 572 203.5 582.5 c 128,-1,5
 193 593 193 593 193 608 c 0,6,7
 193 628 193 628 210 644.5 c 128,-1,8
 227 661 227 661 247 661 c 0,9,10
 264 661 264 661 274 650.5 c 128,-1,11
 284 640 284 640 284 625 c 0,0,1
208 249 m 2,12,-1
 169 144 l 2,13,14
 140 67 140 67 140 44 c 0,15,16
 140 11 140 11 164 11 c 0,17,18
 231 11 231 11 266 135 c 0,19,20
 271.421 151.263 271.421 151.263 275.65 152.457 c 0,21,22
 277.574 153 277.574 153 281 153 c 0,23,24
 293 153 293 153 293 143 c 0,25,26
 293 137 293 137 285.5 114.5 c 128,-1,27
 278 92 278 92 263.5 63 c 128,-1,28
 249 34 249 34 221.5 11.5 c 128,-1,29
 194 -11 194 -11 162 -11 c 0,30,31
 126 -11 126 -11 103 12.5 c 128,-1,32
 80 36 80 36 80 71 c 0,33,34
 80 91 80 91 103 151 c 0,35,36
 108 164 108 164 125 209 c 128,-1,37
 142 254 142 254 155 289 c 128,-1,38
 168 324 168 324 172 336 c 0,39,40
 183 364 183 364 183 388 c 0,41,42
 183 420 183 420 158 420 c 0,43,44
 93 420 93 420 57 296 c 0,45,46
 53 284 53 284 50.5 281 c 128,-1,47
 48 278 48 278 41 278 c 0,48,49
 29 278 29 278 29 288 c 0,50,51
 29 294 29 294 37 316.5 c 128,-1,52
 45 339 45 339 59.5 368 c 128,-1,53
 74 397 74 397 101.5 419.5 c 128,-1,54
 129 442 129 442 161 442 c 0,55,56
 198 442 198 442 220.5 418.5 c 128,-1,57
 243 395 243 395 243 360 c 0,58,59
 243 340 243 340 230 307 c 0,60,61
 213 261 213 261 208 249 c 2,12,-1
EndSplineSet
EndChar

StartChar: j
Encoding: 106 106 35
Width: 411
Flags: W
HStem: -205 22<34.5106 114.542> -174 88<34 67.9576> 420 22<224.483 288.164> 572 89<318.001 384.82>
VStem: -13 92<-162.992 -97.8262> 109 30<281.096 323.334> 297 63<265.984 412.286> 306 91<584.186 648.75>
LayerCount: 2
Fore
SplineSet
397 625 m 0,0,1
 397 605 397 605 380 588.5 c 128,-1,2
 363 572 363 572 343 572 c 0,3,4
 326 572 326 572 316 582.5 c 128,-1,5
 306 593 306 593 306 608 c 0,6,7
 306 629 306 629 323.5 645 c 128,-1,8
 341 661 341 661 359 661 c 0,9,10
 376 661 376 661 386.5 650.5 c 128,-1,11
 397 640 397 640 397 625 c 0,0,1
196 -50 m 2,12,-1
 290 323 l 2,13,14
 297 353 297 353 297 374 c 0,15,16
 297 420 297 420 265 420 c 0,17,18
 227 420 227 420 193.5 384.5 c 128,-1,19
 160 349 160 349 139 298 c 0,20,21
 133 284 133 284 130.5 281 c 128,-1,22
 128 278 128 278 121 278 c 0,23,24
 109 278 109 278 109 288 c 0,25,26
 109 293 109 293 120 316 c 128,-1,27
 131 339 131 339 149.5 368 c 128,-1,28
 168 397 168 397 200.5 419.5 c 128,-1,29
 233 442 233 442 268 442 c 0,30,31
 307 442 307 442 333.5 417 c 128,-1,32
 360 392 360 392 360 350 c 0,33,34
 360 333 360 333 355 313 c 2,35,-1
 263 -53 l 2,36,37
 245 -123 245 -123 189 -164 c 128,-1,38
 133 -205 133 -205 75 -205 c 0,39,40
 37 -205 37 -205 12 -188.5 c 128,-1,41
 -13 -172 -13 -172 -13 -143 c 0,42,43
 -13 -118 -13 -118 4 -102 c 128,-1,44
 21 -86 21 -86 41 -86 c 0,45,46
 60 -86 60 -86 69.5 -96.5 c 128,-1,47
 79 -107 79 -107 79 -121 c 0,48,49
 79 -138 79 -138 67 -153.5 c 128,-1,50
 55 -169 55 -169 34 -174 c 1,51,52
 52 -183 52 -183 73 -183 c 0,53,54
 114 -183 114 -183 147.5 -145.5 c 128,-1,55
 181 -108 181 -108 196 -50 c 2,12,-1
EndSplineSet
EndChar

StartChar: k
Encoding: 107 107 36
Width: 520
Flags: W
HStem: -11 22<353.819 409.215> 318 89<427.023 471.809> 420 22<394.165 469.639> 674 20G<269 280.5>
VStem: 283 62<21.5642 144.109> 290 67<88.3469 194.224> 415 93<335.018 394.739> 464 26<96.5483 149.389>
LayerCount: 2
Fore
SplineSet
287 683 m 1,0,-1
 183 261 l 1,1,2
 226 278 226 278 294 354 c 0,3,4
 373 442 373 442 440 442 c 0,5,6
 472 442 472 442 490 423 c 128,-1,7
 508 404 508 404 508 379 c 0,8,9
 508 351 508 351 491 334.5 c 128,-1,10
 474 318 474 318 453 318 c 0,11,12
 434 318 434 318 424.5 328.5 c 128,-1,13
 415 339 415 339 415 353 c 0,14,15
 415 362 415 362 418.5 372 c 128,-1,16
 422 382 422 382 436 394 c 128,-1,17
 450 406 450 406 472 407 c 1,18,-1
 468 411 l 1,19,20
 460 417 460 417 447 419 c 0,21,22
 445 420 445 420 438 420 c 0,23,24
 404 420 404 420 370.5 395.5 c 128,-1,25
 337 371 337 371 295 324 c 1,26,27
 243 270 243 270 209 250 c 1,28,29
 357 231 357 231 357 145 c 0,30,31
 357 131 357 131 353 114 c 0,32,33
 345 82 345 82 345 58 c 0,34,35
 345 11 345 11 377 11 c 0,36,37
 408 11 408 11 427.5 42.5 c 128,-1,38
 447 74 447 74 464 135 c 1,39,40
 466 146 466 146 468.5 149.5 c 128,-1,41
 471 153 471 153 478 153 c 0,42,43
 490 153 490 153 490 143 c 0,44,45
 490 141 490 141 486.5 126.5 c 128,-1,46
 483 112 483 112 474 87 c 128,-1,47
 465 62 465 62 454 42 c 0,48,49
 422 -11 422 -11 375 -11 c 0,50,51
 335 -11 335 -11 309 16.5 c 128,-1,52
 283 44 283 44 283 88 c 0,53,54
 283 99 283 99 287 123 c 1,55,56
 290 133 290 133 290 144 c 0,57,58
 290 167 290 167 277.5 184.5 c 128,-1,59
 265 202 265 202 244.5 210.5 c 128,-1,60
 224 219 224 219 207 223.5 c 128,-1,61
 190 228 190 228 174 229 c 1,62,63
 124 21 124 21 118 10 c 0,64,65
 108 -11 108 -11 84 -11 c 0,66,67
 74 -11 74 -11 64.5 -4.5 c 128,-1,68
 55 2 55 2 55 17 c 0,69,70
 55 25 55 25 59 39 c 2,71,-1
 204 615 l 1,72,-1
 207 635 l 2,73,74
 207 641 207 641 205 644 c 128,-1,75
 203 647 203 647 191.5 649.5 c 128,-1,76
 180 652 180 652 157 652 c 0,77,78
 148 652 148 652 144 652.5 c 128,-1,79
 140 653 140 653 136.5 655.5 c 128,-1,80
 133 658 133 658 133 664 c 0,81,82
 133 682 133 682 152 684 c 0,83,84
 160 685 160 685 188 687.5 c 128,-1,85
 216 690 216 690 240 692 c 128,-1,86
 264 694 264 694 274 694 c 0,87,88
 287 694 287 694 287 683 c 1,0,-1
EndSplineSet
EndChar

StartChar: l
Encoding: 108 108 37
Width: 298
Flags: W
HStem: -11 22<116.013 165.84> 674 20G<240 251.5>
VStem: 44 64<20.0341 165.047>
LayerCount: 2
Fore
SplineSet
258 683 m 1,0,-1
 114 105 l 2,1,2
 108 82 108 82 108 57 c 0,3,4
 108 11 108 11 138 11 c 0,5,6
 165 11 165 11 181.5 43 c 128,-1,7
 198 75 198 75 214 135 c 0,8,9
 216 146 216 146 218.5 149.5 c 128,-1,10
 221 153 221 153 228 153 c 0,11,12
 240 153 240 153 240 143 c 0,13,14
 240 141 240 141 236.5 125.5 c 128,-1,15
 233 110 233 110 225.5 86 c 128,-1,16
 218 62 218 62 210 45 c 0,17,18
 184 -11 184 -11 135 -11 c 0,19,20
 98 -11 98 -11 71 14.5 c 128,-1,21
 44 40 44 40 44 81 c 0,22,23
 44 97 44 97 49 115 c 2,24,-1
 175 615 l 1,25,-1
 178 635 l 2,26,27
 178 640 178 640 176 643 c 128,-1,28
 174 646 174 646 162.5 649 c 128,-1,29
 151 652 151 652 129 652 c 0,30,31
 104 652 104 652 104 663 c 0,32,33
 104 682 104 682 123 684 c 0,34,35
 131 685 131 685 159 687.5 c 128,-1,36
 187 690 187 690 211 692 c 128,-1,37
 235 694 235 694 245 694 c 0,38,39
 258 694 258 694 258 683 c 1,0,-1
EndSplineSet
EndChar

StartChar: m
Encoding: 109 109 38
Width: 878
Flags: W
HStem: -11 22<699.906 755.155> 420 22<105.765 153.609 324.285 413.132 601.503 689.7>
VStem: 29 22.5<278.022 318.867> 79 66<-3.55566 102.25> 162 54<268.344 334.231> 357 65.5<-3.77979 99.6406> 635 60<14.4755 125.66> 710 64<242.511 404.344>
LayerCount: 2
Fore
SplineSet
88 59 m 2,0,-1
 146 290 l 2,1,2
 162 354 162 354 162 374 c 0,3,4
 162 420 162 420 131 420 c 0,5,6
 86 420 86 420 58 301 c 0,7,8
 54 285 54 285 51.5 281.5 c 128,-1,9
 49 278 49 278 41 278 c 0,10,11
 29 278 29 278 29 288 c 0,12,13
 29 290 29 290 33 306 c 128,-1,14
 37 322 37 322 44.5 345.5 c 128,-1,15
 52 369 52 369 60 385 c 0,16,17
 88 442 88 442 134 442 c 0,18,19
 170 442 170 442 196 419 c 128,-1,20
 222 396 222 396 226 355 c 1,21,22
 290 442 290 442 382 442 c 0,23,24
 433 442 433 442 464 416 c 0,25,26
 492 392 492 392 496 345 c 1,27,28
 564 442 564 442 659 442 c 0,29,30
 714 442 714 442 744 413.5 c 128,-1,31
 774 385 774 385 774 335 c 0,32,33
 774 282 774 282 713 115 c 1,34,35
 695 71 695 71 695 44 c 0,36,37
 695 11 695 11 719 11 c 0,38,39
 756 11 756 11 781.5 48 c 128,-1,40
 807 85 807 85 821 135 c 0,41,42
 826.421 151.263 826.421 151.263 830.65 152.457 c 0,43,44
 832.574 153 832.574 153 836 153 c 0,45,46
 848 153 848 153 848 143 c 0,47,48
 848 137 848 137 840.5 115 c 128,-1,49
 833 93 833 93 818.5 63.5 c 128,-1,50
 804 34 804 34 776.5 11.5 c 128,-1,51
 749 -11 749 -11 717 -11 c 0,52,53
 682 -11 682 -11 658.5 12.5 c 128,-1,54
 635 36 635 36 635 71 c 0,55,56
 635 91 635 91 648 126 c 0,57,58
 710 290 710 290 710 350 c 0,59,60
 710 420 710 420 656 420 c 0,61,62
 618 420 618 420 585 401.5 c 128,-1,63
 552 383 552 383 533 357.5 c 128,-1,64
 514 332 514 332 503.5 313.5 c 128,-1,65
 493 295 493 295 491 287 c 0,66,67
 488 274 488 274 431 46 c 0,68,69
 426 25 426 25 422.5 16 c 128,-1,70
 419 7 419 7 410 -2 c 128,-1,71
 401 -11 401 -11 386 -11 c 0,72,73
 374 -11 374 -11 365.5 -4 c 128,-1,74
 357 3 357 3 357 16 c 0,75,76
 357 18 357 18 359.5 28 c 128,-1,77
 362 38 362 38 365 52.5 c 128,-1,78
 368 67 368 67 370 75 c 2,79,-1
 390 151 l 1,80,-1
 418 267 l 1,81,82
 433 323 433 323 433 350 c 0,83,84
 433 420 433 420 379 420 c 0,85,86
 346 420 346 420 316.5 406 c 128,-1,87
 287 392 287 392 267 370 c 128,-1,88
 247 348 247 348 235.5 331 c 128,-1,89
 224 314 224 314 216 298 c 0,90,91
 216 297 216 297 213.5 287.5 c 128,-1,92
 211 278 211 278 208 267 c 128,-1,93
 205 256 205 256 203 248 c 0,94,95
 198 225 198 225 186 181 c 1,96,-1
 164 91 l 2,97,98
 147 22 147 22 145 17 c 0,99,100
 135 -11 135 -11 108 -11 c 0,101,102
 96 -11 96 -11 87.5 -4 c 128,-1,103
 79 3 79 3 79 16 c 0,104,105
 79 18 79 18 80.5 25.5 c 128,-1,106
 82 33 82 33 84.5 43 c 128,-1,107
 87 53 87 53 88 59 c 2,0,-1
EndSplineSet
EndChar

StartChar: n
Encoding: 110 110 39
Width: 600
Flags: W
HStem: -11 22<422.906 478.393> 420 22<105.7 153.609 324.285 412.47>
VStem: 29 22.5<278.022 318.867> 79 66<-3.55566 102.25> 162 54<268.344 334.231> 358 60<14.4755 123.974> 433 64<244.128 403.823>
LayerCount: 2
Fore
SplineSet
88 59 m 2,0,-1
 146 290 l 2,1,2
 162 354 162 354 162 374 c 0,3,4
 162 420 162 420 131 420 c 0,5,6
 86 420 86 420 58 301 c 0,7,8
 54 285 54 285 51.5 281.5 c 128,-1,9
 49 278 49 278 41 278 c 0,10,11
 29 278 29 278 29 288 c 0,12,13
 29 291 29 291 33 307 c 128,-1,14
 37 323 37 323 44.5 346.5 c 128,-1,15
 52 370 52 370 59 385 c 1,16,17
 68 401 68 401 73 409 c 128,-1,18
 78 417 78 417 95.5 429.5 c 128,-1,19
 113 442 113 442 134 442 c 0,20,21
 170 442 170 442 196 419 c 128,-1,22
 222 396 222 396 226 355 c 1,23,24
 290 442 290 442 382 442 c 0,25,26
 436 442 436 442 466.5 413.5 c 128,-1,27
 497 385 497 385 497 335 c 128,-1,28
 497 285 497 285 436 115 c 1,29,30
 418 71 418 71 418 44 c 0,31,32
 418 11 418 11 442 11 c 0,33,34
 508 11 508 11 544 135 c 0,35,36
 549.421 151.263 549.421 151.263 553.65 152.457 c 0,37,38
 555.574 153 555.574 153 559 153 c 0,39,40
 571 153 571 153 571 143 c 0,41,42
 571 137 571 137 563.5 115 c 128,-1,43
 556 93 556 93 541.5 63.5 c 128,-1,44
 527 34 527 34 499.5 11.5 c 128,-1,45
 472 -11 472 -11 440 -11 c 0,46,47
 405 -11 405 -11 381.5 12.5 c 128,-1,48
 358 36 358 36 358 71 c 0,49,50
 358 91 358 91 368 117 c 0,51,52
 433 292 433 292 433 350 c 0,53,54
 433 420 433 420 379 420 c 0,55,56
 346 420 346 420 316.5 406 c 128,-1,57
 287 392 287 392 267 370 c 128,-1,58
 247 348 247 348 235.5 331 c 128,-1,59
 224 314 224 314 216 298 c 0,60,61
 216 297 216 297 213.5 287.5 c 128,-1,62
 211 278 211 278 208 267 c 128,-1,63
 205 256 205 256 203 248 c 0,64,65
 198 225 198 225 186 181 c 1,66,-1
 164 91 l 2,67,68
 147 22 147 22 145 17 c 0,69,70
 135 -11 135 -11 108 -11 c 0,71,72
 96 -11 96 -11 87.5 -4 c 128,-1,73
 79 3 79 3 79 16 c 0,74,75
 79 18 79 18 80.5 25.5 c 128,-1,76
 82 33 82 33 84.5 43 c 128,-1,77
 87 53 87 53 88 59 c 2,0,-1
EndSplineSet
EndChar

StartChar: o
Encoding: 111 111 40
Width: 484
Flags: W
HStem: -11 22<161.371 248.198> 420 22<262.528 350.503>
VStem: 41 74<68.2051 241.484> 396 73<190.701 363.931>
LayerCount: 2
Fore
SplineSet
469 273 m 0,0,1
 469 164 469 164 385.5 76.5 c 128,-1,2
 302 -11 302 -11 201 -11 c 0,3,4
 131 -11 131 -11 86 36.5 c 128,-1,5
 41 84 41 84 41 158 c 0,6,7
 41 264 41 264 124.5 353 c 128,-1,8
 208 442 208 442 309 442 c 0,9,10
 378 442 378 442 423.5 395.5 c 128,-1,11
 469 349 469 349 469 273 c 0,0,1
202 11 m 0,12,13
 237 11 237 11 274.5 35.5 c 128,-1,14
 312 60 312 60 338 103 c 0,15,16
 364 147 364 147 380 212 c 128,-1,17
 396 277 396 277 396 312 c 0,18,19
 396 359 396 359 373 389.5 c 128,-1,20
 350 420 350 420 308 420 c 0,21,22
 279 420 279 420 242.5 399.5 c 128,-1,23
 206 379 206 379 173 328 c 0,24,25
 150 292 150 292 132.5 225.5 c 128,-1,26
 115 159 115 159 115 120 c 0,27,28
 115 66 115 66 140.5 38.5 c 128,-1,29
 166 11 166 11 202 11 c 0,12,13
EndSplineSet
EndChar

StartChar: p
Encoding: 112 112 41
Width: 503
Flags: W
HStem: -194 31<-31.8657 30.2289 109.549 181.713> -11 22<210.733 287.207> 420 22<107.765 155.782 312.564 387.668>
VStem: 31 22.5<278.022 318.867> 418 72<201.693 373.258>
LayerCount: 2
Fore
SplineSet
45 -122 m 2,0,-1
 157 323 l 2,1,2
 164 353 164 353 164 374 c 0,3,4
 164 420 164 420 133 420 c 0,5,6
 88 420 88 420 60 301 c 0,7,8
 56 285 56 285 53.5 281.5 c 128,-1,9
 51 278 51 278 43 278 c 0,10,11
 31 278 31 278 31 288 c 0,12,13
 31 290 31 290 35 306 c 128,-1,14
 39 322 39 322 46.5 346 c 128,-1,15
 54 370 54 370 62 385 c 0,16,17
 90 442 90 442 136 442 c 0,18,19
 167 442 167 442 193 423.5 c 128,-1,20
 219 405 219 405 226 367 c 1,21,22
 289 442 289 442 357 442 c 0,23,24
 414 442 414 442 452 397 c 128,-1,25
 490 352 490 352 490 282 c 0,26,27
 490 173 490 173 413.5 81 c 128,-1,28
 337 -11 337 -11 249 -11 c 0,29,30
 186 -11 186 -11 157 53 c 1,31,32
 149 25 149 25 128.5 -57 c 128,-1,33
 108 -139 108 -139 108 -147 c 0,34,35
 108 -153 108 -153 109.5 -155.5 c 128,-1,36
 111 -158 111 -158 122.5 -160.5 c 128,-1,37
 134 -163 134 -163 158 -163 c 128,-1,38
 182 -163 182 -163 182 -174 c 0,39,40
 182 -194 182 -194 164 -194 c 0,41,42
 148 -194 148 -194 115 -192.5 c 128,-1,43
 82 -191 82 -191 65 -191 c 0,44,45
 51 -191 51 -191 22.5 -192.5 c 128,-1,46
 -6 -194 -6 -194 -19 -194 c 128,-1,47
 -32 -194 -32 -194 -32 -182 c 0,48,49
 -32 -169 -32 -169 -26.5 -166 c 128,-1,50
 -21 -163 -21 -163 -9 -163 c 0,51,52
 22 -163 22 -163 30.5 -156 c 128,-1,53
 39 -149 39 -149 45 -122 c 2,0,-1
221 312 m 2,54,-1
 172 116 l 2,55,56
 169 104 169 104 169 100 c 0,57,58
 169 95 169 95 172.5 83 c 128,-1,59
 176 71 176 71 183.5 53.5 c 128,-1,60
 191 36 191 36 208 23.5 c 128,-1,61
 225 11 225 11 248 11 c 0,62,63
 278 11 278 11 310.5 37.5 c 128,-1,64
 343 64 343 64 367 114 c 0,65,66
 382 146 382 146 400 215.5 c 128,-1,67
 418 285 418 285 418 326 c 0,68,69
 418 370 418 370 401 395 c 128,-1,70
 384 420 384 420 354 420 c 0,71,72
 316 420 316 420 273 382 c 1,73,74
 230 346 230 346 221 312 c 2,54,-1
EndSplineSet
EndChar

StartChar: q
Encoding: 113 113 42
Width: 446
Flags: W
HStem: -194 30.5<150.257 226.618 311.549 383.644> -11 22<141.403 217.783> 420 22<242.313 317.719>
VStem: 40 71<56.3109 225.807>
LayerCount: 2
Fore
SplineSet
452 431 m 1,0,-1
 314 -125 l 2,1,2
 310 -143 310 -143 310 -147 c 0,3,4
 310 -153 310 -153 311.5 -155.5 c 128,-1,5
 313 -158 313 -158 324 -160.5 c 128,-1,6
 335 -163 335 -163 358 -163 c 0,7,8
 384 -163 384 -163 384 -174 c 0,9,10
 384 -194 384 -194 366 -194 c 0,11,12
 350 -194 350 -194 315 -192.5 c 128,-1,13
 280 -191 280 -191 263 -191 c 128,-1,14
 246 -191 246 -191 212.5 -192.5 c 128,-1,15
 179 -194 179 -194 163 -194 c 0,16,17
 150 -194 150 -194 150 -183 c 0,18,19
 150 -174 150 -174 153.5 -169 c 128,-1,20
 157 -164 157 -164 161 -163.5 c 128,-1,21
 165 -163 165 -163 173 -163 c 0,22,23
 215 -162 215 -162 227 -156.5 c 128,-1,24
 239 -151 239 -151 245 -130 c 0,25,26
 246 -126 246 -126 255.5 -89.5 c 128,-1,27
 265 -53 265 -53 276 -8.5 c 128,-1,28
 287 36 287 36 290 49 c 1,29,30
 230 -11 230 -11 172 -11 c 0,31,32
 116 -11 116 -11 78 33 c 128,-1,33
 40 77 40 77 40 149 c 0,34,35
 40 257 40 257 116 349.5 c 128,-1,36
 192 442 192 442 281 442 c 0,37,38
 345 442 345 442 374 372 c 1,39,40
 387 394 387 394 410.5 417.5 c 128,-1,41
 434 441 434 441 442 441 c 0,42,43
 452 441 452 441 452 431 c 1,0,-1
175 11 m 0,44,45
 212 11 212 11 249.5 43 c 128,-1,46
 287 75 287 75 302 103 c 0,47,48
 304 106 304 106 332 216.5 c 128,-1,49
 360 327 360 327 360 332 c 128,-1,50
 360 337 360 337 356.5 349 c 128,-1,51
 353 361 353 361 345 378 c 128,-1,52
 337 395 337 395 320 407.5 c 128,-1,53
 303 420 303 420 281 420 c 0,54,55
 249 420 249 420 214 389 c 128,-1,56
 179 358 179 358 157 304 c 0,57,58
 143 269 143 269 127 203.5 c 128,-1,59
 111 138 111 138 111 105 c 0,60,61
 111 95 111 95 113 82.5 c 128,-1,62
 115 70 115 70 120.5 52 c 128,-1,63
 126 34 126 34 140 22.5 c 128,-1,64
 154 11 154 11 175 11 c 0,44,45
EndSplineSet
EndChar

StartChar: r
Encoding: 114 114 43
Width: 451
Flags: W
HStem: -11 21G<102 121.5> 318 90<356.046 394.965> 420 22<105.765 153.829 307.43 392.947>
VStem: 29 22.5<278.022 318.867> 79 66<-3.55566 98.7031> 343 93<335.018 394.617>
LayerCount: 2
Fore
SplineSet
88 59 m 2,0,-1
 146 290 l 2,1,2
 162 354 162 354 162 374 c 0,3,4
 162 420 162 420 131 420 c 0,5,6
 86 420 86 420 58 301 c 0,7,8
 54 285 54 285 51.5 281.5 c 128,-1,9
 49 278 49 278 41 278 c 0,10,11
 29 278 29 278 29 288 c 0,12,13
 29 290 29 290 33 306 c 128,-1,14
 37 322 37 322 44.5 346 c 128,-1,15
 52 370 52 370 60 385 c 0,16,17
 88 442 88 442 134 442 c 0,18,19
 169 442 169 442 194 420.5 c 128,-1,20
 219 399 219 399 225 365 c 1,21,22
 277 442 277 442 353 442 c 0,23,24
 390 442 390 442 413 423 c 128,-1,25
 436 404 436 404 436 377 c 0,26,27
 436 351 436 351 419 334.5 c 128,-1,28
 402 318 402 318 381 318 c 0,29,30
 362 318 362 318 352.5 328.5 c 128,-1,31
 343 339 343 339 343 353 c 0,32,33
 343 373 343 373 358 388.5 c 128,-1,34
 373 404 373 404 395 408 c 1,35,-1
 393 409 l 2,36,37
 391 410 391 410 387.5 412 c 128,-1,38
 384 414 384 414 379 416 c 128,-1,39
 374 418 374 418 367 419 c 128,-1,40
 360 420 360 420 353 420 c 0,41,42
 311 420 311 420 273 387 c 0,43,44
 257 372 257 372 239 344.5 c 128,-1,45
 221 317 221 317 217 305 c 1,46,47
 214 289 214 289 200.5 236 c 128,-1,48
 187 183 187 183 185 175 c 0,49,50
 182 160 182 160 164 90 c 128,-1,51
 146 20 146 20 145 17 c 0,52,53
 135 -11 135 -11 108 -11 c 0,54,55
 96 -11 96 -11 87.5 -4 c 128,-1,56
 79 3 79 3 79 16 c 0,57,58
 79 18 79 18 80.5 25.5 c 128,-1,59
 82 33 82 33 84.5 43 c 128,-1,60
 87 53 87 53 88 59 c 2,0,-1
EndSplineSet
EndChar

StartChar: s
Encoding: 115 115 44
Width: 468
Flags: W
HStem: -11 22<127.565 263.016> 64 88<82.4531 126.435> 300 74<351.252 391> 420 22<242.883 358.142>
VStem: 52 93<77.5327 133.95> 132 57<288.171 365.733> 339 57<83.2515 169.17> 343 77<314.956 364.828>
LayerCount: 2
Fore
SplineSet
391 374 m 1,0,1
 373 420 373 420 301 420 c 0,2,3
 243 420 243 420 216 390 c 128,-1,4
 189 360 189 360 189 330 c 0,5,6
 189 317 189 317 194 307 c 128,-1,7
 199 297 199 297 204.5 292 c 128,-1,8
 210 287 210 287 223.5 281.5 c 128,-1,9
 237 276 237 276 242.5 275 c 128,-1,10
 248 274 248 274 265 270 c 0,11,12
 294 264 294 264 306 261 c 128,-1,13
 318 258 318 258 335 249.5 c 128,-1,14
 352 241 352 241 365 228 c 0,15,16
 396 197 396 197 396 155 c 0,17,18
 396 135 396 135 386.5 109.5 c 128,-1,19
 377 84 377 84 356.5 55.5 c 128,-1,20
 336 27 336 27 294 8 c 128,-1,21
 252 -11 252 -11 195 -11 c 0,22,23
 131 -11 131 -11 91.5 16 c 128,-1,24
 52 43 52 43 52 86 c 0,25,26
 52 117 52 117 69 134.5 c 128,-1,27
 86 152 86 152 108 152 c 0,28,29
 124 152 124 152 134.5 143 c 128,-1,30
 145 134 145 134 145 117 c 0,31,32
 145 94 145 94 127 77 c 128,-1,33
 109 60 109 60 82 64 c 1,34,35
 105 11 105 11 196 11 c 0,36,37
 238 11 238 11 268.5 24 c 128,-1,38
 299 37 299 37 313 56.5 c 128,-1,39
 327 76 327 76 333 92 c 128,-1,40
 339 108 339 108 339 121 c 0,41,42
 339 141 339 141 331 154.5 c 128,-1,43
 323 168 323 168 305.5 176 c 128,-1,44
 288 184 288 184 274 188 c 128,-1,45
 260 192 260 192 235 197 c 0,46,47
 132 218 132 218 132 296 c 0,48,49
 132 315 132 315 140.5 338 c 128,-1,50
 149 361 149 361 166.5 385.5 c 128,-1,51
 184 410 184 410 219.5 426 c 128,-1,52
 255 442 255 442 301 442 c 0,53,54
 356 442 356 442 388 417 c 128,-1,55
 420 392 420 392 420 356 c 0,56,57
 420 329 420 329 406 314.5 c 128,-1,58
 392 300 392 300 374 300 c 0,59,60
 359 300 359 300 351 308.5 c 128,-1,61
 343 317 343 317 343 329 c 0,62,63
 343 346 343 346 357 359.5 c 128,-1,64
 371 373 371 373 391 374 c 1,0,1
EndSplineSet
EndChar

StartChar: t
Encoding: 116 116 45
Width: 361
Flags: W
HStem: -11 22<134.277 199.023> 400 31<26.6096 139 214 329.789>
VStem: 63 63<18.5854 165.128>
LayerCount: 2
Fore
SplineSet
206 400 m 1,0,-1
 132 105 l 2,1,2
 126 80 126 80 126 57 c 0,3,4
 126 11 126 11 157 11 c 0,5,6
 234 11 234 11 287 139 c 0,7,8
 293 153 293 153 302 153 c 0,9,10
 314 153 314 153 314 143 c 0,11,12
 314 140 314 140 307.5 124 c 128,-1,13
 301 108 301 108 287 85 c 128,-1,14
 273 62 273 62 255 40.5 c 128,-1,15
 237 19 237 19 210.5 4 c 128,-1,16
 184 -11 184 -11 155 -11 c 0,17,18
 114 -11 114 -11 88.5 14.5 c 128,-1,19
 63 40 63 40 63 81 c 0,20,21
 63 100 63 100 139 400 c 1,22,-1
 51 400 l 2,23,24
 39 400 39 400 34.5 400.5 c 128,-1,25
 30 401 30 401 26.5 403.5 c 128,-1,26
 23 406 23 406 23 412 c 0,27,28
 23 425 23 425 29.5 428 c 128,-1,29
 36 431 36 431 53 431 c 2,30,-1
 147 431 l 1,31,-1
 186 590 l 2,32,33
 195 626 195 626 226 626 c 0,34,35
 255 626 255 626 255 599 c 0,36,37
 255 593 255 593 214 431 c 1,38,-1
 302 431 l 2,39,40
 318 431 318 431 324 429.5 c 128,-1,41
 330 428 330 428 330 420 c 0,42,43
 330 406 330 406 324 403 c 128,-1,44
 318 400 318 400 300 400 c 2,45,-1
 206 400 l 1,0,-1
EndSplineSet
EndChar

StartChar: u
Encoding: 117 117 46
Width: 572
Flags: W
HStem: -11 22<197.388 278.998 419.487 467.795> 411 20G<446.5 468> 420 22<121.93 177.881>
VStem: 108 64<32.4519 201.898> 183 60<307.771 417.85>
LayerCount: 2
Fore
SplineSet
350 56 m 1,0,1
 298 -11 298 -11 231 -11 c 0,2,3
 182 -11 182 -11 145 17 c 128,-1,4
 108 45 108 45 108 109 c 0,5,6
 108 164 108 164 166 319 c 0,7,8
 183 362 183 362 183 387 c 0,9,10
 183 420 183 420 158 420 c 0,11,12
 93 420 93 420 57 296 c 0,13,14
 53 284 53 284 50.5 281 c 128,-1,15
 48 278 48 278 41 278 c 0,16,17
 29 278 29 278 29 288 c 0,18,19
 29 294 29 294 36.5 316.5 c 128,-1,20
 44 339 44 339 58.5 368 c 128,-1,21
 73 397 73 397 100.5 419.5 c 128,-1,22
 128 442 128 442 161 442 c 0,23,24
 198 442 198 442 220.5 418.5 c 128,-1,25
 243 395 243 395 243 360 c 0,26,27
 243 340 243 340 226 297 c 0,28,29
 172 154 172 154 172 93 c 0,30,31
 172 11 172 11 234 11 c 0,32,33
 267 11 267 11 295 32 c 128,-1,34
 323 53 323 53 334.5 71 c 128,-1,35
 346 89 346 89 348 95 c 0,36,37
 370 194 370 194 423 396 c 1,38,39
 431 431 431 431 462 431 c 0,40,41
 474 431 474 431 482.5 424 c 128,-1,42
 491 417 491 417 491 404 c 0,43,44
 491 401 491 401 488.5 390 c 128,-1,45
 486 379 486 379 482 362 c 128,-1,46
 478 345 478 345 476 337 c 0,47,48
 462 286 462 286 459 269 c 1,49,-1
 431 161 l 1,50,51
 411 74 411 74 411 57 c 0,52,53
 411 11 411 11 442 11 c 0,54,55
 462 11 462 11 477.5 32.5 c 128,-1,56
 493 54 493 54 500.5 76.5 c 128,-1,57
 508 99 508 99 517 135 c 0,58,59
 519 146 519 146 521.5 149.5 c 128,-1,60
 524 153 524 153 531 153 c 0,61,62
 543 153 543 153 543 143 c 0,63,64
 543 141 543 141 539.5 125 c 128,-1,65
 536 109 536 109 528.5 84.5 c 128,-1,66
 521 60 521 60 513 44 c 0,67,68
 486 -11 486 -11 439 -11 c 0,69,70
 407 -11 407 -11 382.5 7 c 128,-1,71
 358 25 358 25 350 56 c 1,0,1
EndSplineSet
EndChar

StartChar: v
Encoding: 118 118 47
Width: 484
Flags: W
HStem: -11 22<204.373 290.164> 420 22<122.36 178.572>
VStem: 29 28<281.096 331.723> 109 64<35.855 204.397> 183 60<306.949 417.753> 425 43<252.308 390.5>
LayerCount: 2
Fore
SplineSet
468 372 m 0,0,1
 468 346 468 346 455.5 289 c 128,-1,2
 443 232 443 232 419 162 c 128,-1,3
 395 92 395 92 348 40.5 c 128,-1,4
 301 -11 301 -11 243 -11 c 0,5,6
 222 -11 222 -11 202 -6.5 c 128,-1,7
 182 -2 182 -2 159.5 10 c 128,-1,8
 137 22 137 22 123 48.5 c 128,-1,9
 109 75 109 75 109 113 c 0,10,11
 109 168 109 168 166 318 c 0,12,13
 183 362 183 362 183 388 c 0,14,15
 183 420 183 420 158 420 c 0,16,17
 93 420 93 420 57 296 c 0,18,19
 53 284 53 284 50.5 281 c 128,-1,20
 48 278 48 278 41 278 c 0,21,22
 29 278 29 278 29 288 c 0,23,24
 29 294 29 294 37 316.5 c 128,-1,25
 45 339 45 339 59.5 368 c 128,-1,26
 74 397 74 397 101.5 419.5 c 128,-1,27
 129 442 129 442 161 442 c 0,28,29
 198 442 198 442 220.5 418.5 c 128,-1,30
 243 395 243 395 243 360 c 0,31,32
 243 339 243 339 231 310 c 1,33,34
 173 155 173 155 173 98 c 0,35,36
 173 11 173 11 247 11 c 0,37,38
 288 11 288 11 324 47 c 128,-1,39
 360 83 360 83 380.5 131.5 c 128,-1,40
 401 180 401 180 413 221.5 c 128,-1,41
 425 263 425 263 425 282 c 0,42,43
 425 332 425 332 391 364 c 0,44,45
 375 380 375 380 375 394 c 0,46,47
 375 411 375 411 390.5 426.5 c 128,-1,48
 406 442 406 442 424 442 c 0,49,50
 441 442 441 442 454.5 425.5 c 128,-1,51
 468 409 468 409 468 372 c 0,0,1
EndSplineSet
EndChar

StartChar: w
Encoding: 119 119 48
Width: 715
Flags: W
HStem: -11 22<208.866 291.042 440.867 526.175> 411 20G<434.5 454> 420 22<121.93 178.201>
VStem: 109 65<39.295 208.102> 183 60<307.392 416.634> 345 64<66.0887 213.628> 648 43<249.183 390.5>
LayerCount: 2
Fore
SplineSet
462 339 m 2,0,-1
 420 171 l 1,1,2
 409 132 409 132 409 98 c 0,3,4
 409 11 409 11 483 11 c 0,5,6
 550 11 550 11 593 99 c 0,7,8
 612 137 612 137 630 196.5 c 128,-1,9
 648 256 648 256 648 282 c 0,10,11
 648 331 648 331 612 367 c 1,12,13
 597 380 597 380 597 394 c 0,14,15
 597 411 597 411 613 426.5 c 128,-1,16
 629 442 629 442 647 442 c 0,17,18
 663 442 663 442 677 425.5 c 128,-1,19
 691 409 691 409 691 372 c 128,-1,20
 691 335 691 335 670.5 252 c 128,-1,21
 650 169 650 169 625 112 c 0,22,23
 572 -11 572 -11 480 -11 c 0,24,25
 383 -11 383 -11 355 59 c 1,26,27
 315 -11 315 -11 251 -11 c 0,28,29
 189 -11 189 -11 149 20 c 128,-1,30
 109 51 109 51 109 115 c 0,31,32
 109 167 109 167 165 317 c 1,33,34
 183 361 183 361 183 387 c 0,35,36
 183 420 183 420 158 420 c 0,37,38
 93 420 93 420 57 296 c 0,39,40
 53 284 53 284 50.5 281 c 128,-1,41
 48 278 48 278 41 278 c 0,42,43
 29 278 29 278 29 288 c 0,44,45
 29 294 29 294 36.5 316.5 c 128,-1,46
 44 339 44 339 58.5 368 c 128,-1,47
 73 397 73 397 100.5 419.5 c 128,-1,48
 128 442 128 442 161 442 c 0,49,50
 197 442 197 442 220 418 c 128,-1,51
 243 394 243 394 243 360 c 0,52,53
 243 342 243 342 226 296 c 0,54,55
 174 160 174 160 174 102 c 0,56,57
 174 11 174 11 254 11 c 0,58,59
 310 11 310 11 346 95 c 1,60,61
 345 100 345 100 345 113 c 0,62,63
 345 140 345 140 354 179 c 0,64,65
 357 189 357 189 371 244.5 c 128,-1,66
 385 300 385 300 397.5 350 c 128,-1,67
 410 400 410 400 411 403 c 0,68,69
 421 431 421 431 448 431 c 0,70,71
 460 431 460 431 468.5 424 c 128,-1,72
 477 417 477 417 477 404 c 0,73,74
 477 401 477 401 474.5 390.5 c 128,-1,75
 472 380 472 380 468 363.5 c 128,-1,76
 464 347 464 347 462 339 c 2,0,-1
EndSplineSet
EndChar

StartChar: x
Encoding: 120 120 49
Width: 571
Flags: W
HStem: -11 22<78.053 160.77 305.068 379.37> 24 89<74 109.14> 420 22<176.675 251.095 394.126 478.808>
VStem: 29 92<35.615 95.467> 60 25<278.011 321.513> 435 92<333.987 395.051>
LayerCount: 2
Fore
SplineSet
334 302 m 1,0,-1
 300 165 l 2,1,2
 283 97 283 97 283 77 c 0,3,4
 283 49 283 49 297 30 c 128,-1,5
 311 11 311 11 338 11 c 0,6,7
 371 11 371 11 410 41 c 128,-1,8
 449 71 449 71 471 142 c 0,9,10
 474 153 474 153 484 153 c 0,11,12
 496 153 496 153 496 143 c 0,13,14
 496 132 496 132 485 108 c 128,-1,15
 474 84 474 84 455 57 c 128,-1,16
 436 30 436 30 404 9.5 c 128,-1,17
 372 -11 372 -11 336 -11 c 0,18,19
 294 -11 294 -11 266 11.5 c 128,-1,20
 238 34 238 34 228 65 c 1,21,22
 225 58 225 58 219 49.5 c 128,-1,23
 213 41 213 41 199.5 25.5 c 128,-1,24
 186 10 186 10 166 -0.5 c 128,-1,25
 146 -11 146 -11 123 -11 c 0,26,27
 86 -11 86 -11 57.5 6 c 128,-1,28
 29 23 29 23 29 55 c 0,29,30
 29 79 29 79 45 96 c 128,-1,31
 61 113 61 113 84 113 c 0,32,33
 98 113 98 113 109.5 104.5 c 128,-1,34
 121 96 121 96 121 78 c 0,35,36
 121 58 121 58 107.5 43 c 128,-1,37
 94 28 94 28 74 24 c 1,38,39
 95 11 95 11 124 11 c 0,40,41
 156 11 156 11 181.5 39.5 c 128,-1,42
 207 68 207 68 219 115 c 0,43,44
 273 319 273 319 273 353 c 0,45,46
 273 391 273 391 256 405.5 c 128,-1,47
 239 420 239 420 219 420 c 0,48,49
 185 420 185 420 146.5 390 c 128,-1,50
 108 360 108 360 85 289 c 1,51,52
 83 278 83 278 72 278 c 0,53,54
 60 278 60 278 60 288 c 0,55,56
 60 299 60 299 71 323 c 128,-1,57
 82 347 82 347 101 374 c 128,-1,58
 120 401 120 401 152.5 421.5 c 128,-1,59
 185 442 185 442 221 442 c 0,60,61
 300 442 300 442 329 366 c 1,62,63
 369 442 369 442 434 442 c 0,64,65
 468 442 468 442 497.5 426.5 c 128,-1,66
 527 411 527 411 527 376 c 0,67,68
 527 349 527 349 509.5 333.5 c 128,-1,69
 492 318 492 318 473 318 c 128,-1,70
 454 318 454 318 444.5 328.5 c 128,-1,71
 435 339 435 339 435 353 c 0,72,73
 435 371 435 371 448.5 387 c 128,-1,74
 462 403 462 403 483 407 c 1,75,76
 462 420 462 420 433 420 c 0,77,78
 361 420 361 420 334 302 c 1,0,-1
EndSplineSet
EndChar

StartChar: y
Encoding: 121 121 50
Width: 490
Flags: W
HStem: -205 22<108.08 203.655> -141 88<80.5302 122.559> -11 22<197.107 280.146> 411 20G<450 467> 420 22<121.93 178.572>
VStem: 50 93<-128.436 -69.5042> 108 64<31.4109 203.646> 183 60<306.558 417.753> 426 64<327.281 423.78>
LayerCount: 2
Fore
SplineSet
486 381 m 2,0,-1
 390 -1 l 2,1,2
 369 -86 369 -86 301 -145.5 c 128,-1,3
 233 -205 233 -205 156 -205 c 0,4,5
 110 -205 110 -205 80 -180.5 c 128,-1,6
 50 -156 50 -156 50 -118 c 0,7,8
 50 -85 50 -85 67.5 -69 c 128,-1,9
 85 -53 85 -53 106 -53 c 0,10,11
 143 -53 143 -53 143 -88 c 0,12,13
 143 -111 143 -111 123 -129 c 0,14,15
 109 -141 109 -141 80 -141 c 1,16,17
 98 -183 98 -183 156 -183 c 0,18,19
 218 -183 218 -183 266 -120 c 0,20,21
 306 -67 306 -67 331 34 c 1,22,23
 286 -11 286 -11 230 -11 c 0,24,25
 179 -11 179 -11 143.5 17.5 c 128,-1,26
 108 46 108 46 108 108 c 0,27,28
 108 164 108 164 166 318 c 0,29,30
 183 364 183 364 183 388 c 0,31,32
 183 420 183 420 158 420 c 0,33,34
 93 420 93 420 57 296 c 0,35,36
 53 284 53 284 50.5 281 c 128,-1,37
 48 278 48 278 41 278 c 0,38,39
 29 278 29 278 29 288 c 0,40,41
 29 294 29 294 36.5 316.5 c 128,-1,42
 44 339 44 339 58.5 368 c 128,-1,43
 73 397 73 397 100.5 419.5 c 128,-1,44
 128 442 128 442 161 442 c 0,45,46
 198 442 198 442 220.5 418.5 c 128,-1,47
 243 395 243 395 243 360 c 0,48,49
 243 339 243 339 223 288 c 0,50,51
 172 156 172 156 172 92 c 0,52,53
 172 11 172 11 234 11 c 0,54,55
 277 11 277 11 309.5 43 c 128,-1,56
 342 75 342 75 347 96 c 2,57,-1
 392 276 l 1,58,59
 399 309 399 309 412 356 c 1,60,61
 422 399 422 399 426 410 c 1,62,63
 439 431 439 431 461 431 c 0,64,65
 473 431 473 431 481.5 424 c 128,-1,66
 490 417 490 417 490 404 c 0,67,68
 490 395 490 395 486 381 c 2,0,-1
EndSplineSet
EndChar

StartChar: z
Encoding: 122 122 51
Width: 465
Flags: W
HStem: -11 67<228.456 348.263> 64 22<133.735 187.35> 345 22<336.046 374.828> 375 67<184.804 295.596>
VStem: 125 25<317.011 348.487>
LayerCount: 2
Fore
SplineSet
133 83 m 1,0,1
 142 86 142 86 160 86 c 0,2,3
 186 86 186 86 230 69 c 1,4,5
 269 56 269 56 289 56 c 0,6,7
 308 56 308 56 329.5 63 c 128,-1,8
 351 70 351 70 374.5 90 c 128,-1,9
 398 110 398 110 409 140 c 1,10,11
 415 153 415 153 423 153 c 0,12,13
 435 153 435 153 435 143 c 0,14,15
 435 110 435 110 388.5 49.5 c 128,-1,16
 342 -11 342 -11 278 -11 c 0,17,18
 244 -11 244 -11 214 26 c 1,19,20
 194 49 194 49 183 56.5 c 128,-1,21
 172 64 172 64 156 64 c 0,22,23
 112 64 112 64 71 2 c 1,24,25
 64 -11 64 -11 55 -11 c 0,26,27
 43 -11 43 -11 43 -1 c 0,28,29
 43 3 43 3 54 20.5 c 128,-1,30
 65 38 65 38 90 68.5 c 128,-1,31
 115 99 115 99 146 130 c 1,32,-1
 236 214 l 1,33,34
 335 298 335 298 375 345 c 1,35,36
 338 345 338 345 298 360 c 0,37,38
 255 375 255 375 235 375 c 0,39,40
 169 375 169 375 150 328 c 0,41,42
 146 317 146 317 137 317 c 0,43,44
 125 317 125 317 125 328 c 0,45,46
 125 353 125 353 161 397.5 c 128,-1,47
 197 442 197 442 246 442 c 0,48,49
 268 442 268 442 282.5 431.5 c 128,-1,50
 297 421 297 421 315 399 c 0,51,52
 323 389 323 389 326.5 386 c 128,-1,53
 330 383 330 383 337 377 c 128,-1,54
 344 371 344 371 350.5 369 c 128,-1,55
 357 367 357 367 366 367 c 0,56,57
 401 367 401 367 441 431 c 0,58,59
 447 442 447 442 456 442 c 0,60,61
 467 442 467 442 467 432 c 0,62,63
 467 428 467 428 458.5 414 c 128,-1,64
 450 400 450 400 421.5 364.5 c 128,-1,65
 393 329 393 329 350 287 c 0,66,67
 334 271 334 271 309.5 248.5 c 128,-1,68
 285 226 285 226 268.5 211.5 c 2,69,-1
 252 197 l 2,70,71
 187 141 187 141 133 83 c 1,0,1
EndSplineSet
EndChar

StartChar: Alpha
Encoding: 913 913 53
Width: 770
Flags: W
HStem: 0 31<37.1055 113.96 197.609 252.868 469.14 556.969 664.805 739.86> 231 31<303 542>
LayerCount: 2
Fore
SplineSet
182 117 m 2,0,-1
 535 696 l 2,1,2
 547 716 547 716 563 716 c 0,3,4
 575 716 575 716 578 711.5 c 128,-1,5
 581 707 581 707 583 689 c 2,6,-1
 653 67 l 2,7,8
 655 44 655 44 664.5 37.5 c 128,-1,9
 674 31 674 31 717 31 c 0,10,11
 740 31 740 31 740 18 c 0,12,13
 740 0 740 0 721 0 c 0,14,15
 698 0 698 0 666 2 c 0,16,17
 642 3 642 3 607 3 c 0,18,19
 600 3 600 3 579 2.5 c 128,-1,20
 558 2 558 2 547 2 c 0,21,22
 537 2 537 2 515 1 c 128,-1,23
 493 0 493 0 484 0 c 0,24,25
 469 0 469 0 469 13 c 0,26,27
 469 31 469 31 492 31 c 0,28,29
 564 31 564 31 564 63 c 0,30,31
 564 64 564 64 562.5 77 c 128,-1,32
 561 90 561 90 558.5 111 c 128,-1,33
 556 132 556 132 554 149 c 0,34,35
 553 160 553 160 550 189.5 c 128,-1,36
 547 219 547 219 545 231 c 1,37,-1
 284 231 l 1,38,-1
 205 102 l 2,39,40
 191 79 191 79 191 64 c 0,41,42
 191 36 191 36 238 31 c 1,43,44
 253 31 253 31 253 18 c 0,45,46
 253 0 253 0 234 0 c 0,47,48
 223 0 223 0 185 1.5 c 128,-1,49
 147 3 147 3 136 3 c 0,50,51
 126 3 126 3 93 1.5 c 128,-1,52
 60 0 60 0 51 0 c 0,53,54
 37 0 37 0 37 13 c 0,55,56
 37 29 37 29 49 31 c 0,57,58
 69 33 69 33 80.5 35 c 128,-1,59
 92 37 92 37 111 45 c 128,-1,60
 130 53 130 53 147.5 71 c 128,-1,61
 165 89 165 89 182 117 c 2,0,-1
303 262 m 1,62,-1
 542 262 l 1,63,-1
 505 592 l 1,64,-1
 303 262 l 1,62,-1
EndSplineSet
EndChar

StartChar: Beta
Encoding: 914 914 54
Width: 793
Flags: W
HStem: 0 31<51.1251 142.584 238.003 494.906> 343 25<319 547.355> 652 31<213.61 296.842 394.74 635.016>
VStem: 625 95<141.513 286.017> 681 92<471.35 612.767>
LayerCount: 2
Fore
SplineSet
163 76 m 2,0,-1
 298 615 l 2,1,2
 302 630 302 630 302 635 c 0,3,4
 302 643 302 643 297 645.5 c 128,-1,5
 292 648 292 648 278 650 c 0,6,7
 262 652 262 652 240 652 c 0,8,9
 227 652 227 652 222 652.5 c 128,-1,10
 217 653 217 653 213.5 656 c 128,-1,11
 210 659 210 659 210 665 c 0,12,13
 210 677 210 677 217 680 c 128,-1,14
 224 683 224 683 240 683 c 2,15,-1
 582 683 l 2,16,17
 669 683 669 683 721 643.5 c 128,-1,18
 773 604 773 604 773 544 c 0,19,20
 773 479 773 479 711.5 426.5 c 128,-1,21
 650 374 650 374 562 357 c 1,22,23
 635 349 635 349 677.5 309.5 c 128,-1,24
 720 270 720 270 720 215 c 0,25,26
 720 138 720 138 637.5 69 c 128,-1,27
 555 0 555 0 439 0 c 2,28,-1
 75 0 l 2,29,30
 64 0 64 0 59.5 0.5 c 128,-1,31
 55 1 55 1 51 4 c 128,-1,32
 47 7 47 7 47 13 c 0,33,34
 47 25 47 25 53.5 28 c 128,-1,35
 60 31 60 31 77 31 c 0,36,37
 130 31 130 31 143 39 c 128,-1,38
 156 47 156 47 163 76 c 2,0,-1
319 368 m 1,39,-1
 475 368 l 2,40,41
 558 368 558 368 619.5 424 c 128,-1,42
 681 480 681 480 681 548 c 0,43,44
 681 561 681 561 677.5 575.5 c 128,-1,45
 674 590 674 590 664 609 c 128,-1,46
 654 628 654 628 629 640 c 128,-1,47
 604 652 604 652 568 652 c 2,48,-1
 433 652 l 2,49,50
 402 652 402 652 394.5 646 c 128,-1,51
 387 640 387 640 380 613 c 2,52,-1
 319 368 l 1,39,-1
271 31 m 2,53,-1
 414 31 l 2,54,55
 502 31 502 31 563.5 90 c 128,-1,56
 625 149 625 149 625 225 c 0,57,58
 625 288 625 288 589 315.5 c 128,-1,59
 553 343 553 343 500 343 c 2,60,-1
 312 343 l 1,61,-1
 243 64 l 2,62,63
 238 46 238 46 238 41 c 0,64,65
 238 33 238 33 251 32 c 0,66,67
 255 31 255 31 271 31 c 2,53,-1
EndSplineSet
EndChar

StartChar: Gamma
Encoding: 915 915 55
Width: 687
Flags: W
HStem: 0 31<44.0916 139.584 249.676 355.875> 455 21G<694 704> 649 31<210.125 296.968 396.225 651.967>
VStem: 687 27<458.094 536.609>
LayerCount: 2
Fore
SplineSet
382 609 m 2,0,-1
 248 75 l 2,1,2
 244 60 244 60 244 52 c 0,3,4
 244 42 244 42 249.5 38.5 c 128,-1,5
 255 35 255 35 277 33 c 0,6,7
 301 31 301 31 329 31 c 0,8,9
 342 31 342 31 347 30.5 c 128,-1,10
 352 30 352 30 356 27 c 128,-1,11
 360 24 360 24 360 18 c 0,12,13
 360 0 360 0 339 0 c 0,14,15
 327 0 327 0 301 1 c 128,-1,16
 275 2 275 2 263 2 c 0,17,18
 250 2 250 2 225.5 2.5 c 128,-1,19
 201 3 201 3 192 3 c 0,20,21
 135 3 135 3 127 2 c 0,22,23
 107 0 107 0 59 0 c 0,24,25
 44 0 44 0 44 13 c 0,26,27
 44 25 44 25 50.5 28 c 128,-1,28
 57 31 57 31 74 31 c 0,29,30
 127 31 127 31 140 39 c 128,-1,31
 153 47 153 47 160 76 c 2,32,-1
 293 608 l 2,33,34
 298 626 298 626 298 631 c 128,-1,35
 298 636 298 636 297 638.5 c 128,-1,36
 296 641 296 641 291 643.5 c 128,-1,37
 286 646 286 646 275 647 c 0,38,39
 259 649 259 649 237 649 c 0,40,41
 224 649 224 649 219 649.5 c 128,-1,42
 214 650 214 650 210 653 c 128,-1,43
 206 656 206 656 206 662 c 0,44,45
 206 674 206 674 212.5 677 c 128,-1,46
 219 680 219 680 236 680 c 2,47,-1
 708 680 l 2,48,49
 725 680 725 680 731 678 c 128,-1,50
 737 676 737 676 737 666 c 1,51,-1
 716 480 l 2,52,53
 715 469 715 469 714 465 c 128,-1,54
 713 461 713 461 710 458 c 128,-1,55
 707 455 707 455 701 455 c 0,56,57
 687 455 687 455 687 470 c 0,58,59
 687 475 687 475 689 484 c 1,60,61
 693 530 693 530 693 543 c 0,62,63
 693 603 693 603 664.5 626 c 128,-1,64
 636 649 636 649 555 649 c 2,65,-1
 435 649 l 2,66,67
 403 649 403 649 396 643 c 128,-1,68
 389 637 389 637 382 609 c 2,0,-1
EndSplineSet
EndChar

StartChar: Delta
Encoding: 916 916 56
Width: 856
Flags: W
HStem: 0 75<135 695>
LayerCount: 2
Fore
SplineSet
630 692 m 2,0,-1
 806 26 l 2,1,2
 809 14 809 14 809 11 c 0,3,4
 809 3 809 3 803 1.5 c 128,-1,5
 797 0 797 0 781 0 c 2,6,-1
 74 0 l 2,7,8
 58 0 58 0 54.5 1 c 128,-1,9
 51 2 51 2 51 7 c 0,10,11
 51 11 51 11 60 22 c 2,12,-1
 575 697 l 2,13,14
 589 716 589 716 606 716 c 0,15,16
 618 716 618 716 622 711.5 c 128,-1,17
 626 707 626 707 630 692 c 2,0,-1
551 621 m 1,18,-1
 135 75 l 1,19,-1
 695 75 l 1,20,-1
 551 621 l 1,18,-1
EndSplineSet
EndChar

StartChar: Epsilon
Encoding: 917 917 57
Width: 790
Flags: W
HStem: 0 31<48.1251 139.584 241.003 538.109> 338 31<322 484.46> 455 21G<737 747> 649 31<210.125 296.968 401.77 688.931>
VStem: 492 27.5<221.013 269.486> 554.5 24.5<443.156 485.921> 696 34<203.842 254.387> 730 27<458.094 536.609>
LayerCount: 2
Fore
SplineSet
314 338 m 1,0,-1
 246 64 l 2,1,2
 241 46 241 46 241 41 c 0,3,4
 241 33 241 33 254 32 c 0,5,6
 258 31 258 31 274 31 c 2,7,-1
 427 31 l 2,8,9
 476 31 476 31 513 39.5 c 128,-1,10
 550 48 550 48 575.5 61.5 c 128,-1,11
 601 75 601 75 623 102.5 c 128,-1,12
 645 130 645 130 660 158 c 128,-1,13
 675 186 675 186 696 234 c 0,14,15
 704 251 704 251 707 254.5 c 128,-1,16
 710 258 710 258 716 258 c 0,17,18
 730 258 730 258 730 245 c 0,19,20
 730 237 730 237 633 19 c 0,21,22
 627 6 627 6 623 3 c 0,23,24
 620 0 620 0 600 0 c 2,25,-1
 72 0 l 2,26,27
 61 0 61 0 56.5 0.5 c 128,-1,28
 52 1 52 1 48 4 c 128,-1,29
 44 7 44 7 44 13 c 0,30,31
 44 25 44 25 50.5 28 c 128,-1,32
 57 31 57 31 74 31 c 0,33,34
 127 31 127 31 140 39 c 128,-1,35
 153 47 153 47 160 76 c 2,36,-1
 293 608 l 2,37,38
 298 626 298 626 298 631 c 128,-1,39
 298 636 298 636 297 638.5 c 128,-1,40
 296 641 296 641 291 643.5 c 128,-1,41
 286 646 286 646 275 647 c 0,42,43
 259 649 259 649 237 649 c 0,44,45
 224 649 224 649 219 649.5 c 128,-1,46
 214 650 214 650 210 653 c 128,-1,47
 206 656 206 656 206 662 c 0,48,49
 206 674 206 674 212.5 677 c 128,-1,50
 219 680 219 680 236 680 c 2,51,-1
 751 680 l 2,52,53
 768 680 768 680 774 678 c 128,-1,54
 780 676 780 676 780 666 c 1,55,-1
 759 480 l 2,56,57
 758 469 758 469 757 465 c 128,-1,58
 756 461 756 461 753 458 c 128,-1,59
 750 455 750 455 744 455 c 0,60,61
 730 455 730 455 730 470 c 1,62,-1
 732.5 495 l 2,63,64
 735 520 735 520 735 538 c 0,65,66
 735 601 735 601 704 625 c 128,-1,67
 673 649 673 649 582 649 c 2,68,-1
 435 649 l 2,69,70
 410 649 410 649 401.5 646 c 128,-1,71
 393 643 393 643 389 633 c 0,72,73
 382 615 382 615 322 369 c 1,74,-1
 417 369 l 2,75,76
 480 369 480 369 507 386.5 c 128,-1,77
 534 404 534 404 548 461 c 0,78,79
 552 477 552 477 554.5 481.5 c 128,-1,80
 557 486 557 486 565 486 c 0,81,82
 579 486 579 486 579 473 c 0,83,84
 579 467 579 467 575 453 c 2,85,-1
 522 243 l 2,86,87
 520 235 520 235 519.5 233 c 128,-1,88
 519 231 519 231 517 227 c 128,-1,89
 515 223 515 223 512 222 c 128,-1,90
 509 221 509 221 505 221 c 0,91,92
 492 221 492 221 492 234 c 0,93,94
 492 239 492 239 495 248 c 0,95,96
 502 276 502 276 502 293 c 0,97,98
 502 319 502 319 485 328.5 c 128,-1,99
 468 338 468 338 416 338 c 2,100,-1
 314 338 l 1,0,-1
EndSplineSet
EndChar

StartChar: Zeta
Encoding: 918 918 58
Width: 748
Flags: W
HStem: 0 34<167 462.049> 458 21G<196 208> 652 31<353.109 632>
VStem: 189 27<458.013 503.438>
LayerCount: 2
Fore
SplineSet
725 648 m 2,0,-1
 167 34 l 1,1,-1
 343 34 l 2,2,3
 408 34 408 34 452.5 47.5 c 128,-1,4
 497 61 497 61 526 91 c 128,-1,5
 555 121 555 121 572 154.5 c 128,-1,6
 589 188 589 188 607 243 c 0,7,8
 612 258 612 258 615 262.5 c 128,-1,9
 618 267 618 267 626 267 c 0,10,11
 639 267 639 267 639 254 c 1,12,-1
 637 247 l 1,13,-1
 635 240 l 1,14,-1
 565 20 l 2,15,16
 560 6 560 6 556 3 c 128,-1,17
 552 0 552 0 533 0 c 2,18,-1
 86 0 l 2,19,20
 70 0 70 0 65 1.5 c 128,-1,21
 60 3 60 3 60 11 c 1,22,-1
 64 27 l 1,23,-1
 632 652 l 1,24,-1
 465 652 l 2,25,26
 406 652 406 652 363.5 640 c 128,-1,27
 321 628 321 628 293.5 602 c 128,-1,28
 266 576 266 576 249 545.5 c 128,-1,29
 232 515 232 515 216 468 c 0,30,31
 213 458 213 458 203 458 c 0,32,33
 189 458 189 458 189 471 c 0,34,35
 189 475 189 475 194 490 c 2,36,-1
 247 662 l 2,37,38
 252 677 252 677 256 680 c 128,-1,39
 260 683 260 683 279 683 c 2,40,-1
 712 683 l 2,41,42
 721 683 721 683 724.5 683 c 128,-1,43
 728 683 728 683 732 682 c 128,-1,44
 736 681 736 681 737 679 c 128,-1,45
 738 677 738 677 738 673 c 0,46,47
 738 663 738 663 725 648 c 2,0,-1
EndSplineSet
EndChar

StartChar: Eta
Encoding: 919 919 59
Width: 877
Flags: W
HStem: 0 31<44.0916 139.584 244.032 330.875 443.146 544.356 643.032 729.875> 340 31<322 625> 652.5 30.5<211.125 293.842 401.932 497.928 610.125 692.842 801.448 896.928>
LayerCount: 2
Fore
SplineSet
780 606 m 2,0,-1
 646 73 l 2,1,2
 642 59 642 59 642 49 c 0,3,4
 642 44 642 44 643 41.5 c 128,-1,5
 644 39 644 39 649 36.5 c 128,-1,6
 654 34 654 34 665 33 c 0,7,8
 681 31 681 31 703 31 c 0,9,10
 716 31 716 31 721 30.5 c 128,-1,11
 726 30 726 30 730 27 c 128,-1,12
 734 24 734 24 734 18 c 0,13,14
 734 0 734 0 714 0 c 0,15,16
 689 0 689 0 649 2 c 0,17,18
 619 3 619 3 585 3 c 128,-1,19
 551 3 551 3 521 2 c 0,20,21
 483 0 483 0 458 0 c 0,22,23
 443 0 443 0 443 13 c 0,24,25
 443 31 443 31 467 31 c 0,26,27
 504 31 504 31 522 34.5 c 128,-1,28
 540 38 540 38 544.5 42 c 128,-1,29
 549 46 549 46 553 56 c 0,30,31
 556 63 556 63 586.5 184.5 c 128,-1,32
 617 306 617 306 625 340 c 1,33,-1
 314 340 l 1,34,-1
 248 72 l 2,35,36
 243 54 243 54 243 49 c 128,-1,37
 243 44 243 44 244 41.5 c 128,-1,38
 245 39 245 39 250 36.5 c 128,-1,39
 255 34 255 34 266 33 c 0,40,41
 282 31 282 31 304 31 c 0,42,43
 317 31 317 31 322 30.5 c 128,-1,44
 327 30 327 30 331 27 c 128,-1,45
 335 24 335 24 335 18 c 0,46,47
 335 0 335 0 315 0 c 0,48,49
 290 0 290 0 250 2 c 0,50,51
 220 3 220 3 186 3 c 128,-1,52
 152 3 152 3 122 2 c 0,53,54
 84 0 84 0 59 0 c 0,55,56
 44 0 44 0 44 13 c 0,57,58
 44 25 44 25 50.5 28 c 128,-1,59
 57 31 57 31 74 31 c 0,60,61
 127 31 127 31 140 39 c 128,-1,62
 153 47 153 47 160 76 c 2,63,-1
 295 615 l 2,64,65
 299 630 299 630 299 635 c 0,66,67
 299 642 299 642 294 645 c 128,-1,68
 289 648 289 648 275 650 c 0,69,70
 259 652 259 652 237 652 c 0,71,72
 225 652 225 652 220 652.5 c 128,-1,73
 215 653 215 653 211 656 c 128,-1,74
 207 659 207 659 207 665 c 0,75,76
 207 683 207 683 227 683 c 0,77,78
 252 683 252 683 292 681 c 0,79,80
 322 680 322 680 356 680 c 128,-1,81
 390 680 390 680 420 681 c 2,82,-1
 483 683 l 2,83,84
 498 683 498 683 498 670 c 0,85,86
 498 658 498 658 492 655 c 128,-1,87
 486 652 486 652 471 652 c 0,88,89
 415 652 415 652 401.5 644 c 128,-1,90
 388 636 388 636 381 606 c 2,91,-1
 322 371 l 1,92,-1
 633 371 l 1,93,-1
 694 615 l 2,94,95
 698 631 698 631 698 635 c 0,96,97
 698 642 698 642 693 645 c 128,-1,98
 688 648 688 648 674 650 c 0,99,100
 658 652 658 652 636 652 c 0,101,102
 624 652 624 652 619 652.5 c 128,-1,103
 614 653 614 653 610 656 c 128,-1,104
 606 659 606 659 606 665 c 0,105,106
 606 683 606 683 626 683 c 0,107,108
 651 683 651 683 691 681 c 0,109,110
 721 680 721 680 755 680 c 128,-1,111
 789 680 789 680 819 681 c 2,112,-1
 882 683 l 2,113,114
 897 683 897 683 897 670 c 0,115,116
 897 658 897 658 891 655 c 128,-1,117
 885 652 885 652 870 652 c 0,118,119
 815 652 815 652 801 644 c 128,-1,120
 787 636 787 636 780 606 c 2,0,-1
EndSplineSet
EndChar

StartChar: Theta
Encoding: 920 920 60
Width: 782
Flags: W
HStem: -22 27<251.351 396.688> 305 75<252 558> 680 25<417.801 555.177>
VStem: 50 88<131.208 358.755> 199 28<271.003 304.004> 227 29<380.144 413.981> 577 33<380.607 413.723> 670 88<322.963 550.395>
LayerCount: 2
Fore
SplineSet
758 433 m 0,0,1
 758 348 758 348 719.5 264.5 c 128,-1,2
 681 181 681 181 620 118.5 c 128,-1,3
 559 56 559 56 477.5 17 c 128,-1,4
 396 -22 396 -22 314 -22 c 0,5,6
 199 -22 199 -22 124.5 52 c 128,-1,7
 50 126 50 126 50 247 c 0,8,9
 50 359 50 359 114 465.5 c 128,-1,10
 178 572 178 572 282 638.5 c 128,-1,11
 386 705 386 705 495 705 c 0,12,13
 612 705 612 705 685 628.5 c 128,-1,14
 758 552 758 552 758 433 c 0,0,1
321 5 m 0,15,16
 389 5 389 5 457 47 c 128,-1,17
 525 89 525 89 571 154 c 0,18,19
 612 212 612 212 636 284 c 128,-1,20
 660 356 660 356 665 395 c 128,-1,21
 670 434 670 434 670 464 c 0,22,23
 670 567 670 567 618.5 623.5 c 128,-1,24
 567 680 567 680 489 680 c 0,25,26
 426 680 426 680 357 640 c 128,-1,27
 288 600 288 600 233 521 c 0,28,29
 188 456 188 456 163 370.5 c 128,-1,30
 138 285 138 285 138 218 c 0,31,32
 138 117 138 117 189.5 61 c 128,-1,33
 241 5 241 5 321 5 c 0,15,16
558 305 m 1,34,-1
 233 305 l 1,35,36
 233 304 233 304 227 283 c 1,37,38
 225 271 225 271 213 271 c 0,39,40
 199 271 199 271 199 284 c 0,41,42
 199 288 199 288 212.5 341 c 128,-1,43
 226 394 226 394 227 395 c 0,44,45
 231 414 231 414 242 414 c 0,46,47
 256 414 256 414 256 400 c 1,48,-1
 252 380 l 1,49,-1
 577 380 l 1,50,51
 577 383 577 383 578 389.5 c 128,-1,52
 579 396 579 396 583.5 405 c 128,-1,53
 588 414 588 414 596 414 c 0,54,55
 610 414 610 414 610 400 c 0,56,57
 610 398 610 398 604 373.5 c 128,-1,58
 598 349 598 349 591 322 c 128,-1,59
 584 295 584 295 583 290 c 0,60,61
 578 271 578 271 567 271 c 0,62,63
 553 271 553 271 553 285 c 0,64,65
 553 288 553 288 555.5 296 c 128,-1,66
 558 304 558 304 558 305 c 1,34,-1
EndSplineSet
EndChar

StartChar: Iota
Encoding: 921 921 61
Width: 483
Flags: W
HStem: 2 29<39.1794 139.068 247.642 335.875> 652.5 30.5<206.125 296.369 403.448 502.928>
LayerCount: 2
Fore
SplineSet
381 605 m 2,0,-1
 247 72 l 2,1,2
 243 58 243 58 243 49 c 0,3,4
 243 43 243 43 247.5 39 c 128,-1,5
 252 35 252 35 263 33.5 c 128,-1,6
 274 32 274 32 283 31.5 c 128,-1,7
 292 31 292 31 310 31 c 0,8,9
 322 31 322 31 327 30.5 c 128,-1,10
 332 30 332 30 336 27 c 128,-1,11
 340 24 340 24 340 18 c 0,12,13
 340 0 340 0 320 0 c 0,14,15
 310 0 310 0 288 1 c 128,-1,16
 266 2 266 2 255 2 c 128,-1,17
 244 2 244 2 221 2.5 c 128,-1,18
 198 3 198 3 186 3 c 128,-1,19
 174 3 174 3 151 2.5 c 128,-1,20
 128 2 128 2 117 2 c 128,-1,21
 106 2 106 2 85 1 c 128,-1,22
 64 0 64 0 54 0 c 0,23,24
 39 0 39 0 39 13 c 0,25,26
 39 25 39 25 46 28 c 128,-1,27
 53 31 53 31 72 31 c 0,28,29
 126 31 126 31 139.5 39 c 128,-1,30
 153 47 153 47 160 76 c 2,31,-1
 296 616 l 2,32,33
 298 624 298 624 298 635 c 0,34,35
 298 640 298 640 297 644 c 1,36,37
 277 652 277 652 232 652 c 0,38,39
 220 652 220 652 215 652.5 c 128,-1,40
 210 653 210 653 206 656 c 128,-1,41
 202 659 202 659 202 665 c 0,42,43
 202 683 202 683 222 683 c 0,44,45
 232 683 232 683 254 682 c 128,-1,46
 276 681 276 681 287 681 c 128,-1,47
 298 681 298 681 321 680.5 c 128,-1,48
 344 680 344 680 356 680 c 0,49,50
 358 680 358 680 384 680.5 c 128,-1,51
 410 681 410 681 424 681 c 0,52,53
 434 681 434 681 455.5 682 c 128,-1,54
 477 683 477 683 487 683 c 0,55,56
 503 683 503 683 503 670 c 0,57,58
 503 658 503 658 497 655 c 128,-1,59
 491 652 491 652 474 652 c 0,60,61
 417 652 417 652 403 644 c 128,-1,62
 389 636 389 636 381 605 c 2,0,-1
EndSplineSet
EndChar

StartChar: Kappa
Encoding: 922 922 62
Width: 888
Flags: W
HStem: 0 31<44.0916 139.584 244.032 330.875 506.146 576.045 698.441 758.89> 652.5 30.5<210.61 293.842 401.932 497.928 695.167 736.562 832.79 907.895>
LayerCount: 2
Fore
SplineSet
516 417 m 1,0,-1
 672 73 l 2,1,2
 684 47 684 47 698 39.5 c 128,-1,3
 712 32 712 32 741 31 c 0,4,5
 759 31 759 31 759 18 c 0,6,7
 759 0 759 0 741 0 c 2,8,-1
 692 2 l 2,9,10
 685 3 685 3 641 3 c 0,11,12
 631 3 631 3 610.5 2.5 c 128,-1,13
 590 2 590 2 580 2 c 128,-1,14
 570 2 570 2 551 1 c 128,-1,15
 532 0 532 0 522 0 c 0,16,17
 506 0 506 0 506 13 c 0,18,19
 506 31 506 31 530 31 c 0,20,21
 580 31 580 31 580 61 c 0,22,23
 580 66 580 66 573 84 c 1,24,-1
 445 364 l 1,25,-1
 292 249 l 1,26,27
 243 55 243 55 243 49 c 0,28,29
 243 44 243 44 244 41.5 c 128,-1,30
 245 39 245 39 250 36.5 c 128,-1,31
 255 34 255 34 266 33 c 0,32,33
 282 31 282 31 304 31 c 0,34,35
 317 31 317 31 322 30.5 c 128,-1,36
 327 30 327 30 331 27 c 128,-1,37
 335 24 335 24 335 18 c 0,38,39
 335 0 335 0 315 0 c 0,40,41
 290 0 290 0 250 2 c 0,42,43
 220 3 220 3 186 3 c 128,-1,44
 152 3 152 3 122 2 c 0,45,46
 84 0 84 0 59 0 c 0,47,48
 44 0 44 0 44 13 c 0,49,50
 44 25 44 25 50.5 28 c 128,-1,51
 57 31 57 31 74 31 c 0,52,53
 127 31 127 31 140 39 c 128,-1,54
 153 47 153 47 160 76 c 2,55,-1
 295 615 l 2,56,57
 299 630 299 630 299 635 c 0,58,59
 299 643 299 643 294 645.5 c 128,-1,60
 289 648 289 648 275 650 c 0,61,62
 259 652 259 652 237 652 c 0,63,64
 224 652 224 652 219 652.5 c 128,-1,65
 214 653 214 653 210.5 656 c 128,-1,66
 207 659 207 659 207 665 c 0,67,68
 207 683 207 683 227 683 c 0,69,70
 252 683 252 683 292 681 c 0,71,72
 322 680 322 680 356 680 c 0,73,74
 399 680 399 680 420 681 c 0,75,76
 430 681 430 681 452 682 c 128,-1,77
 474 683 474 683 483 683 c 0,78,79
 498 683 498 683 498 670 c 0,80,81
 498 658 498 658 492 655 c 128,-1,82
 486 652 486 652 471 652 c 0,83,84
 415 652 415 652 401.5 644 c 128,-1,85
 388 636 388 636 381 606 c 2,86,-1
 301 287 l 1,87,-1
 699 585 l 2,88,89
 707 592 707 592 709 594 c 0,90,91
 712 596 712 596 717 601 c 0,92,93
 737 618 737 618 737 634 c 0,94,95
 737 648 737 648 709 652 c 1,96,97
 695 652 695 652 695 665 c 0,98,99
 695 683 695 683 714 683 c 0,100,101
 731 683 731 683 767.5 681.5 c 128,-1,102
 804 680 804 680 822 680 c 0,103,104
 848 680 848 680 864.5 681 c 128,-1,105
 881 682 881 682 887.5 682.5 c 128,-1,106
 894 683 894 683 896 683 c 0,107,108
 908 683 908 683 908 670 c 0,109,110
 908 663 908 663 904.5 658.5 c 128,-1,111
 901 654 901 654 898 653.5 c 128,-1,112
 895 653 895 653 890 652 c 0,113,114
 862 649 862 649 834.5 638 c 128,-1,115
 807 627 807 627 788 615 c 128,-1,116
 769 603 769 603 731 577 c 1,117,-1
 719 570 l 1,118,-1
 516 417 l 1,0,-1
EndSplineSet
EndChar

StartChar: Lambda
Encoding: 923 923 63
Width: 713
Flags: W
HStem: 0 31<42.1575 104.465 185.75 241.868 420.134 500.524 617.256 683.847>
LayerCount: 2
Fore
SplineSet
169 117 m 2,0,-1
 507 694 l 2,1,2
 513 704 513 704 515.5 707.5 c 128,-1,3
 518 711 518 711 523 713.5 c 128,-1,4
 528 716 528 716 535 716 c 0,5,6
 543 716 543 716 547 713 c 128,-1,7
 551 710 551 710 552 706 c 128,-1,8
 553 702 553 702 554 691 c 2,9,-1
 607 67 l 2,10,11
 609 44 609 44 617 37.5 c 128,-1,12
 625 31 625 31 659 31 c 0,13,14
 684 31 684 31 684 18 c 0,15,16
 684 0 684 0 665 0 c 0,17,18
 661 0 661 0 639 1 c 128,-1,19
 617 2 617 2 612 2 c 0,20,21
 600 3 600 3 557 3 c 0,22,23
 546 3 546 3 525 2.5 c 128,-1,24
 504 2 504 2 493 2 c 0,25,26
 484 2 484 2 464 1 c 128,-1,27
 444 0 444 0 435 0 c 0,28,29
 420 0 420 0 420 13 c 0,30,31
 420 31 420 31 442 31 c 0,32,33
 486 32 486 32 501 41.5 c 128,-1,34
 516 51 516 51 516 69 c 0,35,36
 516 70 516 70 515.5 74 c 128,-1,37
 515 78 515 78 515 79 c 2,38,-1
 472 579 l 1,39,-1
 194 105 l 1,40,41
 179 75 179 75 179 66 c 0,42,43
 179 34 179 34 227 31 c 0,44,45
 242 31 242 31 242 18 c 0,46,47
 242 0 242 0 224 0 c 0,48,49
 209 0 209 0 176.5 1.5 c 128,-1,50
 144 3 144 3 128 3 c 0,51,52
 115 3 115 3 88.5 1.5 c 128,-1,53
 62 0 62 0 50 0 c 0,54,55
 37 0 37 0 37 13 c 0,56,57
 37 24 37 24 42 27 c 128,-1,58
 47 30 47 30 57 31 c 0,59,60
 113 36 113 36 153 92 c 0,61,62
 156 97 156 97 162 105.5 c 128,-1,63
 168 114 168 114 169 117 c 2,0,-1
EndSplineSet
EndChar

StartChar: Mu
Encoding: 924 924 64
Width: 1044
Flags: W
HStem: 0 31<48.123 132.451 209.569 282.878 619.092 714.584 810.032 896.875> 652 31<215.125 297.842 968.448 1059.87>
LayerCount: 2
Fore
SplineSet
947 606 m 2,0,-1
 813 73 l 2,1,2
 809 59 809 59 809 49 c 0,3,4
 809 44 809 44 810 41.5 c 128,-1,5
 811 39 811 39 816 36.5 c 128,-1,6
 821 34 821 34 832 33 c 0,7,8
 848 31 848 31 870 31 c 0,9,10
 883 31 883 31 888 30.5 c 128,-1,11
 893 30 893 30 897 27 c 128,-1,12
 901 24 901 24 901 18 c 0,13,14
 901 0 901 0 882 0 c 0,15,16
 873 0 873 0 852 1 c 128,-1,17
 831 2 831 2 821 2 c 0,18,19
 812 2 812 2 796.5 2 c 128,-1,20
 781 2 781 2 769.5 2.5 c 128,-1,21
 758 3 758 3 757 3 c 0,22,23
 712 3 712 3 697 2 c 0,24,25
 673 0 673 0 634 0 c 0,26,27
 619 0 619 0 619 13 c 0,28,29
 619 25 619 25 625.5 28 c 128,-1,30
 632 31 632 31 649 31 c 0,31,32
 702 31 702 31 715 39 c 128,-1,33
 728 47 728 47 735 76 c 2,34,-1
 878 647 l 1,35,-1
 877 647 l 1,36,-1
 470 19 l 2,37,38
 457 0 457 0 446 0 c 0,39,40
 432 0 432 0 429 26 c 2,41,-1
 338 640 l 1,42,-1
 337 640 l 1,43,-1
 202 96 l 2,44,45
 198 77 198 77 198 74 c 0,46,47
 198 32 198 32 263 31 c 0,48,49
 283 31 283 31 283 18 c 0,50,51
 283 0 283 0 265 0 c 0,52,53
 258 0 258 0 239.5 1 c 128,-1,54
 221 2 221 2 213 2 c 0,55,56
 189 3 189 3 162 3 c 0,57,58
 128 3 128 3 112 2 c 0,59,60
 86 0 86 0 62 0 c 0,61,62
 48 0 48 0 48 13 c 0,63,64
 48 31 48 31 65 31 c 0,65,66
 114 33 114 33 138 50 c 128,-1,67
 162 67 162 67 172 106 c 2,68,-1
 299 615 l 2,69,70
 303 630 303 630 303 635 c 0,71,72
 303 642 303 642 298 645 c 128,-1,73
 293 648 293 648 279 650 c 0,74,75
 263 652 263 652 241 652 c 0,76,77
 229 652 229 652 224 652.5 c 128,-1,78
 219 653 219 653 215 656 c 128,-1,79
 211 659 211 659 211 665 c 0,80,81
 211 677 211 677 217.5 680 c 128,-1,82
 224 683 224 683 241 683 c 2,83,-1
 378 683 l 2,84,85
 399 683 399 683 403.5 679.5 c 128,-1,86
 408 676 408 676 411 657 c 2,87,-1
 494 94 l 1,88,-1
 863 664 l 2,89,90
 872 678 872 678 878 680.5 c 128,-1,91
 884 683 884 683 904 683 c 2,92,-1
 1035 683 l 2,93,94
 1047 683 1047 683 1051.5 682.5 c 128,-1,95
 1056 682 1056 682 1060 679 c 128,-1,96
 1064 676 1064 676 1064 670 c 0,97,98
 1064 658 1064 658 1058 655 c 128,-1,99
 1052 652 1052 652 1037 652 c 0,100,101
 982 652 982 652 968 644 c 128,-1,102
 954 636 954 636 947 606 c 2,0,-1
EndSplineSet
EndChar

StartChar: Nu
Encoding: 925 925 65
Width: 877
Flags: W
HStem: 0 31<44.123 129.195 205.569 278.878> 652 31<211.125 303 662.11 735.075 811.508 896.877>
LayerCount: 2
Fore
SplineSet
772 575 m 2,0,-1
 633 21 l 2,1,2
 630 7 630 7 627 3.5 c 128,-1,3
 624 0 624 0 615 0 c 0,4,5
 608 0 608 0 605 3 c 128,-1,6
 602 6 602 6 597 18 c 2,7,-1
 329 623 l 1,8,-1
 198 96 l 2,9,10
 194 77 194 77 194 74 c 0,11,12
 194 32 194 32 259 31 c 0,13,14
 279 31 279 31 279 18 c 0,15,16
 279 0 279 0 261 0 c 0,17,18
 254 0 254 0 235.5 1 c 128,-1,19
 217 2 217 2 209 2 c 0,20,21
 185 3 185 3 158 3 c 0,22,23
 124 3 124 3 108 2 c 0,24,25
 82 0 82 0 58 0 c 0,26,27
 44 0 44 0 44 13 c 0,28,29
 44 31 44 31 61 31 c 0,30,31
 112 33 112 33 135.5 50.5 c 128,-1,32
 159 68 159 68 168 106 c 2,33,-1
 303 646 l 1,34,35
 279 652 279 652 237 652 c 0,36,37
 225 652 225 652 220 652.5 c 128,-1,38
 215 653 215 653 211 656 c 128,-1,39
 207 659 207 659 207 665 c 0,40,41
 207 677 207 677 213.5 680 c 128,-1,42
 220 683 220 683 237 683 c 2,43,-1
 370 683 l 2,44,45
 387 683 387 683 391.5 680 c 128,-1,46
 396 677 396 677 403 663 c 2,47,-1
 632 144 l 1,48,-1
 744 589 l 1,49,-1
 745.5 597.5 l 2,50,51
 747 606 747 606 747 609 c 0,52,53
 747 650 747 650 680 652 c 0,54,55
 662 652 662 652 662 665 c 0,56,57
 662 683 662 683 680 683 c 0,58,59
 687 683 687 683 705.5 682 c 128,-1,60
 724 681 724 681 732 681 c 0,61,62
 756 680 756 680 783 680 c 0,63,64
 794 680 794 680 833 681.5 c 128,-1,65
 872 683 872 683 883 683 c 0,66,67
 897 683 897 683 897 670 c 0,68,69
 897 652 897 652 879 652 c 0,70,71
 825 650 825 650 803 630.5 c 128,-1,72
 781 611 781 611 772 575 c 2,0,-1
EndSplineSet
EndChar

StartChar: Xi
Encoding: 926 926 66
Width: 803
Flags: W
HStem: 0 69<100 619.796> 318 69<268 592> 418 20G<259 270 630.5 640> 608 69<240.234 749>
VStem: 182 31<526.643 572.974> 213 30<267.051 316.625> 583 31<267.134 316.884> 620 27<387.86 437.987>
LayerCount: 2
Fore
SplineSet
791 648 m 1,0,-1
 772 544 l 2,1,2
 768 522 768 522 756 522 c 0,3,4
 742 522 742 522 742 536 c 0,5,6
 742 539 742 539 743 545 c 0,7,8
 749 577 749 577 749 605 c 1,9,10
 724 608 724 608 679 608 c 2,11,-1
 315 608 l 2,12,13
 247 608 247 608 240 603 c 0,14,15
 229 595 229 595 213 544 c 0,16,17
 209 531 209 531 206 526.5 c 128,-1,18
 203 522 203 522 196 522 c 0,19,20
 182 522 182 522 182 535 c 0,21,22
 182 542 182 542 187 554 c 1,23,-1
 220 657 l 2,24,25
 225 671 225 671 229 674 c 128,-1,26
 233 677 233 677 252 677 c 2,27,-1
 764 677 l 2,28,29
 781 677 781 677 787 675 c 128,-1,30
 793 673 793 673 793 663 c 1,31,-1
 791 648 l 1,0,-1
173 69 m 2,32,-1
 539 69 l 2,33,34
 614 69 614 69 620 76 c 1,35,36
 632 94 632 94 650 150 c 0,37,38
 655 166 655 166 665 166 c 0,39,40
 679 166 679 166 679 153 c 0,41,42
 679 149 679 149 660 88.5 c 128,-1,43
 641 28 641 28 636 14 c 0,44,45
 632 4 632 4 628 2 c 128,-1,46
 624 0 624 0 606 0 c 2,47,-1
 84 0 l 2,48,49
 73 0 73 0 68 0.5 c 128,-1,50
 63 1 63 1 59 4 c 128,-1,51
 55 7 55 7 55 13 c 0,52,53
 55 40 55 40 80 145 c 1,54,55
 83 166 83 166 95 166 c 0,56,57
 109 166 109 166 109 152 c 0,58,59
 109 148 109 148 106 133 c 0,60,61
 100 102 100 102 100 73 c 1,62,63
 128 69 128 69 173 69 c 2,32,-1
217 296 m 1,64,-1
 247 416 l 2,65,66
 250 430 250 430 252.5 434 c 128,-1,67
 255 438 255 438 263 438 c 0,68,69
 277 438 277 438 277 424 c 0,70,71
 277 422 277 422 275 415 c 128,-1,72
 273 408 273 408 271 399 c 128,-1,73
 269 390 269 390 268 387 c 1,74,-1
 609 387 l 1,75,76
 615 411 615 411 617 418 c 0,77,78
 619 426 619 426 620 429.5 c 128,-1,79
 621 433 621 433 624.5 435.5 c 128,-1,80
 628 438 628 438 633 438 c 0,81,82
 647 438 647 438 647 425 c 0,83,84
 647 422 647 422 640 392.5 c 128,-1,85
 633 363 633 363 624 328.5 c 128,-1,86
 615 294 615 294 614 289 c 0,87,88
 608 267 608 267 597 267 c 0,89,90
 583 267 583 267 583 281 c 0,91,92
 583 282 583 282 592 318 c 1,93,-1
 251 318 l 1,94,95
 244 288 244 288 243 287 c 0,96,97
 238 267 238 267 227 267 c 0,98,99
 213 267 213 267 213 280 c 0,100,101
 213 288 213 288 217 296 c 1,64,-1
EndSplineSet
EndChar

StartChar: Omicron
Encoding: 927 927 67
Width: 782
Flags: W
HStem: -22 30<251.093 398.413> 677 28<410.729 557.916>
VStem: 50 96<131.601 364.927> 667 91<335.301 550.313>
LayerCount: 2
Fore
SplineSet
758 433 m 0,0,1
 758 348 758 348 719.5 264.5 c 128,-1,2
 681 181 681 181 620 118.5 c 128,-1,3
 559 56 559 56 477.5 17 c 128,-1,4
 396 -22 396 -22 314 -22 c 0,5,6
 199 -22 199 -22 124.5 52 c 128,-1,7
 50 126 50 126 50 247 c 0,8,9
 50 359 50 359 114 465.5 c 128,-1,10
 178 572 178 572 282 638.5 c 128,-1,11
 386 705 386 705 495 705 c 0,12,13
 612 705 612 705 685 628.5 c 128,-1,14
 758 552 758 552 758 433 c 0,0,1
321 8 m 0,15,16
 378 8 378 8 441 42.5 c 128,-1,17
 504 77 504 77 557 147 c 1,18,19
 613 223 613 223 640 315.5 c 128,-1,20
 667 408 667 408 667 471 c 0,21,22
 667 568 667 568 616 622.5 c 128,-1,23
 565 677 565 677 488 677 c 0,24,25
 428 677 428 677 362.5 641.5 c 128,-1,26
 297 606 297 606 246 536 c 0,27,28
 192 461 192 461 169 371 c 128,-1,29
 146 281 146 281 146 222 c 0,30,31
 146 120 146 120 195.5 64 c 128,-1,32
 245 8 245 8 321 8 c 0,15,16
EndSplineSet
EndChar

StartChar: Pi
Encoding: 928 928 68
Width: 876
Flags: W
HStem: 0 31<44.0916 139.584 244.032 330.875 443.092 538.584 643.032 729.875> 649 31<210.125 296.968 392 703 800.417 891.875>
LayerCount: 2
Fore
SplineSet
779 602 m 2,0,-1
 646 73 l 2,1,2
 642 59 642 59 642 49 c 0,3,4
 642 44 642 44 643 41.5 c 128,-1,5
 644 39 644 39 649 36.5 c 128,-1,6
 654 34 654 34 665 33 c 0,7,8
 681 31 681 31 703 31 c 0,9,10
 716 31 716 31 721 30.5 c 128,-1,11
 726 30 726 30 730 27 c 128,-1,12
 734 24 734 24 734 18 c 0,13,14
 734 0 734 0 714 0 c 0,15,16
 689 0 689 0 649 2 c 0,17,18
 619 3 619 3 585 3 c 128,-1,19
 551 3 551 3 521 2 c 0,20,21
 483 0 483 0 458 0 c 0,22,23
 443 0 443 0 443 13 c 0,24,25
 443 25 443 25 449.5 28 c 128,-1,26
 456 31 456 31 473 31 c 0,27,28
 526 31 526 31 539 39 c 128,-1,29
 552 47 552 47 559 76 c 2,30,-1
 703 649 l 1,31,-1
 392 649 l 1,32,-1
 248 72 l 2,33,34
 243 54 243 54 243 49 c 128,-1,35
 243 44 243 44 244 41.5 c 128,-1,36
 245 39 245 39 250 36.5 c 128,-1,37
 255 34 255 34 266 33 c 0,38,39
 282 31 282 31 304 31 c 0,40,41
 317 31 317 31 322 30.5 c 128,-1,42
 327 30 327 30 331 27 c 128,-1,43
 335 24 335 24 335 18 c 0,44,45
 335 0 335 0 315 0 c 0,46,47
 290 0 290 0 250 2 c 0,48,49
 220 3 220 3 186 3 c 128,-1,50
 152 3 152 3 122 2 c 0,51,52
 84 0 84 0 59 0 c 0,53,54
 44 0 44 0 44 13 c 0,55,56
 44 25 44 25 50.5 28 c 128,-1,57
 57 31 57 31 74 31 c 0,58,59
 127 31 127 31 140 39 c 128,-1,60
 153 47 153 47 160 76 c 2,61,-1
 293 608 l 2,62,63
 298 626 298 626 298 631 c 128,-1,64
 298 636 298 636 297 638.5 c 128,-1,65
 296 641 296 641 291 643.5 c 128,-1,66
 286 646 286 646 275 647 c 0,67,68
 259 649 259 649 237 649 c 0,69,70
 224 649 224 649 219 649.5 c 128,-1,71
 214 650 214 650 210 653 c 128,-1,72
 206 656 206 656 206 662 c 0,73,74
 206 674 206 674 212 677 c 128,-1,75
 218 680 218 680 236 680 c 2,76,-1
 868 680 l 2,77,78
 879 680 879 680 883.5 679.5 c 128,-1,79
 888 679 888 679 892 676 c 128,-1,80
 896 673 896 673 896 667 c 0,81,82
 896 655 896 655 889.5 652 c 128,-1,83
 883 649 883 649 869 649 c 0,84,85
 813 649 813 649 800 641 c 128,-1,86
 787 633 787 633 779 602 c 2,0,-1
EndSplineSet
EndChar

StartChar: Rho
Encoding: 929 929 69
Width: 790
Flags: W
HStem: 0 31<45.0916 140.584 245.032 331.875> 314 28<313 548.396> 652 31<211.61 294.842 395.74 622.844>
VStem: 675 95<453.805 602.207>
LayerCount: 2
Fore
SplineSet
309 314 m 1,0,-1
 249 72 l 2,1,2
 244 54 244 54 244 49 c 128,-1,3
 244 44 244 44 245 41.5 c 128,-1,4
 246 39 246 39 251 36.5 c 128,-1,5
 256 34 256 34 267 33 c 0,6,7
 283 31 283 31 305 31 c 0,8,9
 318 31 318 31 323 30.5 c 128,-1,10
 328 30 328 30 332 27 c 128,-1,11
 336 24 336 24 336 18 c 0,12,13
 336 0 336 0 316 0 c 0,14,15
 291 0 291 0 251 2 c 0,16,17
 221 3 221 3 187 3 c 128,-1,18
 153 3 153 3 123 2 c 0,19,20
 85 0 85 0 60 0 c 0,21,22
 45 0 45 0 45 13 c 0,23,24
 45 25 45 25 51.5 28 c 128,-1,25
 58 31 58 31 75 31 c 0,26,27
 128 31 128 31 141 39 c 128,-1,28
 154 47 154 47 161 76 c 2,29,-1
 296 615 l 2,30,31
 300 630 300 630 300 635 c 0,32,33
 300 643 300 643 295 645.5 c 128,-1,34
 290 648 290 648 276 650 c 0,35,36
 260 652 260 652 238 652 c 0,37,38
 225 652 225 652 220 652.5 c 128,-1,39
 215 653 215 653 211.5 656 c 128,-1,40
 208 659 208 659 208 665 c 0,41,42
 208 677 208 677 215 680 c 128,-1,43
 222 683 222 683 238 683 c 2,44,-1
 568 683 l 2,45,46
 662 683 662 683 716 638.5 c 128,-1,47
 770 594 770 594 770 531 c 0,48,49
 770 449 770 449 682 381.5 c 128,-1,50
 594 314 594 314 476 314 c 2,51,-1
 309 314 l 1,0,-1
381 613 m 2,52,-1
 313 342 l 1,53,-1
 458 342 l 2,54,55
 557 342 557 342 612 392 c 0,56,57
 646 423 646 423 660.5 474 c 128,-1,58
 675 525 675 525 675 555 c 0,59,60
 675 652 675 652 535 652 c 2,61,-1
 434 652 l 2,62,63
 403 652 403 652 395.5 646 c 128,-1,64
 388 640 388 640 381 613 c 2,52,-1
EndSplineSet
EndChar

StartChar: Sigma
Encoding: 931 931 70
Width: 833
Flags: W
HStem: 0 42<134 576.473> 458 21G<781 791> 652 31<331 712.661>
VStem: 712 27<207 227> 774 27<461.094 520.747>
LayerCount: 2
Fore
SplineSet
459 326 m 2,0,-1
 134 42 l 1,1,-1
 413 42 l 2,2,3
 550 42 550 42 608 77.5 c 128,-1,4
 666 113 666 113 712 227 c 1,5,-1
 712.672 227.985 l 2,6,7
 717.633 236 717.633 236 726 236 c 0,8,9
 739 236 739 236 739 223 c 1,10,-1
 735 207 l 1,11,-1
 663 19 l 2,12,13
 658 5 658 5 653 2.5 c 128,-1,14
 648 0 648 0 630 0 c 2,15,-1
 89 0 l 2,16,17
 78 0 78 0 73.5 0.5 c 128,-1,18
 69 1 69 1 65 4 c 128,-1,19
 61 7 61 7 61 13 c 128,-1,20
 61 19 61 19 73 30 c 2,21,-1
 387 303 l 1,22,-1
 229 649 l 2,23,24
 223 661 223 661 223 665 c 0,25,26
 223 677 223 677 230 680 c 128,-1,27
 237 683 237 683 254 683 c 2,28,-1
 795 683 l 2,29,30
 806 683 806 683 810.5 682.5 c 128,-1,31
 815 682 815 682 819 679 c 128,-1,32
 823 676 823 676 823 670 c 2,33,-1
 822 653 l 1,34,-1
 803 483 l 2,35,36
 802 473 802 473 801 468.5 c 128,-1,37
 800 464 800 464 797 461 c 128,-1,38
 794 458 794 458 788 458 c 0,39,40
 774 458 774 458 774 474 c 1,41,-1
 775.5 493.5 l 2,42,43
 777 513 777 513 777 521 c 0,44,45
 777 600 777 600 736 626 c 128,-1,46
 695 652 695 652 579 652 c 2,47,-1
 331 652 l 1,48,-1
 464 359 l 2,49,50
 471 345 471 345 471 342 c 0,51,52
 471 337 471 337 459 326 c 2,0,-1
EndSplineSet
EndChar

StartChar: Tau
Encoding: 932 932 71
Width: 732
Flags: W
HStem: 2 29<59.2034 201.098 308.222 432.452> 452 21G<32.5 43 671 684.5> 646 31<159.761 355.999 448.127 646.784>
VStem: 26 24<452.029 485.354> 665 29<452.094 522.577> 674 48<538.911 668>
LayerCount: 2
Fore
SplineSet
439 609 m 2,0,-1
 305 74 l 2,1,2
 301 60 301 60 301 54 c 0,3,4
 301 42 301 42 308 39 c 128,-1,5
 315 36 315 36 336 33 c 1,6,7
 363 31 363 31 400 31 c 0,8,9
 412 31 412 31 416.5 31 c 128,-1,10
 421 31 421 31 426 29.5 c 128,-1,11
 431 28 431 28 432.5 25.5 c 128,-1,12
 434 23 434 23 434 18 c 0,13,14
 434 0 434 0 413 0 c 0,15,16
 410 0 410 0 371.5 1 c 128,-1,17
 333 2 333 2 326 2 c 0,18,19
 289 3 289 3 243 3 c 0,20,21
 229 3 229 3 200.5 2.5 c 128,-1,22
 172 2 172 2 158 2 c 128,-1,23
 144 2 144 2 116.5 1 c 128,-1,24
 89 0 89 0 76 0 c 0,25,26
 59 0 59 0 59 13 c 128,-1,27
 59 26 59 26 66.5 28.5 c 128,-1,28
 74 31 74 31 100 31 c 0,29,30
 152 31 152 31 176 36.5 c 128,-1,31
 200 42 200 42 206.5 50 c 128,-1,32
 213 58 213 58 218 79 c 2,33,-1
 352 614 l 2,34,35
 356 630 356 630 356 635 c 0,36,37
 356 642 356 642 352 644 c 128,-1,38
 348 646 348 646 328 646 c 2,39,-1
 289 646 l 2,40,41
 229 646 229 646 198.5 642 c 128,-1,42
 168 638 168 638 140.5 619.5 c 128,-1,43
 113 601 113 601 96.5 569 c 128,-1,44
 80 537 80 537 58 476 c 0,45,46
 53 461 53 461 50 456.5 c 128,-1,47
 47 452 47 452 39 452 c 0,48,49
 26 452 26 452 26 465 c 0,50,51
 26 468 26 468 30 481 c 2,52,-1
 92 657 l 2,53,54
 97 671 97 671 101.5 674 c 128,-1,55
 106 677 106 677 124 677 c 2,56,-1
 693 677 l 2,57,58
 710 677 710 677 716 675 c 128,-1,59
 722 673 722 673 722 663 c 0,60,61
 722 659 722 659 720 649 c 2,62,-1
 694 476 l 2,63,64
 691 452 691 452 678 452 c 0,65,66
 664 452 664 452 664 466 c 1,67,-1
 665 474 l 1,68,69
 674 533 674 533 674 561 c 0,70,71
 674 617 674 617 645 631.5 c 128,-1,72
 616 646 616 646 525 646 c 0,73,74
 472 646 472 646 464 644 c 0,75,76
 452 642 452 642 448 635.5 c 128,-1,77
 444 629 444 629 439 609 c 2,0,-1
EndSplineSet
EndChar

StartChar: YUpsilon
Encoding: 933 933 72
Width: 762
Flags: W
HStem: 0 31<103.092 200.098 300.032 386.875> 652 31<38.1404 123.357 232.004 311.902 571.11 618.875 701.888 781.895>
LayerCount: 2
Fore
SplineSet
615 565 m 2,0,-1
 364 285 l 1,1,2
 353 274 l 1,3,4
 340 218 340 218 329 178 c 1,5,-1
 312 107 l 1,6,7
 299 58 299 58 299 49 c 0,8,9
 299 44 299 44 300 41.5 c 128,-1,10
 301 39 301 39 306 36.5 c 128,-1,11
 311 34 311 34 322 33 c 0,12,13
 338 31 338 31 360 31 c 0,14,15
 373 31 373 31 378 30.5 c 128,-1,16
 383 30 383 30 387 27 c 128,-1,17
 391 24 391 24 391 18 c 0,18,19
 391 0 391 0 371 0 c 0,20,21
 347 0 347 0 307 2 c 0,22,23
 277 3 277 3 243 3 c 0,24,25
 202 3 202 3 181 2 c 0,26,27
 147 0 147 0 118 0 c 0,28,29
 103 0 103 0 103 13 c 0,30,31
 103 25 103 25 109 28 c 128,-1,32
 115 31 115 31 130 31 c 0,33,34
 188 32 188 32 200.5 40.5 c 128,-1,35
 213 49 213 49 223 90 c 0,36,37
 227 106 227 106 247.5 187.5 c 128,-1,38
 268 269 268 269 268 272 c 128,-1,39
 268 275 268 275 263 288 c 2,40,-1
 133 619 l 2,41,42
 128 633 128 633 123.5 638.5 c 128,-1,43
 119 644 119 644 104.5 648 c 128,-1,44
 90 652 90 652 61 652 c 0,45,46
 38 652 38 652 38 665 c 0,47,48
 38 683 38 683 57 683 c 0,49,50
 80 683 80 683 112 681 c 0,51,52
 136 680 136 680 171 680 c 2,53,-1
 175.5 680 l 2,54,55
 180 680 180 680 187 680 c 128,-1,56
 194 680 194 680 202 680.5 c 128,-1,57
 210 681 210 681 218.5 681 c 128,-1,58
 227 681 227 681 233 681 c 0,59,60
 243 681 243 681 264.5 682 c 128,-1,61
 286 683 286 683 296 683 c 0,62,63
 312 683 312 683 312 670 c 0,64,65
 312 658 312 658 306 655 c 128,-1,66
 300 652 300 652 287 652 c 0,67,68
 230 652 230 652 230 629 c 0,69,70
 230 625 230 625 236 611 c 2,71,-1
 353 314 l 1,72,-1
 591 580 l 1,73,-1
 596 586 l 2,74,75
 601 592 601 592 606 599 c 128,-1,76
 611 606 611 606 615.5 615 c 128,-1,77
 620 624 620 624 620 630 c 0,78,79
 620 649 620 649 588 652 c 1,80,81
 571 652 571 652 571 665 c 0,82,83
 571 683 571 683 589 683 c 0,84,85
 604 683 604 683 637.5 681.5 c 128,-1,86
 671 680 671 680 687 680 c 0,87,88
 701 680 701 680 714.5 680.5 c 128,-1,89
 728 681 728 681 737 681.5 c 128,-1,90
 746 682 746 682 753.5 682 c 128,-1,91
 761 682 761 682 765 682.5 c 2,92,-1
 769 683 l 1,93,94
 782 683 782 683 782 670 c 0,95,96
 782 654 782 654 770 652 c 1,97,98
 742 650 742 650 726 646.5 c 128,-1,99
 710 643 710 643 679.5 623 c 128,-1,100
 649 603 649 603 615 565 c 2,0,-1
EndSplineSet
EndChar

StartChar: Phi
Encoding: 934 934 73
Width: 685
Flags: W
HStem: 0 31<92.1038 220.535 317.676 423.875> 135 25<200.531 249 338 397.684> 523 25<435 482.161> 652 31<256.548 366.325 463.014 590.902>
VStem: 24 93<235.017 381.236> 567 93<298.87 447.687>
LayerCount: 2
Fore
SplineSet
447 598 m 2,0,-1
 435 548 l 1,1,2
 533 540 533 540 596.5 491.5 c 128,-1,3
 660 443 660 443 660 375 c 0,4,5
 660 288 660 288 560.5 216 c 128,-1,6
 461 144 461 144 331 135 c 1,7,8
 312 59 312 59 312 52 c 0,9,10
 312 42 312 42 317.5 38.5 c 128,-1,11
 323 35 323 35 345 33 c 0,12,13
 369 31 369 31 397 31 c 0,14,15
 410 31 410 31 415 30.5 c 128,-1,16
 420 30 420 30 424 27 c 128,-1,17
 428 24 428 24 428 18 c 0,18,19
 428 0 428 0 408 0 c 0,20,21
 397 0 397 0 371.5 1 c 128,-1,22
 346 2 346 2 334 2 c 0,23,24
 321 2 321 2 295.5 2.5 c 128,-1,25
 270 3 270 3 257 3 c 0,26,27
 204 3 204 3 185 2 c 0,28,29
 151 0 151 0 109 0 c 0,30,31
 92 0 92 0 92 13 c 0,32,33
 92 25 92 25 99 28 c 128,-1,34
 106 31 106 31 124 31 c 0,35,36
 174 31 174 31 195.5 36 c 128,-1,37
 217 41 217 41 223.5 49.5 c 128,-1,38
 230 58 230 58 236 83 c 2,39,-1
 249 135 l 1,40,41
 147 143 147 143 85.5 192 c 128,-1,42
 24 241 24 241 24 308 c 0,43,44
 24 394 24 394 122 466 c 128,-1,45
 220 538 220 538 353 548 c 1,46,47
 372 627 372 627 372 631 c 0,48,49
 372 641 372 641 366.5 644.5 c 128,-1,50
 361 648 361 648 341 650 c 0,51,52
 318 652 318 652 289 652 c 0,53,54
 278 652 278 652 273.5 652 c 128,-1,55
 269 652 269 652 263.5 653.5 c 128,-1,56
 258 655 258 655 256.5 657.5 c 128,-1,57
 255 660 255 660 255 665 c 0,58,59
 255 683 255 683 276 683 c 0,60,61
 287 683 287 683 312.5 682 c 128,-1,62
 338 681 338 681 350 681 c 0,63,64
 363 681 363 681 388.5 680.5 c 128,-1,65
 414 680 414 680 427 680 c 0,66,67
 480 680 480 680 499 681 c 0,68,69
 533 683 533 683 575 683 c 0,70,71
 591 683 591 683 591 670 c 128,-1,72
 591 657 591 657 584.5 654.5 c 128,-1,73
 578 652 578 652 555 652 c 0,74,75
 507 652 507 652 486.5 647 c 128,-1,76
 466 642 466 642 459.5 633 c 128,-1,77
 453 624 453 624 447 598 c 2,0,-1
255 160 m 1,78,-1
 346 523 l 1,79,80
 290 517 290 517 246.5 495.5 c 128,-1,81
 203 474 203 474 179.5 447 c 128,-1,82
 156 420 156 420 141 387 c 128,-1,83
 126 354 126 354 121.5 330.5 c 128,-1,84
 117 307 117 307 117 287 c 0,85,86
 117 228 117 228 156 198 c 1,87,88
 190 167 190 167 255 160 c 1,78,-1
428 523 m 1,89,-1
 338 160 l 1,90,91
 400 167 400 167 446 192.5 c 128,-1,92
 492 218 492 218 514.5 246.5 c 128,-1,93
 537 275 537 275 550 310.5 c 128,-1,94
 563 346 563 346 565 364 c 128,-1,95
 567 382 567 382 567 396 c 0,96,97
 567 507 567 507 428 523 c 1,89,-1
EndSplineSet
EndChar

StartChar: Chi
Encoding: 935 935 74
Width: 848
Flags: W
HStem: 2 29<29.3594 114.873 218.908 265.945 477.203 540.668 661.788 748.947> 652 28<206.023 292.783 415.25 477.703 632.031 678.656 784.208 868.545>
VStem: 684 185<614 676.5>
LayerCount: 2
Fore
SplineSet
508 383 m 1,0,-1
 652 62 l 2,1,2
 658 50 658 50 662.5 44.5 c 128,-1,3
 667 39 667 39 682 35 c 128,-1,4
 697 31 697 31 725 31 c 0,5,6
 749 31 749 31 749 18 c 0,7,8
 749 0 749 0 730 0 c 2,9,-1
 675 2 l 2,10,11
 651 3 651 3 616 3 c 0,12,13
 605 3 605 3 585 2.5 c 128,-1,14
 565 2 565 2 555 2 c 128,-1,15
 545 2 545 2 523.5 1 c 128,-1,16
 502 0 502 0 492 0 c 0,17,18
 477 0 477 0 477 13 c 0,19,20
 477 31 477 31 494 31 c 0,21,22
 513 32 513 32 527.5 38.5 c 128,-1,23
 542 45 542 45 547.5 51 c 128,-1,24
 553 57 553 57 553 60 c 128,-1,25
 553 63 553 63 548 73 c 2,26,-1
 440 313 l 1,27,28
 434 306 434 306 388 257 c 2,29,-1
 334 201 l 1,30,-1
 257 122 l 2,31,32
 231 94 231 94 222.5 82.5 c 128,-1,33
 214 71 214 71 214 60 c 0,34,35
 214 36 214 36 252 31 c 1,36,37
 266 31 266 31 266 18 c 0,38,39
 266 0 266 0 246 0 c 0,40,41
 238 0 238 0 219.5 1 c 128,-1,42
 201 2 201 2 192 2 c 128,-1,43
 183 2 183 2 164.5 2.5 c 128,-1,44
 146 3 146 3 137 3 c 0,45,46
 98 3 98 3 89 2 c 0,47,48
 86 2 86 2 66 1 c 128,-1,49
 46 0 46 0 43 0 c 0,50,51
 29 0 29 0 29 13 c 0,52,53
 29 29 29 29 52 31 c 0,54,55
 92 34 92 34 125.5 50 c 128,-1,56
 159 66 159 66 178 82.5 c 128,-1,57
 197 99 197 99 236 138 c 0,58,59
 242 144 242 144 260 164 c 128,-1,60
 278 184 278 184 284 189 c 0,61,62
 301 206 301 206 364.5 272.5 c 128,-1,63
 428 339 428 339 428 341 c 0,64,65
 428 342 428 342 425 348 c 2,66,-1
 422 354 l 1,67,-1
 303 621 l 2,68,69
 297 633 297 633 292.5 638.5 c 128,-1,70
 288 644 288 644 273 648 c 128,-1,71
 258 652 258 652 230 652 c 0,72,73
 206 652 206 652 206 665 c 0,74,75
 206 683 206 683 225 683 c 2,76,-1
 280 681 l 2,77,78
 304 680 304 680 339 680 c 0,79,80
 350 680 350 680 370 680.5 c 128,-1,81
 390 681 390 681 400 681 c 128,-1,82
 410 681 410 681 431.5 682 c 128,-1,83
 453 683 453 683 463 683 c 0,84,85
 478 683 478 683 478 670 c 0,86,87
 478 652 478 652 461 652 c 0,88,89
 442 651 442 651 427.5 644.5 c 128,-1,90
 413 638 413 638 407.5 632 c 128,-1,91
 402 626 402 626 402 623 c 128,-1,92
 402 620 402 620 407 610 c 2,93,-1
 496 410 l 1,94,-1
 660 581 l 2,95,96
 684 605 684 605 684 623 c 0,97,98
 684 647 684 647 646 652 c 1,99,100
 632 652 632 652 632 665 c 0,101,102
 632 683 632 683 651 683 c 0,103,104
 659 683 659 683 678 682 c 128,-1,105
 697 681 697 681 706 681 c 128,-1,106
 715 681 715 681 733.5 680.5 c 128,-1,107
 752 680 752 680 761 680 c 0,108,109
 800 680 800 680 809 681 c 0,110,111
 812 681 812 681 832 682 c 128,-1,112
 852 683 852 683 855 683 c 0,113,114
 869 683 869 683 869 670 c 0,115,116
 869 654 869 654 846 652 c 0,117,118
 806 649 806 649 772.5 633 c 128,-1,119
 739 617 739 617 718.5 599.5 c 128,-1,120
 698 582 698 582 660 543 c 1,121,122
 640 521 640 521 615 496 c 0,123,124
 611 492 611 492 567 444.5 c 128,-1,125
 523 397 523 397 508 383 c 1,0,-1
EndSplineSet
EndChar

StartChar: Psi
Encoding: 936 936 75
Width: 701
Flags: W
HStem: 0 31<70.1038 197.962 295.676 401.875> 136 26<201.475 227> 530 23<28.0156 56.4714 683.342 706.875> 652 31<234.548 344.325 450.512 568.902>
VStem: 57 77<224.064 443.838> 77 81<339.278 520.982>
LayerCount: 2
Fore
SplineSet
427 604 m 2,0,-1
 316 163 l 1,1,2
 467 197 467 197 522 406 c 0,3,4
 546 496 546 496 578 525.5 c 128,-1,5
 610 555 610 555 654 555 c 2,6,-1
 683 555 l 2,7,8
 694 555 694 555 698.5 554.5 c 128,-1,9
 703 554 703 554 707 551 c 128,-1,10
 711 548 711 548 711 542 c 0,11,12
 711 532 711 532 695 530 c 0,13,14
 636 522 636 522 603 403 c 0,15,16
 571 286 571 286 501 220 c 0,17,18
 422 146 422 146 309 135 c 1,19,20
 290 59 290 59 290 52 c 0,21,22
 290 42 290 42 295.5 38.5 c 128,-1,23
 301 35 301 35 323 33 c 0,24,25
 347 31 347 31 375 31 c 0,26,27
 388 31 388 31 393 30.5 c 128,-1,28
 398 30 398 30 402 27 c 128,-1,29
 406 24 406 24 406 18 c 0,30,31
 406 0 406 0 386 0 c 0,32,33
 375 0 375 0 349.5 1 c 128,-1,34
 324 2 324 2 312 2 c 0,35,36
 299 2 299 2 273.5 2.5 c 128,-1,37
 248 3 248 3 235 3 c 0,38,39
 182 3 182 3 163 2 c 0,40,41
 129 0 129 0 87 0 c 0,42,43
 70 0 70 0 70 13 c 0,44,45
 70 25 70 25 77 28 c 128,-1,46
 84 31 84 31 102 31 c 0,47,48
 153 31 153 31 174 36 c 128,-1,49
 195 41 195 41 201.5 50 c 128,-1,50
 208 59 208 59 215 86 c 2,51,-1
 227 136 l 1,52,53
 57 159 57 159 57 322 c 0,54,55
 57 363 57 363 69 415 c 0,56,57
 77 448 77 448 77 473 c 0,58,59
 77 503 77 503 69 515.5 c 128,-1,60
 61 528 61 528 44 530 c 1,61,62
 28 533 28 533 28 542 c 128,-1,63
 28 551 28 551 34 553 c 128,-1,64
 40 555 40 555 57 555 c 2,65,-1
 85 555 l 2,66,67
 99 555 99 555 108 553.5 c 128,-1,68
 117 552 117 552 130.5 545 c 128,-1,69
 144 538 144 538 151 520 c 128,-1,70
 158 502 158 502 158 473 c 0,71,72
 158 443 158 443 147 396 c 1,73,74
 134 346 134 346 134 304 c 0,75,76
 134 184 134 184 234 162 c 1,77,-1
 347 612 l 2,78,79
 350 621 350 621 350 631 c 128,-1,80
 350 641 350 641 344.5 644.5 c 128,-1,81
 339 648 339 648 319 650 c 0,82,83
 296 652 296 652 267 652 c 0,84,85
 256 652 256 652 251.5 652 c 128,-1,86
 247 652 247 652 241.5 653.5 c 128,-1,87
 236 655 236 655 234.5 657.5 c 128,-1,88
 233 660 233 660 233 665 c 0,89,90
 233 683 233 683 254 683 c 0,91,92
 265 683 265 683 290.5 682 c 128,-1,93
 316 681 316 681 328 681 c 0,94,95
 341 681 341 681 366.5 680.5 c 128,-1,96
 392 680 392 680 405 680 c 0,97,98
 458 680 458 680 477 681 c 0,99,100
 511 683 511 683 553 683 c 0,101,102
 569 683 569 683 569 670 c 128,-1,103
 569 657 569 657 562 654.5 c 128,-1,104
 555 652 555 652 532 652 c 0,105,106
 466 652 466 652 450 643.5 c 128,-1,107
 434 635 434 635 427 604 c 2,0,-1
EndSplineSet
EndChar

StartChar: Omega
Encoding: 937 937 76
Width: 824
Flags: W
HStem: 0 64<116.167 255.553 519 657.357> 680 25<467.259 612.438>
VStem: 83 28<70.2307 160.998> 164 95<289.172 487.862> 256 29<64.1997 150.484> 708 96<420.467 586.775> 708 24<152 160.921>
LayerCount: 2
Fore
SplineSet
519 64 m 1,0,-1
 597 64 l 2,1,2
 625 64 625 64 639 66 c 128,-1,3
 653 68 653 68 657.5 71 c 128,-1,4
 662 74 662 74 667 82 c 0,5,6
 680 102 680 102 701 144 c 0,7,8
 704 150 704 150 705 152 c 128,-1,9
 706 154 706 154 708 157 c 128,-1,10
 710 160 710 160 712.5 160.5 c 128,-1,11
 715 161 715 161 718 161 c 0,12,13
 732 161 732 161 732 148 c 0,14,15
 732 145 732 145 667 15 c 0,16,17
 661 4 661 4 656.5 2 c 128,-1,18
 652 0 652 0 635 0 c 2,19,-1
 502 0 l 2,20,21
 491 0 491 0 486.5 0.5 c 128,-1,22
 482 1 482 1 478 4 c 128,-1,23
 474 7 474 7 474 13 c 0,24,25
 474 40 474 40 510 111 c 0,26,27
 527 145 527 145 582 232 c 1,28,29
 625 298 625 298 645.5 332.5 c 128,-1,30
 666 367 666 367 687 422 c 128,-1,31
 708 477 708 477 708 522 c 0,32,33
 708 598 708 598 660 639 c 128,-1,34
 612 680 612 680 543 680 c 0,35,36
 505 680 505 680 466 667.5 c 128,-1,37
 427 655 427 655 389.5 628.5 c 128,-1,38
 352 602 352 602 323 565.5 c 128,-1,39
 294 529 294 529 276.5 476.5 c 128,-1,40
 259 424 259 424 259 364 c 0,41,42
 259 313 259 313 271 244 c 1,43,44
 285 144 285 144 285 104 c 0,45,46
 285 69 285 69 279 36 c 0,47,48
 275 10 275 10 270 5 c 128,-1,49
 265 0 265 0 245 0 c 2,50,-1
 112 0 l 2,51,52
 91 0 91 0 87 4 c 128,-1,53
 83 8 83 8 83 30 c 2,54,-1
 83 131 l 2,55,56
 83 148 83 148 85 154.5 c 128,-1,57
 87 161 87 161 97 161 c 128,-1,58
 107 161 107 161 109 155 c 128,-1,59
 111 149 111 149 111 133 c 0,60,61
 111 77 111 77 116 70 c 0,62,63
 121 64 121 64 170 64 c 2,64,-1
 256 64 l 1,65,66
 256 103 256 103 246.5 136 c 128,-1,67
 237 169 237 169 213 224 c 0,68,69
 196 264 196 264 187.5 285 c 128,-1,70
 179 306 179 306 171.5 338 c 128,-1,71
 164 370 164 370 164 399 c 0,72,73
 164 484 164 484 220.5 555.5 c 128,-1,74
 277 627 277 627 363.5 666 c 128,-1,75
 450 705 450 705 543 705 c 0,76,77
 662 705 662 705 733 645.5 c 128,-1,78
 804 586 804 586 804 500 c 0,79,80
 804 453 804 453 777 399 c 128,-1,81
 750 345 750 345 721 310 c 128,-1,82
 692 275 692 275 645 225 c 1,83,84
 550 127 550 127 519 64 c 1,0,-1
EndSplineSet
EndChar

StartChar: alpha
Encoding: 945 945 77
Width: 658
Flags: W
HStem: -11 25<164.604 290.531 506.647 555.416> 417 25<262.965 360.494>
VStem: 43 77<69.4749 243.75> 418.5 72.5<102.607 163.684 179 346.658> 591 26<347.328 392.997>
LayerCount: 2
Fore
SplineSet
491 235 m 2,0,-1
 491 179 l 1,1,2
 556 266 556 266 587 374 c 0,3,4
 590 384 590 384 591 386.5 c 128,-1,5
 592 389 592 389 595 391 c 128,-1,6
 598 393 598 393 604 393 c 0,7,8
 617 393 617 393 617 382 c 0,9,10
 617 378 617 378 612 360.5 c 128,-1,11
 607 343 607 343 596 313 c 128,-1,12
 585 283 585 283 571 256 c 0,13,14
 543 201 543 201 501 149 c 0,15,16
 492 138 492 138 492 123 c 0,17,18
 492 14 492 14 524 14 c 0,19,20
 539 14 539 14 555 26 c 128,-1,21
 571 38 571 38 579 58 c 1,22,23
 583 71 583 71 594 71 c 0,24,25
 608 71 608 71 608 60 c 0,26,27
 608 42 608 42 582.5 15.5 c 128,-1,28
 557 -11 557 -11 521 -11 c 128,-1,29
 485 -11 485 -11 460.5 11.5 c 128,-1,30
 436 34 436 34 426 73 c 1,31,32
 317 -11 317 -11 210 -11 c 0,33,34
 137 -11 137 -11 90 36 c 128,-1,35
 43 83 43 83 43 160 c 0,36,37
 43 267 43 267 128 354.5 c 128,-1,38
 213 442 213 442 316 442 c 0,39,40
 388 442 388 442 439.5 390.5 c 128,-1,41
 491 339 491 339 491 235 c 2,0,-1
421 102 m 1,42,43
 419 121 419 121 418.5 194 c 128,-1,44
 418 267 418 267 414 297 c 0,45,46
 396 417 396 417 316 417 c 0,47,48
 276 417 276 417 238.5 390.5 c 128,-1,49
 201 364 201 364 179 329 c 0,50,51
 152 285 152 285 136 223 c 128,-1,52
 120 161 120 161 120 123 c 0,53,54
 120 70 120 70 145 42 c 128,-1,55
 170 14 170 14 213 14 c 0,56,57
 316 14 316 14 421 102 c 1,42,43
EndSplineSet
EndChar

StartChar: beta
Encoding: 946 946 78
Width: 606
Flags: W
HStem: -194 21G<41.5 50> -11 26<207.817 331.651> 369 25<306.294 398.884> 406 25<306.415 399.504> 681 25<375.81 485.292>
VStem: 478 67<155.061 341.709> 526 60<496.423 645.28>
LayerCount: 2
Fore
SplineSet
586 572 m 0,0,1
 586 519 586 519 550 470 c 128,-1,2
 514 421 514 421 472 400 c 1,3,4
 506 379 506 379 525.5 337 c 128,-1,5
 545 295 545 295 545 248 c 0,6,7
 545 147 545 147 470 75 c 0,8,9
 381 -11 381 -11 265 -11 c 0,10,11
 164 -11 164 -11 127 84 c 1,12,-1
 58 -189 l 2,13,14
 56 -194 56 -194 44 -194 c 0,15,16
 39 -194 39 -194 34.5 -190.5 c 128,-1,17
 30 -187 30 -187 31 -183 c 2,18,-1
 188 446 l 1,19,20
 239 626 239 626 358 687 c 0,21,22
 393 706 393 706 432 706 c 0,23,24
 507 706 507 706 546.5 667 c 128,-1,25
 586 628 586 628 586 572 c 0,0,1
400 401 m 1,26,27
 384 406 384 406 350 406 c 0,28,29
 318 406 318 406 306 399 c 1,30,31
 320 394 320 394 350 394 c 0,32,33
 372 394 372 394 400 401 c 1,26,27
526 589 m 0,34,35
 526 637 526 637 499.5 659 c 128,-1,36
 473 681 473 681 433 681 c 0,37,38
 392 681 392 681 354.5 657 c 128,-1,39
 317 633 317 633 290.5 595 c 128,-1,40
 264 557 264 557 246 519 c 128,-1,41
 228 481 228 481 218 446 c 1,42,-1
 150 173 l 2,43,44
 147 162 147 162 147 141 c 0,45,46
 147 85 147 85 179 50 c 128,-1,47
 211 15 211 15 266 15 c 0,48,49
 348 15 348 15 411 83 c 0,50,51
 478 156 478 156 478 276 c 0,52,53
 478 353 478 353 435 383 c 1,54,55
 381 369 381 369 346 369 c 0,56,57
 276 369 276 369 276 397 c 0,58,59
 276 431 276 431 358 431 c 0,60,61
 404 431 404 431 437 419 c 1,62,63
 475 437 475 437 500.5 488.5 c 128,-1,64
 526 540 526 540 526 589 c 0,34,35
EndSplineSet
EndChar

StartChar: gamma
Encoding: 947 947 79
Width: 575
Flags: W
HStem: 368 74<136.357 285.732> 411 20G<537.5 548.5>
VStem: 18 28<249.003 289.156> 308 32<-213.934 -153.333> 370 28<132 236.136>
LayerCount: 2
Fore
SplineSet
398 132 m 1,0,1
 442 247 442 247 461 285 c 1,2,3
 502 377 502 377 529 425 c 0,4,5
 533 431 533 431 542 431 c 0,6,7
 555 431 555 431 555 420 c 0,8,9
 555 416 555 416 538 384 c 0,10,11
 497 303 497 303 462 217.5 c 128,-1,12
 427 132 427 132 411 86 c 128,-1,13
 395 40 395 40 394 32 c 0,14,15
 379 -70 379 -70 355 -155 c 0,16,17
 347 -183 347 -183 340 -197.5 c 128,-1,18
 333 -212 333 -212 330 -214 c 128,-1,19
 327 -216 327 -216 322 -216 c 0,20,21
 308 -216 308 -216 308 -194 c 0,22,23
 308 -155 308 -155 361 24 c 1,24,25
 370 49 370 49 370 112 c 0,26,27
 370 135 370 135 368.5 154 c 128,-1,28
 367 173 367 173 362.5 206 c 128,-1,29
 358 239 358 239 347 264.5 c 128,-1,30
 336 290 336 290 319 315 c 128,-1,31
 302 340 302 340 272 354 c 128,-1,32
 242 368 242 368 204 368 c 0,33,34
 188 368 188 368 169 363.5 c 128,-1,35
 150 359 150 359 125.5 348.5 c 128,-1,36
 101 338 101 338 79 315 c 128,-1,37
 57 292 57 292 46 259 c 0,38,39
 42 249 42 249 32 249 c 0,40,41
 18 249 18 249 18 260 c 0,42,43
 18 274 18 274 32 302.5 c 128,-1,44
 46 331 46 331 69.5 363 c 128,-1,45
 93 395 93 395 133 418.5 c 128,-1,46
 173 442 173 442 217 442 c 0,47,48
 304 442 304 442 350 343 c 1,49,50
 393 248 393 248 398 132 c 1,0,1
EndSplineSet
EndChar

StartChar: delta
Encoding: 948 948 80
Width: 481
Flags: W
HStem: -12 25<160.511 248.175> 625 76<371.156 449.65> 677 35<249.181 348.696>
VStem: 43 66<67.2596 246.504> 205 31<586.548 663.415> 337 74<155.642 342.898>
LayerCount: 2
Fore
SplineSet
268 436 m 1,0,1
 205 548 205 548 205 609 c 0,2,3
 205 624 205 624 209.5 639 c 128,-1,4
 214 654 214 654 225 672 c 128,-1,5
 236 690 236 690 260.5 701 c 128,-1,6
 285 712 285 712 320 712 c 0,7,8
 352 712 352 712 401 701 c 0,9,10
 439 693 439 693 450 687.5 c 128,-1,11
 461 682 461 682 461 666 c 128,-1,12
 461 650 461 650 449 637.5 c 128,-1,13
 437 625 437 625 421 625 c 0,14,15
 408 625 408 625 363 651 c 1,16,17
 324 677 324 677 291 677 c 0,18,19
 263 677 263 677 249.5 663 c 128,-1,20
 236 649 236 649 236 633 c 0,21,22
 236 589 236 589 336 466 c 0,23,24
 358 439 358 439 370.5 420.5 c 128,-1,25
 383 402 383 402 397 363 c 128,-1,26
 411 324 411 324 411 282 c 0,27,28
 411 171 411 171 351.5 79.5 c 128,-1,29
 292 -12 292 -12 208 -12 c 0,30,31
 139 -12 139 -12 91 33.5 c 128,-1,32
 43 79 43 79 43 159 c 0,33,34
 43 255 43 255 111.5 336 c 128,-1,35
 180 417 180 417 268 436 c 1,0,1
282 412 m 1,36,37
 234 399 234 399 197.5 362 c 128,-1,38
 161 325 161 325 143 280 c 128,-1,39
 125 235 125 235 117 197.5 c 128,-1,40
 109 160 109 160 109 131 c 0,41,42
 109 70 109 70 138.5 41.5 c 128,-1,43
 168 13 168 13 207 13 c 0,44,45
 248 13 248 13 279.5 55.5 c 128,-1,46
 311 98 311 98 324 148 c 128,-1,47
 337 198 337 198 337 241 c 0,48,49
 337 315 337 315 282 412 c 1,36,37
EndSplineSet
EndChar

StartChar: varepsilon
Encoding: 949 949 81
Width: 477
Flags: W
HStem: -22 50<96.8548 298.653> 211 25<182.582 284.322> 248 25<182.714 284.425> 403 50<190.844 377.871>
VStem: 28 28<72.3555 156.641> 77 28<274.025 345.444>
LayerCount: 2
Fore
SplineSet
144 225 m 1,0,1
 105 206 105 206 80.5 173 c 128,-1,2
 56 140 56 140 56 112 c 0,3,4
 56 99 56 99 60.5 87.5 c 128,-1,5
 65 76 65 76 79 61 c 128,-1,6
 93 46 93 46 125.5 37 c 128,-1,7
 158 28 158 28 206 28 c 0,8,9
 328 28 328 28 361 80 c 0,10,11
 370 95 370 95 376 95 c 0,12,13
 388 95 388 95 388 83 c 128,-1,14
 388 71 388 71 369.5 48 c 128,-1,15
 351 25 351 25 303.5 1.5 c 128,-1,16
 256 -22 256 -22 195 -22 c 0,17,18
 122 -22 122 -22 75 14 c 128,-1,19
 28 50 28 50 28 106 c 0,20,21
 28 150 28 150 56 185.5 c 128,-1,22
 84 221 84 221 117 240 c 1,23,24
 77 267 77 267 77 309 c 0,25,26
 77 364 77 364 146 408.5 c 128,-1,27
 215 453 215 453 306 453 c 0,28,29
 354 453 354 453 388 436 c 0,30,31
 438 412 438 412 438 394 c 0,32,33
 438 382 438 382 428.5 374 c 128,-1,34
 419 366 419 366 410 366 c 0,35,36
 402 366 402 366 391 373 c 0,37,38
 349 403 349 403 295 403 c 0,39,40
 220 403 220 403 162.5 376.5 c 128,-1,41
 105 350 105 350 105 309 c 0,42,43
 105 275 105 275 145 254 c 1,44,45
 190 273 190 273 241 273 c 0,46,47
 315 273 315 273 315 244 c 0,48,49
 315 211 315 211 232 211 c 0,50,51
 180 211 180 211 144 225 c 1,0,1
182 240 m 1,52,53
 199 236 199 236 232 236 c 0,54,55
 268 236 268 236 285 243 c 1,56,57
 260 248 260 248 240 248 c 0,58,59
 210 248 210 248 182 240 c 1,52,53
EndSplineSet
EndChar

StartChar: zeta
Encoding: 950 950 82
Width: 503
Flags: W
HStem: -205 25<235.673 316.776> 555 25<356.55 450.953> 592 25<356.367 451.109> 677 20G<312.5 329>
VStem: 47 59<106.253 298.527> 303 28<607.35 695.73> 340 56<-152.768 -70.8817>
LayerCount: 2
Fore
SplineSet
328 574 m 1,0,1
 245 526 245 526 175.5 415.5 c 128,-1,2
 106 305 106 305 106 196 c 0,3,4
 106 156 106 156 116.5 128 c 128,-1,5
 127 100 127 100 150.5 83 c 128,-1,6
 174 66 174 66 191 58.5 c 128,-1,7
 208 51 208 51 241 40 c 0,8,9
 252 36 252 36 272 29.5 c 128,-1,10
 292 23 292 23 306.5 18.5 c 128,-1,11
 321 14 321 14 324 13 c 0,12,13
 396 -14 396 -14 396 -84 c 0,14,15
 396 -129 396 -129 363.5 -167 c 128,-1,16
 331 -205 331 -205 286 -205 c 0,17,18
 251 -205 251 -205 218 -186.5 c 128,-1,19
 185 -168 185 -168 185 -157 c 0,20,21
 185 -145 185 -145 197 -145 c 0,22,23
 203 -145 203 -145 210 -151 c 0,24,25
 247 -180 247 -180 286 -180 c 0,26,27
 309 -180 309 -180 324.5 -159.5 c 128,-1,28
 340 -139 340 -139 340 -116 c 0,29,30
 340 -99 340 -99 334 -87.5 c 128,-1,31
 328 -76 328 -76 313.5 -67.5 c 128,-1,32
 299 -59 299 -59 287.5 -54.5 c 128,-1,33
 276 -50 276 -50 252 -42 c 0,34,35
 172 -17 172 -17 144 -4 c 128,-1,36
 116 9 116 9 91 36 c 0,37,38
 47 85 47 85 47 168 c 0,39,40
 47 296 47 296 129 418.5 c 128,-1,41
 211 541 211 541 313 596 c 1,42,43
 303 616 303 616 303 645 c 0,44,45
 303 697 303 697 322 697 c 0,46,47
 336 697 336 697 336 684 c 0,48,49
 336 683 336 683 333.5 670.5 c 128,-1,50
 331 658 331 658 331 644 c 0,51,52
 331 621 331 621 337 607 c 1,53,54
 363 617 363 617 401 617 c 0,55,56
 483 617 483 617 483 588 c 0,57,58
 483 555 483 555 391 555 c 0,59,60
 348 555 348 555 328 574 c 1,0,1
356 586 m 1,61,62
 367 580 367 580 392 580 c 0,63,64
 431 580 431 580 452 587 c 1,65,66
 428 592 428 592 400 592 c 0,67,68
 370 592 370 592 356 586 c 1,61,62
EndSplineSet
EndChar

StartChar: eta
Encoding: 951 951 83
Width: 531
Flags: W
HStem: -11 21G<106.5 126> 417 25<105.216 157.753 329.217 424.492>
VStem: 29 25<276.047 320.979> 165 55<261.826 323.508> 443 68<233.859 404.465>
LayerCount: 2
Fore
SplineSet
503 276 m 2,0,-1
 390 -175 l 2,1,2
 380 -216 380 -216 348 -216 c 0,3,4
 334 -216 334 -216 325.5 -208 c 128,-1,5
 317 -200 317 -200 317 -187 c 0,6,7
 317 -179 317 -179 321 -165 c 2,8,-1
 434 283 l 1,9,10
 443 323 443 323 443 347 c 0,11,12
 443 417 443 417 389 417 c 0,13,14
 329 417 329 417 283 374 c 0,15,16
 267 358 267 358 251.5 337 c 128,-1,17
 236 316 236 316 229 303 c 128,-1,18
 222 290 222 290 220 285 c 1,19,20
 220 282 220 282 214.5 260.5 c 128,-1,21
 209 239 209 239 201 207.5 c 128,-1,22
 193 176 193 176 189 157 c 2,23,-1
 166 68 l 2,24,25
 153 16 153 16 150 10 c 0,26,27
 138 -11 138 -11 114 -11 c 0,28,29
 99 -11 99 -11 91 -2 c 128,-1,30
 83 7 83 7 83 18 c 0,31,32
 83 23 83 23 90 47 c 1,33,-1
 130 211 l 2,34,35
 132 216 132 216 135.5 230.5 c 128,-1,36
 139 245 139 245 143.5 263.5 c 128,-1,37
 148 282 148 282 151 292 c 0,38,39
 165 353 165 353 165 370 c 0,40,41
 165 417 165 417 135 417 c 0,42,43
 110 417 110 417 93 389.5 c 128,-1,44
 76 362 76 362 61 301 c 0,45,46
 57 285 57 285 54 280.5 c 128,-1,47
 51 276 51 276 43 276 c 0,48,49
 29 276 29 276 29 288 c 0,50,51
 29 291 29 291 33 306.5 c 128,-1,52
 37 322 37 322 44.5 345 c 128,-1,53
 52 368 52 368 60 384 c 0,54,55
 90 442 90 442 137 442 c 0,56,57
 175 442 175 442 202.5 418.5 c 128,-1,58
 230 395 230 395 234 355 c 1,59,60
 300 442 300 442 392 442 c 0,61,62
 441 442 441 442 476 417 c 128,-1,63
 511 392 511 392 511 332 c 0,64,65
 511 307 511 307 503 276 c 2,0,-1
EndSplineSet
EndChar

StartChar: theta
Encoding: 952 952 84
Width: 486
Flags: W
HStem: -11 25<137.796 204.171> 331 32<150 357> 680 25<302.68 369.762>
VStem: 41 70<72.4434 288.55> 397 69<404.965 621.498>
CounterMasks: 1 e0
LayerCount: 2
Fore
SplineSet
466 495 m 0,0,1
 466 385 466 385 422.5 266.5 c 128,-1,2
 379 148 379 148 308 68.5 c 128,-1,3
 237 -11 237 -11 167 -11 c 0,4,5
 130 -11 130 -11 103.5 11 c 128,-1,6
 77 33 77 33 64.5 67.5 c 128,-1,7
 52 102 52 102 46.5 134.5 c 128,-1,8
 41 167 41 167 41 198 c 0,9,10
 41 308 41 308 84.5 426.5 c 128,-1,11
 128 545 128 545 199 625 c 128,-1,12
 270 705 270 705 340 705 c 0,13,14
 404 705 404 705 435 643.5 c 128,-1,15
 466 582 466 582 466 495 c 0,0,1
150 363 m 1,16,-1
 366 363 l 1,17,18
 397 493 397 493 397 556 c 0,19,20
 397 680 397 680 339 680 c 0,21,22
 290 680 290 680 232 584 c 0,23,24
 187 508 187 508 150 363 c 1,16,-1
357 331 m 1,25,-1
 142 331 l 1,26,27
 111 201 111 201 111 139 c 0,28,29
 111 14 111 14 168 14 c 0,30,31
 222 14 222 14 282 122 c 0,32,33
 322 193 322 193 357 331 c 1,25,-1
EndSplineSet
EndChar

StartChar: iota
Encoding: 953 953 85
Width: 363
Flags: W
HStem: -11 25<129.26 199.695> 422 20G<178.5 199.5>
VStem: 56 64<15.1726 126.977> 153 71<327.781 433.234> 306 27<112.312 154.988>
LayerCount: 2
Fore
SplineSet
333 143 m 0,0,1
 333 122 333 122 311 87 c 128,-1,2
 289 52 289 52 243 20.5 c 128,-1,3
 197 -11 197 -11 144 -11 c 0,4,5
 104 -11 104 -11 80 13 c 128,-1,6
 56 37 56 37 56 73 c 0,7,8
 56 93 56 93 72 136 c 128,-1,9
 88 179 88 179 90 188 c 0,10,11
 102 224 102 224 103 229 c 0,12,13
 104 232 104 232 115 271 c 128,-1,14
 126 310 126 310 130 322 c 0,15,16
 132 330 132 330 140.5 365.5 c 128,-1,17
 149 401 149 401 153 412 c 0,18,19
 164 442 164 442 193 442 c 0,20,21
 206 442 206 442 215 433.5 c 128,-1,22
 224 425 224 425 224 413 c 0,23,24
 224 409 224 409 213 365 c 128,-1,25
 202 321 202 321 180.5 247 c 128,-1,26
 159 173 159 173 137 114 c 0,27,28
 120 69 120 69 120 46 c 0,29,30
 120 31 120 31 125 23.5 c 128,-1,31
 130 16 130 16 134.5 15 c 128,-1,32
 139 14 139 14 146 14 c 0,33,34
 186 14 186 14 235 45 c 128,-1,35
 284 76 284 76 306 144 c 1,36,37
 308 155 308 155 320 155 c 0,38,39
 333 155 333 155 333 143 c 0,0,1
EndSplineSet
EndChar

StartChar: kappa
Encoding: 954 954 86
Width: 592
Flags: W
HStem: -11 25<422.086 477.996> 341 90<441.799 512.75> 422 20G<176 199.5>
VStem: 55 67<-1.71826 61.8333> 347 67<23.9198 144.656> 354 72<90.4385 190.163> 432 93<353.038 395.938> 538 24<114.288 154.973>
LayerCount: 2
Fore
SplineSet
224 413 m 1,0,-1
 187 261 l 1,1,2
 217 271 217 271 240.5 287 c 128,-1,3
 264 303 264 303 314 344 c 0,4,5
 349 372 349 372 367.5 385.5 c 128,-1,6
 386 399 386 399 420.5 415 c 128,-1,7
 455 431 455 431 484 431 c 0,8,9
 502 431 502 431 512.5 422 c 128,-1,10
 523 413 523 413 524 407 c 128,-1,11
 525 401 525 401 525 395 c 0,12,13
 525 376 525 376 509 358.5 c 128,-1,14
 493 341 493 341 470 341 c 0,15,16
 451 341 451 341 441.5 352 c 128,-1,17
 432 363 432 363 432 377 c 0,18,19
 432 380 432 380 433 384.5 c 128,-1,20
 434 389 434 389 435 392.5 c 2,21,-1
 436 396 l 1,22,23
 398 380 398 380 326 323 c 1,24,25
 262 271 262 271 231 254 c 1,26,27
 317 248 317 248 355 234 c 0,28,29
 426 209 426 209 426 148 c 0,30,31
 426 132 426 132 421 115 c 1,32,-1
 419.5 106.5 l 2,33,34
 418 98 418 98 416 85.5 c 128,-1,35
 414 73 414 73 414 62 c 0,36,37
 414 14 414 14 446 14 c 0,38,39
 501 14 501 14 531 132 c 0,40,41
 535 146 535 146 538 150.5 c 128,-1,42
 541 155 541 155 549 155 c 0,43,44
 562 155 562 155 562 143 c 0,45,46
 562 140 562 140 558 124 c 128,-1,47
 554 108 554 108 544 83 c 128,-1,48
 534 58 534 58 523 41 c 0,49,50
 491 -11 491 -11 443 -11 c 0,51,52
 402 -11 402 -11 374.5 17.5 c 128,-1,53
 347 46 347 46 347 90 c 0,54,55
 347 104 347 104 351 122 c 0,56,57
 354 134 354 134 354 145 c 0,58,59
 354 193 354 193 287 214 c 0,60,61
 245 227 245 227 178 229 c 1,62,63
 127 19 127 19 122 10 c 0,64,65
 110 -11 110 -11 86 -11 c 0,66,67
 71 -11 71 -11 63 -2 c 128,-1,68
 55 7 55 7 55 18 c 0,69,70
 55 20 55 20 58 35 c 2,71,-1
 151 403 l 1,72,73
 159 442 159 442 193 442 c 0,74,75
 206 442 206 442 215 433.5 c 128,-1,76
 224 425 224 425 224 413 c 1,0,-1
EndSplineSet
EndChar

StartChar: lambda
Encoding: 955 955 87
Width: 599
Flags: W
HStem: -13 21G<80 93 516.5 558> 669 25<175.021 217.783>
LayerCount: 2
Fore
SplineSet
366 289 m 1,0,-1
 119 6 l 1,1,2
 100 -13 100 -13 86 -13 c 0,3,4
 74 -13 74 -13 64 -5 c 128,-1,5
 54 3 54 3 54 18 c 0,6,7
 54 32 54 32 72 50 c 2,8,-1
 354 322 l 1,9,-1
 251 599 l 2,10,11
 242 622 242 622 236 633.5 c 128,-1,12
 230 645 230 645 219 656 c 128,-1,13
 208 667 208 667 194 669 c 0,14,15
 175 671 175 671 175 681 c 0,16,17
 175 694 175 694 197 694 c 0,18,19
 296 694 296 694 322 626 c 2,20,-1
 535 54 l 2,21,22
 545 25 545 25 558 11 c 0,23,24
 564 5 564 5 564 0 c 0,25,26
 564 -9 564 -9 552 -11 c 1,27,-1
 529 -11 l 2,28,29
 504 -11 504 -11 494.5 -7 c 128,-1,30
 485 -3 485 -3 471 15 c 0,31,32
 467 21 467 21 454.5 54.5 c 128,-1,33
 442 88 442 88 415.5 158.5 c 128,-1,34
 389 229 389 229 366 289 c 1,0,-1
EndSplineSet
EndChar

StartChar: mu
Encoding: 956 956 88
Width: 619
Flags: W
HStem: -11 25<210.482 306.981 460.472 513.517> 422 20G<203 226.5 494.5 509.5>
VStem: 464.5 68.5<323.219 421.718> 559 30<86.722 154.921>
LayerCount: 2
Fore
SplineSet
237 357 m 1,0,-1
 195 189 l 2,1,2
 181 130 181 130 181 102 c 0,3,4
 181 14 181 14 256 14 c 0,5,6
 279 14 279 14 301.5 23.5 c 128,-1,7
 324 33 324 33 339 46.5 c 128,-1,8
 354 60 354 60 365.5 75 c 128,-1,9
 377 90 377 90 382.5 99.5 c 128,-1,10
 388 109 388 109 389 111 c 0,11,12
 396 137 396 137 435 293 c 2,13,-1
 456 376 l 2,14,15
 461 394 461 394 464.5 403.5 c 128,-1,16
 468 413 468 413 477.5 422 c 128,-1,17
 487 431 487 431 502 431 c 128,-1,18
 517 431 517 431 525 422 c 128,-1,19
 533 413 533 413 533 402 c 0,20,21
 533 400 533 400 530 387.5 c 128,-1,22
 527 375 527 375 522 355.5 c 128,-1,23
 517 336 517 336 515 326 c 2,24,-1
 492 237 l 1,25,-1
 467 134 l 2,26,27
 453 80 453 80 453 60 c 0,28,29
 453 14 453 14 484 14 c 0,30,31
 508 14 508 14 525.5 40.5 c 128,-1,32
 543 67 543 67 559 131 c 0,33,34
 562 147 562 147 565 151 c 128,-1,35
 568 155 568 155 576 155 c 0,36,37
 589 155 589 155 589 143 c 0,38,39
 589 140 589 140 585 123.5 c 128,-1,40
 581 107 581 107 573 83 c 128,-1,41
 565 59 565 59 557 44 c 0,42,43
 528 -11 528 -11 481 -11 c 0,44,45
 451 -11 451 -11 423.5 7 c 128,-1,46
 396 25 396 25 388 61 c 1,47,48
 327 -11 327 -11 252 -11 c 0,49,50
 190 -11 190 -11 153 19 c 1,51,-1
 105 -171 l 1,52,53
 96 -216 96 -216 62 -216 c 0,54,55
 48 -216 48 -216 39.5 -208 c 128,-1,56
 31 -200 31 -200 31 -187 c 0,57,58
 31 -179 31 -179 35 -165 c 2,59,-1
 178 403 l 1,60,61
 186 442 186 442 220 442 c 0,62,63
 233 442 233 442 242 433.5 c 128,-1,64
 251 425 251 425 251 413 c 0,65,66
 251 407 251 407 237 357 c 1,0,-1
EndSplineSet
EndChar

StartChar: nu
Encoding: 957 957 89
Width: 557
Flags: W
HStem: 0 21G<62 141> 400 42<74.1251 142.451>
VStem: 144 84<360.868 433.25>
LayerCount: 2
Fore
SplineSet
224 408 m 2,0,-1
 130 36 l 1,1,2
 238 71 238 71 329.5 164.5 c 128,-1,3
 421 258 421 258 463 401 c 0,4,5
 475 442 475 442 506 442 c 0,6,7
 519 442 519 442 528 433.5 c 128,-1,8
 537 425 537 425 537 413 c 0,9,10
 537 407 537 407 532 388.5 c 128,-1,11
 527 370 527 370 511.5 334 c 128,-1,12
 496 298 496 298 475 264 c 0,13,14
 409 161 409 161 303 90 c 128,-1,15
 197 19 197 19 85 0 c 1,16,-1
 71 0 l 2,17,18
 53 0 53 0 53 13 c 1,19,-1
 62 52 l 1,20,-1
 102 210 l 2,21,22
 124 296 124 296 127 311 c 0,23,24
 144 379 144 379 144 384 c 0,25,26
 144 390 144 390 142.5 392.5 c 128,-1,27
 141 395 141 395 130 397.5 c 128,-1,28
 119 400 119 400 97 400 c 0,29,30
 87 400 87 400 82.5 400.5 c 128,-1,31
 78 401 78 401 74 404 c 128,-1,32
 70 407 70 407 70 413 c 0,33,34
 70 429 70 429 91 432 c 1,35,36
 201 442 201 442 213 442 c 0,37,38
 228 442 228 442 228 428 c 0,39,40
 228 422 228 422 224 408 c 2,0,-1
EndSplineSet
EndChar

StartChar: xi
Encoding: 958 958 90
Width: 474
Flags: W
HStem: -205 25<227.021 314.96> 285 25<247.42 352.747> 322 25<247.467 352.675> 555 25<324.468 420.088> 592 25<324.58 421> 677 20G<283.5 300>
VStem: 23 55<78.6627 182.553> 103 83<349.645 492.067> 274 28<612.296 695.73> 332 59<-159.431 -95.1108> 353 33<311.872 320.89> 421 33<583.045 589.844>
LayerCount: 2
Fore
SplineSet
199 298 m 1,0,1
 141 267 141 267 109.5 217.5 c 128,-1,2
 78 168 78 168 78 132 c 0,3,4
 78 111 78 111 86 95.5 c 128,-1,5
 94 80 94 80 115 67 c 128,-1,6
 136 54 136 54 152 47 c 128,-1,7
 168 40 168 40 205 26 c 0,8,9
 214 22 214 22 249.5 9 c 128,-1,10
 285 -4 285 -4 316 -16 c 128,-1,11
 347 -28 347 -28 350 -29 c 0,12,13
 391 -53 391 -53 391 -97 c 0,14,15
 391 -135 391 -135 361 -170 c 128,-1,16
 331 -205 331 -205 285 -205 c 0,17,18
 247 -205 247 -205 209 -187 c 128,-1,19
 171 -169 171 -169 171 -157 c 0,20,21
 171 -152 171 -152 174.5 -148.5 c 128,-1,22
 178 -145 178 -145 183 -145 c 128,-1,23
 188 -145 188 -145 198 -152 c 0,24,25
 240 -180 240 -180 285 -180 c 0,26,27
 306 -180 306 -180 319 -163.5 c 128,-1,28
 332 -147 332 -147 332 -129 c 0,29,30
 332 -116 332 -116 325.5 -107.5 c 128,-1,31
 319 -99 319 -99 313 -96 c 128,-1,32
 307 -93 307 -93 294 -88 c 0,33,34
 275 -80 275 -80 248 -71 c 1,35,36
 213 -57 213 -57 141 -31 c 0,37,38
 121 -23 121 -23 108.5 -16.5 c 128,-1,39
 96 -10 96 -10 72.5 6.5 c 128,-1,40
 49 23 49 23 36 48 c 128,-1,41
 23 73 23 73 23 104 c 0,42,43
 23 119 23 119 29 140.5 c 128,-1,44
 35 162 35 162 49 192 c 128,-1,45
 63 222 63 222 94 255 c 128,-1,46
 125 288 125 288 167 313 c 1,47,48
 103 350 103 350 103 419 c 0,49,50
 103 474 103 474 146.5 527.5 c 128,-1,51
 190 581 190 581 280 606 c 1,52,53
 274 622 274 622 274 645 c 0,54,55
 274 697 274 697 293 697 c 0,56,57
 307 697 307 697 307 684 c 0,58,59
 307 683 307 683 304.5 670.5 c 128,-1,60
 302 658 302 658 302 644 c 0,61,62
 302 623 302 623 306 612 c 1,63,64
 333 617 333 617 368 617 c 0,65,66
 388 617 388 617 400 616.5 c 128,-1,67
 412 616 412 616 426 613.5 c 128,-1,68
 440 611 440 611 447 604.5 c 128,-1,69
 454 598 454 598 454 588 c 0,70,71
 454 555 454 555 362 555 c 0,72,73
 316 555 316 555 296 577 c 1,74,75
 251 556 251 556 218.5 509.5 c 128,-1,76
 186 463 186 463 186 412 c 0,77,78
 186 362 186 362 216 334 c 1,79,80
 254 347 254 347 302 347 c 0,81,82
 344 347 344 347 365 341.5 c 128,-1,83
 386 336 386 336 386 318 c 0,84,85
 386 285 386 285 291 285 c 0,86,87
 238 285 238 285 199 298 c 1,0,1
421 586 m 1,88,-1
 421 587 l 1,89,90
 398 592 398 592 370 592 c 0,91,92
 341 592 341 592 324 587 c 1,93,94
 335 580 335 580 363 580 c 0,95,96
 400 580 400 580 421 586 c 1,88,-1
247 316 m 1,97,98
 264 310 264 310 294 310 c 0,99,100
 353 310 353 310 353 317 c 0,101,102
 353 322 353 322 301 322 c 0,103,104
 270 322 270 322 247 316 c 1,97,98
EndSplineSet
EndChar

StartChar: omicron
Encoding: 959 959 91
Width: 502
Flags: W
HStem: -11 25<164.845 260.332> 417 25<262.769 360.849>
VStem: 43 77<70.0006 243.75> 405 77<189.833 361.189>
LayerCount: 2
Fore
SplineSet
482 271 m 0,0,1
 482 164 482 164 397 76.5 c 128,-1,2
 312 -11 312 -11 209 -11 c 0,3,4
 138 -11 138 -11 90.5 36 c 128,-1,5
 43 83 43 83 43 160 c 0,6,7
 43 267 43 267 128 354.5 c 128,-1,8
 213 442 213 442 316 442 c 0,9,10
 389 442 389 442 435.5 394 c 128,-1,11
 482 346 482 346 482 271 c 0,0,1
210 14 m 0,12,13
 248 14 248 14 286.5 40.5 c 128,-1,14
 325 67 325 67 349 109 c 0,15,16
 375 153 375 153 390 213 c 128,-1,17
 405 273 405 273 405 308 c 0,18,19
 405 363 405 363 379 390 c 128,-1,20
 353 417 353 417 315 417 c 128,-1,21
 277 417 277 417 239.5 391 c 128,-1,22
 202 365 202 365 179 329 c 0,23,24
 152 285 152 285 136 223 c 128,-1,25
 120 161 120 161 120 123 c 0,26,27
 120 66 120 66 147 40 c 128,-1,28
 174 14 174 14 210 14 c 0,12,13
EndSplineSet
EndChar

StartChar: pi
Encoding: 960 960 92
Width: 593
Flags: W
HStem: -11 21G<131.5 151.5 386.5 402> 369 62<122.25 244 273 387 412.016 580.532>
VStem: 108 67.5<-1.71826 70.3032> 346 53<76.806 281.083> 355 82<-0.167358 93.5801>
LayerCount: 2
Fore
SplineSet
273 369 m 1,0,-1
 205 106 l 2,1,2
 187 36 187 36 175.5 12.5 c 128,-1,3
 164 -11 164 -11 139 -11 c 0,4,5
 124 -11 124 -11 116 -2 c 128,-1,6
 108 7 108 7 108 18 c 0,7,8
 108 27 108 27 125 61 c 1,9,10
 205 233 205 233 244 369 c 1,11,-1
 187 369 l 2,12,13
 106 369 106 369 57 295 c 0,14,15
 50 283 50 283 41 283 c 0,16,17
 27 283 27 283 27 294 c 0,18,19
 27 301 27 301 49 333 c 128,-1,20
 71 365 71 365 90 384 c 0,21,22
 137 431 137 431 196 431 c 2,23,-1
 542 431 l 2,24,25
 555 431 555 431 562 430 c 128,-1,26
 569 429 569 429 576 423 c 128,-1,27
 583 417 583 417 583 405 c 0,28,29
 583 369 583 369 533 369 c 2,30,-1
 416 369 l 1,31,32
 399 289 399 289 399 220 c 0,33,34
 399 123 399 123 430 53 c 0,35,36
 437 38 437 38 437 30 c 0,37,38
 437 13 437 13 423.5 1 c 128,-1,39
 410 -11 410 -11 394 -11 c 0,40,41
 379 -11 379 -11 371 -0.5 c 128,-1,42
 363 10 363 10 355 39 c 0,43,44
 346 75 346 75 346 119 c 0,45,46
 346 197 346 197 387 369 c 1,47,-1
 273 369 l 1,0,-1
EndSplineSet
EndChar

StartChar: rho
Encoding: 961 961 93
Width: 536
Flags: W
HStem: -11 25<219.094 307.109> 417 25<325.749 407.835>
VStem: 31 69<-207.749 -104.844> 441 75<196.299 368.376>
LayerCount: 2
Fore
SplineSet
35 -165 m 2,0,-1
 132 220 l 2,1,2
 156 314 156 314 226 378 c 128,-1,3
 296 442 296 442 370 442 c 0,4,5
 434 442 434 442 475 396 c 128,-1,6
 516 350 516 350 516 277 c 0,7,8
 516 169 516 169 436 79 c 128,-1,9
 356 -11 356 -11 264 -11 c 0,10,11
 195 -11 195 -11 163 53 c 1,12,13
 155 26 155 26 142 -25 c 0,14,15
 140 -32 140 -32 129.5 -74 c 128,-1,16
 119 -116 119 -116 110 -152.5 c 128,-1,17
 101 -189 101 -189 100 -191 c 0,18,19
 87 -216 87 -216 62 -216 c 0,20,21
 48 -216 48 -216 39.5 -208 c 128,-1,22
 31 -200 31 -200 31 -187 c 0,23,24
 31 -179 31 -179 35 -165 c 2,0,-1
263 14 m 0,25,26
 295 14 295 14 326.5 38.5 c 128,-1,27
 358 63 358 63 378 96 c 0,28,29
 407 144 407 144 424 214.5 c 128,-1,30
 441 285 441 285 441 319 c 0,31,32
 441 362 441 362 422 389.5 c 128,-1,33
 403 417 403 417 369 417 c 0,34,35
 356 417 356 417 339.5 411 c 128,-1,36
 323 405 323 405 296.5 387.5 c 128,-1,37
 270 370 270 370 245 326 c 128,-1,38
 220 282 220 282 203 217 c 1,39,40
 174 116 174 116 174 102 c 0,41,42
 174 97 174 97 178 84.5 c 128,-1,43
 182 72 182 72 191 55.5 c 128,-1,44
 200 39 200 39 219 26.5 c 128,-1,45
 238 14 238 14 263 14 c 0,25,26
EndSplineSet
EndChar

StartChar: sigmafinal
Encoding: 962 962 94
Width: 429
Flags: W
HStem: -108 36<172.027 233.344> -108 25<180.818 263.161> 392 42.5<340.789 418.789> 417 25<229.677 368.123>
VStem: 33 55<183.867 298.032> 279 59<-63.2617 7.21667>
LayerCount: 2
Fore
SplineSet
338 2 m 0,0,1
 338 -40 338 -40 307.5 -74 c 128,-1,2
 277 -108 277 -108 234 -108 c 0,3,4
 216 -108 216 -108 193 -101.5 c 128,-1,5
 170 -95 170 -95 170 -84 c 0,6,7
 170 -72 170 -72 183 -72 c 0,8,9
 186 -72 186 -72 194 -75 c 0,10,11
 213 -83 213 -83 234 -83 c 128,-1,12
 255 -83 255 -83 267 -66 c 128,-1,13
 279 -49 279 -49 279 -32 c 0,14,15
 279 -12 279 -12 268.5 -1.5 c 128,-1,16
 258 9 258 9 231 23 c 2,17,-1
 134 75 l 2,18,19
 115 86 115 86 103.5 93.5 c 128,-1,20
 92 101 92 101 72.5 118.5 c 128,-1,21
 53 136 53 136 43 160.5 c 128,-1,22
 33 185 33 185 33 215 c 0,23,24
 33 302 33 302 116.5 372 c 128,-1,25
 200 442 200 442 314 442 c 0,26,27
 350 442 350 442 384.5 434.5 c 128,-1,28
 419 427 419 427 419 411 c 0,29,30
 419 404 419 404 414 398 c 128,-1,31
 409 392 409 392 401 392 c 0,32,33
 399 392 399 392 390 395 c 1,34,35
 345 417 345 417 308 417 c 0,36,37
 223 417 223 417 155.5 365 c 128,-1,38
 88 313 88 313 88 247 c 0,39,40
 88 187 88 187 147 154 c 1,41,-1
 280 83 l 1,42,43
 338 54 338 54 338 2 c 0,0,1
EndSplineSet
EndChar

StartChar: sigma
Encoding: 963 963 95
Width: 592
Flags: W
HStem: -11 25<150.258 247.587> 369 62<211.254 356.668 422 579.532>
VStem: 39 66<62.4795 232.729> 384 68<164.742 341.987>
LayerCount: 2
Fore
SplineSet
532 369 m 2,0,-1
 422 369 l 1,1,2
 452 319 452 319 452 262 c 0,3,4
 452 152 452 152 371 70.5 c 128,-1,5
 290 -11 290 -11 195 -11 c 0,6,7
 129 -11 129 -11 84 32.5 c 128,-1,8
 39 76 39 76 39 149 c 0,9,10
 39 212 39 212 73.5 277 c 128,-1,11
 108 342 108 342 171 386.5 c 128,-1,12
 234 431 234 431 306 431 c 2,13,-1
 541 431 l 2,14,15
 554 431 554 431 561 430 c 128,-1,16
 568 429 568 429 575 423 c 128,-1,17
 582 417 582 417 582 405 c 0,18,19
 582 369 582 369 532 369 c 2,0,-1
196 14 m 0,20,21
 230 14 230 14 265.5 35.5 c 128,-1,22
 301 57 301 57 326 93 c 0,23,24
 356 135 356 135 370 189 c 128,-1,25
 384 243 384 243 384 273 c 0,26,27
 384 324 384 324 357.5 346.5 c 128,-1,28
 331 369 331 369 289 369 c 0,29,30
 238 369 238 369 199.5 341 c 128,-1,31
 161 313 161 313 142 270.5 c 128,-1,32
 123 228 123 228 114 190 c 128,-1,33
 105 152 105 152 105 122 c 0,34,35
 105 64 105 64 133 39 c 128,-1,36
 161 14 161 14 196 14 c 0,20,21
EndSplineSet
EndChar

StartChar: tau
Encoding: 964 964 96
Width: 536
Flags: W
HStem: -12 21G<179.5 212> 369 62<122.25 271 303 523.532>
VStem: 164 74<-6.25098 67.4>
LayerCount: 2
Fore
SplineSet
303 369 m 1,0,-1
 238 31 l 2,1,2
 229 -12 229 -12 195 -12 c 0,3,4
 164 -12 164 -12 164 16 c 0,5,6
 164 23 164 23 169 38 c 2,7,-1
 271 369 l 1,8,-1
 187 369 l 2,9,10
 106 369 106 369 57 295 c 0,11,12
 50 283 50 283 41 283 c 0,13,14
 27 283 27 283 27 294 c 0,15,16
 27 301 27 301 49 333 c 128,-1,17
 71 365 71 365 90 384 c 0,18,19
 137 431 137 431 196 431 c 2,20,-1
 485 431 l 2,21,22
 498 431 498 431 505 430 c 128,-1,23
 512 429 512 429 519 423 c 128,-1,24
 526 417 526 417 526 405 c 0,25,26
 526 369 526 369 476 369 c 2,27,-1
 303 369 l 1,0,-1
EndSplineSet
EndChar

StartChar: upsilon
Encoding: 965 965 97
Width: 556
Flags: W
HStem: -11 25<225.226 336.096> 417 25<125.518 181.997>
VStem: 115 69<46.8929 215.152> 186 65<301.572 415.675> 493 45<243.179 385>
LayerCount: 2
Fore
SplineSet
538 369 m 0,0,1
 538 328 538 328 518.5 251 c 128,-1,2
 499 174 499 174 461 113 c 0,3,4
 382 -11 382 -11 281 -11 c 0,5,6
 206 -11 206 -11 163 21 c 1,7,8
 115 55 115 55 115 124 c 0,9,10
 115 142 115 142 117 155.5 c 128,-1,11
 119 169 119 169 132.5 211 c 128,-1,12
 146 253 146 253 173 325 c 0,13,14
 186 360 186 360 186 384 c 0,15,16
 186 417 186 417 162 417 c 0,17,18
 131 417 131 417 103 383.5 c 128,-1,19
 75 350 75 350 59 295 c 1,20,21
 49.23 277.465 49.23 277.465 43 276 c 1,22,23
 29 276 29 276 29 288 c 0,24,25
 29 295 29 295 37 317.5 c 128,-1,26
 45 340 45 340 60.5 369 c 128,-1,27
 76 398 76 398 104 420 c 128,-1,28
 132 442 132 442 165 442 c 0,29,30
 202 442 202 442 226.5 418.5 c 128,-1,31
 251 395 251 395 251 358 c 0,32,33
 251 340 251 340 237 302 c 0,34,35
 184 167 184 167 184 112 c 0,36,37
 184 98 184 98 186 87 c 128,-1,38
 188 76 188 76 196 56.5 c 128,-1,39
 204 37 204 37 226.5 25.5 c 128,-1,40
 249 14 249 14 284 14 c 0,41,42
 341 14 341 14 392 68 c 128,-1,43
 443 122 443 122 468 183 c 128,-1,44
 493 244 493 244 493 281 c 0,45,46
 493 331 493 331 457 364 c 0,47,48
 441 378 441 378 441 393 c 0,49,50
 441 410 441 410 457.5 426.5 c 128,-1,51
 474 443 474 443 492 443 c 0,52,53
 500 443 500 443 508.5 440 c 128,-1,54
 517 437 517 437 527.5 419 c 128,-1,55
 538 401 538 401 538 369 c 0,0,1
EndSplineSet
EndChar

StartChar: varphi
Encoding: 966 966 98
Width: 671
Flags: W
HStem: -11 62<286 420.944> -2 59<173.621 228> 380 62<439.285 570.075> 411 20G<151 165.5>
VStem: 51 29<145.771 272.919> 170 73<-209.749 -116.227> 603 31<211.991 338.411>
LayerCount: 2
Fore
SplineSet
274 -9 m 1,0,1
 251 -146 251 -146 243 -181 c 0,2,3
 235 -218 235 -218 201 -218 c 0,4,5
 189 -218 189 -218 179.5 -210 c 128,-1,6
 170 -202 170 -202 170 -189 c 0,7,8
 170 -182 170 -182 228 -2 c 1,9,10
 154 15 154 15 102.5 65 c 128,-1,11
 51 115 51 115 51 191 c 0,12,13
 51 235 51 235 71.5 293 c 128,-1,14
 92 351 92 351 117.5 391 c 128,-1,15
 143 431 143 431 159 431 c 0,16,17
 172 431 172 431 172 420 c 0,18,19
 172 415 172 415 163 406 c 0,20,21
 124 361 124 361 102 297 c 128,-1,22
 80 233 80 233 80 202 c 0,23,24
 80 147 80 147 124 109 c 128,-1,25
 168 71 168 71 247 57 c 1,26,27
 261 104 261 104 269 129 c 128,-1,28
 277 154 277 154 293.5 201.5 c 128,-1,29
 310 249 310 249 324 276 c 128,-1,30
 338 303 338 303 359.5 339 c 128,-1,31
 381 375 381 375 403 394.5 c 128,-1,32
 425 414 425 414 454 428 c 128,-1,33
 483 442 483 442 515 442 c 0,34,35
 571 442 571 442 602.5 403.5 c 128,-1,36
 634 365 634 365 634 301 c 0,37,38
 634 182 634 182 534.5 85.5 c 128,-1,39
 435 -11 435 -11 308 -11 c 0,40,41
 292 -11 292 -11 274 -9 c 1,0,1
286 52 m 1,42,43
 296 51 296 51 317 51 c 0,44,45
 431 51 431 51 517 122.5 c 128,-1,46
 603 194 603 194 603 280 c 0,47,48
 603 326 603 326 576 353 c 128,-1,49
 549 380 549 380 506 380 c 0,50,51
 432 380 432 380 371 301 c 1,52,53
 321 238 321 238 297 114 c 1,54,55
 292 82 292 82 286 52 c 1,42,43
EndSplineSet
EndChar

StartChar: chi
Encoding: 967 967 99
Width: 640
Flags: W
HStem: -205 25<480.643 533.712> -194 21G<39 48> 411 20G<592 601.5> 417 25<106.948 160.22>
VStem: 556 27<-159.497 -126.011>
LayerCount: 2
Fore
SplineSet
598 400 m 2,0,-1
 354 135 l 1,1,2
 452 -180 452 -180 501 -180 c 0,3,4
 514 -180 514 -180 530.5 -170 c 128,-1,5
 547 -160 547 -160 556 -136 c 1,6,7
 558 -126 558 -126 570 -126 c 0,8,9
 583 -126 583 -126 583 -137 c 0,10,11
 583 -154 583 -154 559.5 -179.5 c 128,-1,12
 536 -205 536 -205 494 -205 c 0,13,14
 462 -205 462 -205 438 -197.5 c 128,-1,15
 414 -190 414 -190 399.5 -175 c 128,-1,16
 385 -160 385 -160 379 -150.5 c 128,-1,17
 373 -141 373 -141 366 -125 c 0,18,19
 328 -42 328 -42 296 71 c 1,20,-1
 241 13 l 1,21,-1
 73 -170 l 1,22,23
 61 -185 61 -185 56 -190 c 1,24,25
 50 -194 50 -194 46 -194 c 0,26,27
 32 -194 32 -194 32 -181 c 0,28,29
 32 -175 32 -175 43 -163 c 2,30,-1
 277 91 l 2,31,32
 285 99 285 99 285 103 c 0,33,34
 285 105 285 105 276 134.5 c 128,-1,35
 267 164 267 164 251.5 210 c 128,-1,36
 236 256 236 256 222 289 c 0,37,38
 170 417 170 417 139 417 c 0,39,40
 124 417 124 417 108 405.5 c 128,-1,41
 92 394 92 394 86 376 c 0,42,43
 81 363 81 363 71 363 c 0,44,45
 57 363 57 363 57 375 c 0,46,47
 57 393 57 393 81.5 417.5 c 128,-1,48
 106 442 106 442 146 442 c 0,49,50
 238 442 238 442 271 369 c 0,51,52
 296 314 296 314 346 166 c 1,53,-1
 578 419 l 2,54,55
 589 431 589 431 595 431 c 0,56,57
 608 431 608 431 608 417 c 0,58,59
 608 410 608 410 598 400 c 2,0,-1
EndSplineSet
EndChar

StartChar: psi
Encoding: 968 968 100
Width: 670
Flags: W
HStem: -205 21G<257.5 268.5> -11 25<257.681 296 331 402.859> 417 25<125.518 181.997> 674 20G<480 490.5>
VStem: 116 70<60.6676 220.93> 186 65<301.441 415.675> 607 45<242.832 385>
LayerCount: 2
Fore
SplineSet
497 683 m 1,0,-1
 331 14 l 1,1,2
 430 14 430 14 512 96 c 0,3,4
 558 142 558 142 582.5 193.5 c 128,-1,5
 607 245 607 245 607 281 c 0,6,7
 607 331 607 331 571 364 c 0,8,9
 555 378 555 378 555 393 c 0,10,11
 555 410 555 410 571.5 426.5 c 128,-1,12
 588 443 588 443 606 443 c 0,13,14
 614 443 614 443 622.5 440 c 128,-1,15
 631 437 631 437 641.5 419 c 128,-1,16
 652 401 652 401 652 369 c 0,17,18
 652 344 652 344 647 315 c 0,19,20
 633 243 633 243 616 200 c 128,-1,21
 599 157 599 157 564 114 c 0,22,23
 464 -11 464 -11 324 -11 c 1,24,25
 321 -22 321 -22 282 -180 c 0,26,27
 278 -197 278 -197 275.5 -201 c 128,-1,28
 273 -205 273 -205 264 -205 c 0,29,30
 251 -205 251 -205 251 -194 c 1,31,-1
 296 -9 l 1,32,33
 203 -3 203 -3 159.5 36 c 128,-1,34
 116 75 116 75 116 134 c 0,35,36
 116 178 116 178 171 318 c 1,37,38
 186 359 186 359 186 384 c 0,39,40
 186 417 186 417 162 417 c 0,41,42
 131 417 131 417 103 383.5 c 128,-1,43
 75 350 75 350 59 295 c 1,44,45
 49.23 277.465 49.23 277.465 43 276 c 1,46,47
 29 276 29 276 29 288 c 0,48,49
 29 295 29 295 37 317.5 c 128,-1,50
 45 340 45 340 60.5 369 c 128,-1,51
 76 398 76 398 104 420 c 128,-1,52
 132 442 132 442 165 442 c 0,53,54
 202 442 202 442 226.5 418.5 c 128,-1,55
 251 395 251 395 251 358 c 0,56,57
 251 340 251 340 237 302 c 0,58,59
 186 170 186 170 186 127 c 0,60,61
 186 31 186 31 303 16 c 1,62,-1
 467 673 l 2,63,64
 470 686 470 686 473 690 c 128,-1,65
 476 694 476 694 484 694 c 0,66,67
 497 694 497 694 497 683 c 1,0,-1
EndSplineSet
EndChar

StartChar: omega
Encoding: 969 969 101
Width: 639
Flags: W
HStem: -11 75<80.1423 199.776 345.232 467.937> 417 20G<125.5 135.5 566.5 588>
VStem: 14 36<102.219 255.718> 273 73<185.469 271.25> 273 38<128.252 200.035> 575 47<242.476 383.5>
LayerCount: 2
Fore
SplineSet
622 370 m 0,0,1
 622 338 622 338 603 254 c 1,2,3
 584 176 584 176 562 131 c 0,4,5
 494 -11 494 -11 396 -11 c 0,6,7
 368 -11 368 -11 346.5 -2 c 128,-1,8
 325 7 325 7 312 24 c 128,-1,9
 299 41 299 41 292 55.5 c 128,-1,10
 285 70 285 70 279 89 c 1,11,12
 253 49 253 49 212.5 19 c 128,-1,13
 172 -11 172 -11 129 -11 c 0,14,15
 68 -11 68 -11 41 30.5 c 128,-1,16
 14 72 14 72 14 137 c 0,17,18
 14 207 14 207 40.5 284.5 c 128,-1,19
 67 362 67 362 109 421 c 1,20,21
 119 437 119 437 132 437 c 0,22,23
 139 437 139 437 144.5 432 c 128,-1,24
 150 427 150 427 150 420 c 0,25,26
 150 411 150 411 144 403 c 0,27,28
 50 278 50 278 50 176 c 0,29,30
 50 128 50 128 71.5 96 c 128,-1,31
 93 64 93 64 138 64 c 0,32,33
 211 64 211 64 273 151 c 1,34,35
 273 177 273 177 280.5 221 c 128,-1,36
 288 265 288 265 301 281 c 0,37,38
 310 292 310 292 324 292 c 0,39,40
 346 292 346 292 346 267 c 0,41,42
 346 246 346 246 328.5 197 c 128,-1,43
 311 148 311 148 311 145 c 0,44,45
 319 110 319 110 344.5 86.5 c 128,-1,46
 370 63 370 63 409 63 c 0,47,48
 456 63 456 63 496.5 105 c 128,-1,49
 537 147 537 147 556 195.5 c 128,-1,50
 575 244 575 244 575 278 c 0,51,52
 575 329 575 329 538 366 c 0,53,54
 525 379 525 379 525 392 c 0,55,56
 525 411 525 411 541 426.5 c 128,-1,57
 557 442 557 442 576 442 c 0,58,59
 600 442 600 442 611 419.5 c 128,-1,60
 622 397 622 397 622 370 c 0,0,1
EndSplineSet
EndChar

StartChar: vartheta
Encoding: 977 977 102
Width: 609
Flags: W
HStem: -11 25<207.116 291.558> 417 25<105.216 157.682> 680 25<383.979 456.794>
VStem: 29 25<276.047 320.979> 111 68<32.1877 202.937> 165 68<262.93 410.129> 277 28<469.612 587.344> 481 64<404.298 631.984>
LayerCount: 2
Fore
SplineSet
223 295 m 2,0,-1
 209 237 l 1,1,2
 179 117 179 117 179 92 c 0,3,4
 179 14 179 14 255 14 c 0,5,6
 312 14 312 14 375 137 c 0,7,8
 411 207 411 207 447 353 c 1,9,10
 417 362 417 362 390 374.5 c 128,-1,11
 363 387 363 387 336 407 c 128,-1,12
 309 427 309 427 293 456.5 c 128,-1,13
 277 486 277 486 277 522 c 0,14,15
 277 586 277 586 323 645.5 c 128,-1,16
 369 705 369 705 429 705 c 0,17,18
 472 705 472 705 499 671.5 c 128,-1,19
 526 638 526 638 535.5 595 c 128,-1,20
 545 552 545 552 545 502 c 0,21,22
 545 438 545 438 527 357 c 1,23,24
 532 356 532 356 541 354 c 128,-1,25
 550 352 550 352 556 351 c 0,26,27
 578 347 578 347 578 338 c 0,28,29
 578 324 578 324 566 324 c 0,30,31
 560 324 560 324 520 333 c 1,32,33
 498 249 498 249 459.5 172.5 c 128,-1,34
 421 96 421 96 364.5 42.5 c 128,-1,35
 308 -11 308 -11 251 -11 c 0,36,37
 111 -11 111 -11 111 105 c 0,38,39
 111 132 111 132 121 174 c 0,40,41
 127 198 127 198 140 251 c 2,42,-1
 155 308 l 2,43,44
 165 349 165 349 165 370 c 0,45,46
 165 417 165 417 135 417 c 0,47,48
 110 417 110 417 93 389.5 c 128,-1,49
 76 362 76 362 61 301 c 0,50,51
 57 285 57 285 54 280.5 c 128,-1,52
 51 276 51 276 43 276 c 0,53,54
 29 276 29 276 29 288 c 0,55,56
 29 291 29 291 33 306.5 c 128,-1,57
 37 322 37 322 44.5 345 c 128,-1,58
 52 368 52 368 60 384 c 0,59,60
 90 442 90 442 137 442 c 0,61,62
 177 442 177 442 205 416.5 c 128,-1,63
 233 391 233 391 233 349 c 0,64,65
 233 340 233 340 223 295 c 2,0,-1
453 377 m 1,66,67
 481 492 481 492 481 559 c 0,68,69
 481 604 481 604 473 636 c 0,70,71
 461 680 461 680 427 680 c 0,72,73
 380 680 380 680 342.5 628.5 c 128,-1,74
 305 577 305 577 305 523 c 0,75,76
 305 428 305 428 453 377 c 1,66,67
EndSplineSet
EndChar

StartChar: Upsilon
Encoding: 978 978 103
Width: 728
Flags: W
HStem: 0 31<67.1038 181.394 298.676 404.875> 631 74<126.978 251.006 529.469 661.465>
VStem: 295 55<456.564 582.395> 684 34<535.077 606.188>
LayerCount: 2
Fore
SplineSet
209 75 m 2,0,-1
 258 269 l 2,1,2
 283 369 283 369 289 402 c 128,-1,3
 295 435 295 435 295 477 c 0,4,5
 295 631 295 631 183 631 c 0,6,7
 166 631 166 631 145.5 626 c 128,-1,8
 125 621 125 621 98 601 c 128,-1,9
 71 581 71 581 60 549 c 1,10,11
 56 534 56 534 41 534 c 0,12,13
 29 534 29 534 29 544 c 0,14,15
 29 556 29 556 40.5 581 c 128,-1,16
 52 606 52 606 72.5 634.5 c 128,-1,17
 93 663 93 663 128 684 c 128,-1,18
 163 705 163 705 203 705 c 128,-1,19
 243 705 243 705 272 688 c 128,-1,20
 301 671 301 671 315.5 649 c 128,-1,21
 330 627 330 627 338.5 595 c 128,-1,22
 347 563 347 563 348.5 543.5 c 128,-1,23
 350 524 350 524 350 502 c 0,24,25
 350 474 350 474 348 456 c 1,26,27
 397 571 397 571 466.5 638 c 128,-1,28
 536 705 536 705 617 705 c 0,29,30
 665 705 665 705 691.5 674 c 128,-1,31
 718 643 718 643 718 592 c 0,32,33
 718 558 718 558 712.5 546 c 128,-1,34
 707 534 707 534 694 534 c 0,35,36
 682 534 682 534 682 544 c 0,37,38
 682 545 682 545 683 552 c 128,-1,39
 684 559 684 559 684 564 c 0,40,41
 684 595 684 595 659.5 613 c 128,-1,42
 635 631 635 631 600 631 c 0,43,44
 524 631 524 631 461 554.5 c 128,-1,45
 398 478 398 478 363 337 c 0,46,47
 360 324 360 324 343 258 c 128,-1,48
 326 192 326 192 311 131.5 c 128,-1,49
 296 71 296 71 295 68 c 0,50,51
 293 56 293 56 293 52 c 0,52,53
 293 42 293 42 298.5 38.5 c 128,-1,54
 304 35 304 35 326 33 c 0,55,56
 350 31 350 31 378 31 c 0,57,58
 391 31 391 31 396 30.5 c 128,-1,59
 401 30 401 30 405 27 c 128,-1,60
 409 24 409 24 409 18 c 0,61,62
 409 0 409 0 388 0 c 0,63,64
 376 0 376 0 350 1 c 128,-1,65
 324 2 324 2 312 2 c 0,66,67
 286 3 286 3 235 3 c 0,68,69
 186 3 186 3 160 2 c 0,70,71
 118 0 118 0 84 0 c 0,72,73
 67 0 67 0 67 13 c 0,74,75
 67 25 67 25 73.5 28 c 128,-1,76
 80 31 80 31 95 31 c 0,77,78
 163 32 163 32 182 38 c 128,-1,79
 201 44 201 44 209 75 c 2,0,-1
EndSplineSet
EndChar

StartChar: phi
Encoding: 981 981 104
Width: 611
Flags: W
HStem: -205 21G<210 221> -12 25<198.891 248 283 340.983> 418 25<296.965 356 391 439.393> 674 20G<432 443>
VStem: 50 68<85.9789 254.804> 520 69<174.527 343.732>
LayerCount: 2
Fore
SplineSet
447 667 m 2,0,-1
 391 443 l 1,1,2
 489 436 489 436 539 382 c 128,-1,3
 589 328 589 328 589 261 c 0,4,5
 589 162 589 162 496 77.5 c 128,-1,6
 403 -7 403 -7 277 -12 c 1,7,-1
 235 -179 l 2,8,9
 230 -197 230 -197 227.5 -201 c 128,-1,10
 225 -205 225 -205 217 -205 c 0,11,12
 203 -205 203 -205 203 -194 c 0,13,14
 203 -192 203 -192 225 -106 c 0,15,16
 229 -90 229 -90 236.5 -59 c 128,-1,17
 244 -28 244 -28 248 -12 c 1,18,19
 155 -6 155 -6 102.5 46 c 128,-1,20
 50 98 50 98 50 171 c 0,21,22
 50 270 50 270 142.5 354 c 128,-1,23
 235 438 235 438 362 443 c 1,24,-1
 420 673 l 2,25,26
 424 688 424 688 426 691 c 128,-1,27
 428 694 428 694 436 694 c 0,28,29
 450 694 450 694 450 682 c 0,30,31
 450 679 450 679 447 667 c 2,0,-1
254 13 m 1,32,-1
 356 418 l 1,33,34
 247 408 247 408 182.5 326 c 128,-1,35
 118 244 118 244 118 151 c 0,36,37
 118 86 118 86 157 51 c 128,-1,38
 196 16 196 16 254 13 c 1,32,-1
384 418 m 1,39,-1
 283 13 l 1,40,41
 386 22 386 22 453 101.5 c 128,-1,42
 520 181 520 181 520 280 c 0,43,44
 520 346 520 346 481.5 380 c 128,-1,45
 443 414 443 414 384 418 c 1,39,-1
EndSplineSet
EndChar

StartChar: varpi
Encoding: 982 982 105
Width: 860
Flags: W
HStem: -11 62<169.574 295.566 491.905 617.123> 369 62<122.136 221 254.097 741.067 764 837.493>
VStem: 118 33<75.395 213.909> 430.5 33.5<88.3359 151> 452 28<243.333 295.997> 747 28<217.261 367.906>
LayerCount: 2
Fore
SplineSet
196 431 m 2,0,-1
 799 431 l 2,1,2
 812 431 812 431 818.5 430 c 128,-1,3
 825 429 825 429 832.5 423 c 128,-1,4
 840 417 840 417 840 405 c 0,5,6
 840 381 840 381 817 372 c 0,7,8
 810 369 810 369 764 369 c 1,9,10
 775 334 775 334 775 297 c 0,11,12
 775 256 775 256 757.5 204 c 128,-1,13
 740 152 740 152 710.5 103.5 c 128,-1,14
 681 55 681 55 635 22 c 128,-1,15
 589 -11 589 -11 538 -11 c 0,16,17
 507 -11 507 -11 485.5 1.5 c 128,-1,18
 464 14 464 14 453.5 29.5 c 128,-1,19
 443 45 443 45 437 71 c 128,-1,20
 431 97 431 97 430.5 112 c 128,-1,21
 430 127 430 127 430 151 c 1,22,-1
 429 151 l 1,23,24
 386 73 386 73 328 31 c 128,-1,25
 270 -11 270 -11 211 -11 c 0,26,27
 181 -11 181 -11 161 2 c 128,-1,28
 141 15 141 15 132.5 36 c 128,-1,29
 124 57 124 57 121 74 c 128,-1,30
 118 91 118 91 118 109 c 0,31,32
 118 244 118 244 221 369 c 1,33,34
 172 369 172 369 155.5 366.5 c 128,-1,35
 139 364 139 364 119 353 c 0,36,37
 85 335 85 335 57 296 c 1,38,39
 49 283 49 283 41 283 c 0,40,41
 27 283 27 283 27 294 c 0,42,43
 27 300 27 300 49 332.5 c 128,-1,44
 71 365 71 365 90 384 c 0,45,46
 137 431 137 431 196 431 c 2,0,-1
735 369 m 1,47,-1
 275 369 l 2,48,49
 257 369 257 369 254 366 c 0,50,51
 243 356 243 356 222 328.5 c 128,-1,52
 201 301 201 301 176 245.5 c 128,-1,53
 151 190 151 190 151 142 c 0,54,55
 151 51 151 51 221 51 c 0,56,57
 285 51 285 51 351.5 109.5 c 128,-1,58
 418 168 418 168 452 285 c 0,59,60
 455 296 455 296 466 296 c 0,61,62
 480 296 480 296 480 284 c 0,63,64
 480 283 480 283 479.5 281 c 128,-1,65
 479 279 479 279 478 275 c 0,66,67
 464 213 464 213 464 169 c 0,68,69
 464 51 464 51 548 51 c 0,70,71
 625 51 625 51 686 131 c 128,-1,72
 747 211 747 211 747 297 c 0,73,74
 747 334 747 334 735 369 c 1,47,-1
EndSplineSet
EndChar

StartChar: varrho
Encoding: 1009 1009 106
Width: 510
Flags: W
HStem: -194 21G<347 362.5> -175 62.5<96.4318 339.045> -11 25<198.367 281.009> 417 25<296.906 381.835>
VStem: 50 33<-94.7213 51.5485> 340 31<-193.921 -181 -178.336 -176.001> 415 75<196.299 368.376>
LayerCount: 2
Fore
SplineSet
104 93 m 1,0,1
 83 -3 83 -3 83 -46 c 0,2,3
 83 -66 83 -66 89 -78.5 c 128,-1,4
 95 -91 95 -91 103 -98.5 c 128,-1,5
 111 -106 111 -106 132 -109 c 128,-1,6
 153 -112 153 -112 169 -112.5 c 128,-1,7
 185 -113 185 -113 221 -113 c 0,8,9
 269 -113 269 -113 289 -114 c 128,-1,10
 309 -115 309 -115 332.5 -119.5 c 128,-1,11
 356 -124 356 -124 363.5 -134.5 c 128,-1,12
 371 -145 371 -145 371 -164 c 0,13,14
 371 -194 371 -194 354 -194 c 0,15,16
 340 -194 340 -194 340 -181 c 1,17,-1
 339.047 -178.336 l 2,18,19
 339 -176 339 -176 338 -176 c 0,20,21
 334 -171 334 -171 295 -171 c 0,22,23
 273 -171 273 -171 243.5 -173 c 128,-1,24
 214 -175 214 -175 195 -175 c 0,25,26
 109 -175 109 -175 79.5 -148.5 c 128,-1,27
 50 -122 50 -122 50 -73 c 0,28,29
 50 -19 50 -19 78 107.5 c 128,-1,30
 106 234 106 234 125 275 c 0,31,32
 158 348 158 348 219.5 395 c 128,-1,33
 281 442 281 442 344 442 c 0,34,35
 408 442 408 442 449 396 c 128,-1,36
 490 350 490 350 490 277 c 0,37,38
 490 169 490 169 410.5 79 c 128,-1,39
 331 -11 331 -11 237 -11 c 0,40,41
 191 -11 191 -11 155.5 15.5 c 128,-1,42
 120 42 120 42 104 93 c 1,0,1
237 14 m 0,43,44
 269 14 269 14 300.5 38.5 c 128,-1,45
 332 63 332 63 352 96 c 0,46,47
 381 144 381 144 398 214.5 c 128,-1,48
 415 285 415 285 415 319 c 0,49,50
 415 362 415 362 396 389.5 c 128,-1,51
 377 417 377 417 343 417 c 0,52,53
 310 417 310 417 273 389.5 c 128,-1,54
 236 362 236 362 211 314 c 0,55,56
 189 272 189 272 175 213 c 128,-1,57
 161 154 161 154 161 119 c 0,58,59
 161 71 161 71 182 42.5 c 128,-1,60
 203 14 203 14 237 14 c 0,43,44
EndSplineSet
EndChar

StartChar: epsilon
Encoding: 1013 1013 107
Width: 416
Flags: W
HStem: -11 25<186.992 298.842> 226 31<145 336.359> 400 31<246.141 380.359>
VStem: 49 77<83.4219 224.615>
LayerCount: 2
Fore
SplineSet
308 226 m 2,0,-1
 137 226 l 1,1,2
 126 178 126 178 126 144 c 0,3,4
 126 82 126 82 158 48 c 128,-1,5
 190 14 190 14 238 14 c 0,6,7
 290 14 290 14 349 53 c 0,8,9
 356 58 356 58 360 58 c 0,10,11
 372 58 372 58 372 42 c 0,12,13
 372 35 372 35 352.5 22.5 c 128,-1,14
 333 10 333 10 300 -0.5 c 128,-1,15
 267 -11 267 -11 236 -11 c 0,16,17
 158 -11 158 -11 103.5 40 c 128,-1,18
 49 91 49 91 49 181 c 0,19,20
 49 293 49 293 132 362 c 128,-1,21
 215 431 215 431 317 431 c 2,22,-1
 354 431 l 2,23,24
 366 431 366 431 371 430.5 c 128,-1,25
 376 430 376 430 380.5 426.5 c 128,-1,26
 385 423 385 423 385 416 c 0,27,28
 385 400 385 400 352 400 c 2,29,-1
 320 400 l 2,30,31
 254 400 254 400 209.5 362.5 c 128,-1,32
 165 325 165 325 145 257 c 1,33,-1
 311 257 l 2,34,35
 322 257 322 257 327 256.5 c 128,-1,36
 332 256 332 256 336.5 253 c 128,-1,37
 341 250 341 250 341 243 c 0,38,39
 341 226 341 226 308 226 c 2,0,-1
EndSplineSet
EndChar
